<svg width="149" height="102" viewBox="0 0 149 102" fill="none" xmlns="http://www.w3.org/2000/svg">
<path d="M44.8686 95.4401C45.6609 97.864 44.8686 99.0758 41.6995 100.591C37.4209 102.863 34.7273 102.408 32.1919 99.0758C29.6566 95.8945 29.0226 92.5619 28.0718 89.5322C27.7549 88.4717 27.2798 86.8054 26.8045 86.9569C26.4876 86.9569 26.1705 87.4113 25.8535 88.1688C22.5259 94.2284 13.4936 100.136 7.47221 98.9245C2.40153 97.864 -0.291801 92.2588 0.0251167 87.1084C0.65895 78.3222 2.40169 70.5963 7.63081 63.1735C14.2861 53.7814 23.6351 53.6299 30.6073 62.8705C30.7658 63.0221 31.0825 63.325 31.241 63.325C39.1639 61.6587 39.1645 68.1726 39.0059 73.0201C38.8477 78.0192 39.64 82.1093 41.383 86.6539C42.9677 91.3501 44.0762 93.0162 44.8686 95.4401ZM13.1769 83.9272C17.7722 84.9876 19.5152 78.0192 20.3075 74.6865C20.7829 72.5657 20.3075 69.9904 18.7229 69.3845C18.2476 69.0815 16.9799 69.0815 16.3461 69.9904C13.8107 73.929 9.53234 83.1697 13.1769 83.9272Z" fill="#061538"/>
<path d="M45.1992 78.7596C45.1992 67.5496 54.0727 55.7337 64.0556 53.4614C68.9679 52.401 74.6722 56.4911 75.7814 64.3684C76.5737 69.9734 74.3553 73.1546 68.6508 72.3972C65.6401 71.9427 65.3235 69.5189 65.0066 66.9437C65.0066 66.4892 64.5312 65.8833 63.422 66.3377C58.6682 68.61 55.499 77.5477 57.8759 82.2438C60.4113 87.3945 65.7988 88.4546 68.968 83.6072C71.5033 79.3655 72.771 78.0022 76.0986 79.3655C80.8523 81.3349 80.852 83.1527 79.5842 86.3341C77.8412 90.7271 70.8694 97.6955 62.4711 98.4529C53.4389 98.7559 45.1992 89.3637 45.1992 78.7596Z" fill="#061538"/>
<path d="M111.738 101.344L86.3842 100.284C85.7502 100.284 85.2749 99.8294 84.7995 99.375C84.4826 98.9206 84.1652 98.3146 84.3237 97.7085C84.3237 97.4058 87.8102 72.4105 88.7609 62.4122C89.0777 58.6252 89.2363 55.5956 88.7609 54.5351C88.444 53.7777 87.1762 53.3233 84.4823 52.4143C84.3238 52.2629 84.0069 52.2629 83.69 52.1112C82.5808 51.6569 81.1545 51.3538 79.5699 50.7478C73.2315 48.9299 64.3579 46.3547 56.5934 39.235C52.7904 35.9024 51.8398 31.3577 53.5828 26.9646C55.4843 22.42 60.2385 18.9358 64.3585 18.9358C64.8339 18.9358 65.4677 18.9358 65.9431 19.0873C69.2707 19.8447 71.1717 21.0566 73.3901 22.5715C75.4501 23.9348 77.9859 25.6012 82.5812 27.5705C86.701 29.3883 90.187 30.9032 91.7716 30.9032C91.9299 30.9032 91.9302 30.9032 91.9302 30.9032C92.0885 30.7517 92.2465 30.2972 92.2465 28.7824C92.2465 27.419 92.2471 25.4497 92.0888 23.1774C91.6134 14.0882 91.6134 6.96835 94.4656 3.78716C97.0009 0.908919 102.071 0 105.558 0C110.311 0 113.956 1.51486 115.699 4.09012C119.185 9.24067 119.66 17.4209 119.819 25.2982C119.819 27.5705 119.977 29.0854 120.136 30.1458C120.294 31.0547 120.453 31.5092 120.453 31.6606C121.086 31.6606 122.037 31.2062 122.354 31.2062C123.621 30.7517 125.206 29.3883 126.633 28.025C129.326 25.6012 132.495 22.7229 136.615 22.7229C136.773 22.7229 136.932 22.7229 137.091 22.7229C141.211 22.8744 145.331 25.4497 147.549 28.9339C149.134 31.5092 149.451 34.2359 148.341 36.3568C144.221 44.3855 137.091 49.9904 126.95 53.0203C121.404 54.6865 118.868 55.7469 117.758 56.8073C116.808 57.8678 116.65 59.0796 116.333 62.2608C116.333 63.0183 116.174 63.7757 116.016 64.6847C115.065 73.0165 113.638 99.072 113.638 99.375C113.797 99.9811 112.847 101.344 111.738 101.344ZM88.9195 95.7393L109.677 96.3454C109.994 90.1345 111.103 71.1987 112.054 63.9273C112.212 63.0183 112.213 62.2608 112.371 61.6548C112.688 58.3221 113.005 55.7469 115.065 53.7777C117.125 51.8082 120.453 50.4451 126.157 48.9299C131.545 47.4151 135.982 44.9916 139.468 41.8103C141.686 39.6894 143.588 37.2655 145.014 34.3872C145.489 33.4785 145.331 32.1151 144.38 30.7517C142.954 28.3279 139.943 26.6616 137.407 26.5101H137.25C134.714 26.5101 132.496 28.4794 130.119 30.6002C128.376 32.2666 126.474 33.9329 124.256 34.6903C123.146 35.145 121.878 35.4477 120.769 35.4477C119.343 35.4477 117.442 34.8419 116.65 32.2666C116.174 30.9032 116.016 28.7824 116.016 25.1467C115.857 17.7239 115.382 10.3011 112.53 6.05944C111.579 4.69607 109.043 3.93864 106.033 3.93864C102.705 3.93864 99.3776 4.99904 98.1098 6.36243C97.6346 6.81687 96.8423 8.33175 96.684 12.7249C96.5254 15.9061 96.684 19.6932 96.8426 23.0259C97.0009 25.2982 97.0002 27.2675 97.0002 28.7824C97.0002 30.7517 96.684 31.9636 96.0502 32.8725C95.4165 33.7815 94.3066 34.8419 92.2465 34.8419C89.8697 34.8419 86.5421 33.4785 81.3131 31.2062C76.4009 29.0854 73.7075 27.2675 71.4891 25.9042C69.4292 24.5408 68.0025 23.6319 65.4672 23.0259C65.3088 23.0259 65.1505 23.0259 64.8336 23.0259C62.1397 23.0259 59.1293 25.9042 58.0201 28.6309C57.2278 30.6002 56.752 33.6298 59.9212 36.5081C67.0518 43.022 75.2917 45.4459 81.3131 47.1121C82.8977 47.5668 84.4827 48.0212 85.7504 48.4756C86.0673 48.6272 86.2256 48.6272 86.3842 48.7786C89.7118 49.9904 91.772 50.7478 92.8809 53.0203C93.8318 54.9895 93.8315 57.7164 93.356 63.0183C92.4054 70.744 89.8704 89.2254 88.9195 95.7393Z" fill="#061538"/>
</svg>
