<svg width="126" height="109" viewBox="0 0 126 109" fill="none" xmlns="http://www.w3.org/2000/svg">
<g clip-path="url(#clip0_873_2754)">
<path d="M112.401 48.3297C112.401 47.7361 112.401 46.8754 112.302 45.7476C112.106 42.4811 111.574 39.2444 110.715 36.09C109.409 31.1676 107.332 26.49 104.562 22.2357C100.987 16.6983 96.348 11.9481 90.9221 8.26864C87.8206 6.17928 84.4957 4.45282 81.0109 3.12226C77.2723 1.70468 73.375 0.761633 69.4079 0.3146C68.3951 0.184011 67.3238 0.136525 66.2993 0.0593585L64.7772 0H64.0103C63.6942 0 63.4717 0 63.1966 0L61.6218 0.0356151C61.0891 0.0356151 60.5622 0.112781 60.0353 0.148396C58.9699 0.201819 57.9161 0.368023 56.8448 0.498611C54.6926 0.820415 52.5646 1.29043 50.4754 1.90541C49.4158 2.19033 48.3796 2.57616 47.3258 2.93231C46.8107 3.12226 46.2955 3.33595 45.7745 3.52589L44.9959 3.83456L44.2348 4.18477C35.6325 8.02855 28.3244 14.3356 23.2078 22.3317C18.0912 30.3278 15.3887 39.6648 15.4322 49.1963C15.509 57.9502 17.9159 66.5205 22.3987 74.0022C22.9097 73.8038 23.4316 73.6353 23.9617 73.4977C22.0523 70.1404 20.5412 66.5659 19.4598 62.8488C18.8318 60.634 18.3603 58.3766 18.049 56.0938C17.7526 53.807 17.6079 51.5027 17.6158 49.1963C17.6626 48.0804 17.6568 46.822 17.7738 45.7298C17.8909 44.6376 17.9963 43.4563 18.1485 42.3107C18.4962 40.0456 19.0009 37.8082 19.6589 35.6151C20.9889 31.2534 22.9288 27.1075 25.4194 23.3041C30.2982 15.8817 37.1506 10.0121 45.1832 6.3751L45.9091 6.03676L46.6468 5.73997L48.1279 5.14638C49.1289 4.80804 50.1125 4.43408 51.1194 4.16697C53.1074 3.58648 55.1317 3.14227 57.1785 2.83734C58.1971 2.71268 59.204 2.55242 60.2168 2.49899C60.7203 2.46338 61.2237 2.40995 61.7272 2.39215L63.2259 2.37434H63.9459H64.7128L66.2349 2.41589C67.2184 2.49899 68.1785 2.54054 69.162 2.67113C72.9252 3.09823 76.6219 3.99541 80.1679 5.34226C89.342 8.86163 97.181 15.2369 102.56 23.5534C105.182 27.6071 107.178 32.0428 108.479 36.7073C109.321 39.7078 109.85 42.7895 110.059 45.9019C110.165 46.9822 110.147 47.8133 110.177 48.3653C110.206 48.9173 110.177 49.2141 110.177 49.2141C110.177 49.2141 110.177 49.5109 110.177 50.0808C110.177 50.6506 110.177 51.5232 110.095 52.5738C109.8 57.918 108.6 63.1707 106.547 68.102C105.789 69.9544 104.909 71.753 103.913 73.4858C104.501 73.5105 105.088 73.5719 105.669 73.6698C107.782 70.1084 109.423 66.2805 110.551 62.2849C111.455 59.1456 112.03 55.9184 112.267 52.6569C112.384 51.5054 112.372 50.6862 112.407 50.1045C112.442 49.5228 112.401 49.2675 112.401 49.2675C112.401 49.2675 112.401 48.9114 112.401 48.3297Z" fill="#061538"/>
<path d="M90.6342 18.954L90.4469 18.9065H90.3591H90.3064H90.1893L89.9844 18.8472L89.8556 18.7997C89.8249 18.7893 89.7954 18.7754 89.7678 18.7581V18.6275C89.7734 18.5782 89.7734 18.5285 89.7678 18.4791V18.3129C89.7678 18.2061 89.7678 18.1527 89.721 18.1408V17.8321C89.726 17.7788 89.726 17.7252 89.721 17.6719C89.633 17.7602 89.5545 17.8577 89.4868 17.9627C89.4137 18.0692 89.3472 18.1802 89.2878 18.2951C89.2429 18.3736 89.2075 18.4573 89.1824 18.5444C89.1824 18.6216 89.1824 18.6394 89.1414 18.6869H89.077C88.9997 18.6291 88.9123 18.5868 88.8194 18.5623L88.6731 18.5088L88.3979 18.402L88.035 18.2773C87.8945 18.2358 87.8125 18.218 87.8125 18.2358L87.9062 18.3189C87.9883 18.4061 88.083 18.4802 88.1872 18.5385L88.5326 18.9065C88.6077 18.9832 88.6781 19.0644 88.7433 19.1499L88.7902 19.2152L88.7199 19.2924L88.6379 19.3933L88.5618 19.5061L88.4682 19.6366C88.433 19.696 88.4096 19.7376 88.4272 19.7494L88.3335 19.8741H88.3043L88.1813 20.0225C88.141 20.0815 88.096 20.1371 88.0467 20.1887C88.0467 20.1887 88.0467 20.1887 88.1286 20.1887C88.3518 20.0616 88.5825 19.9487 88.8194 19.8503L88.9892 19.7672L89.0946 19.7019L89.1414 19.6663L89.1765 19.7138C89.2878 19.8481 89.3914 19.9889 89.4868 20.1353L89.639 20.3668C89.639 20.3668 89.6858 20.438 89.7034 20.4439L89.7737 20.4973L89.8088 20.5508C89.8088 20.5982 89.8498 20.5864 89.8732 20.5211V20.4677C89.8732 20.432 89.8732 20.3905 89.8732 20.3668C89.8923 20.2808 89.8923 20.1916 89.8732 20.1056V19.7969V19.6366V19.5892L89.9727 19.5476L90.2127 19.4526L90.3357 19.3992L90.5288 19.3161C90.6401 19.2627 90.7513 19.2152 90.8801 19.1677L91.0616 19.0965L90.6342 18.954Z" fill="#061538"/>
<path d="M30.1616 31.6559H29.7108C29.6387 31.6618 29.5663 31.6618 29.4942 31.6559H29.3537H29.26C29.26 31.6203 29.26 31.5965 29.2249 31.5253C29.1898 31.4541 29.1898 31.4363 29.178 31.3888L29.1195 31.2344C29.0785 31.1335 29.0493 31.086 29.0258 31.0801L28.9263 30.7833C28.9325 30.7301 28.9325 30.6763 28.9263 30.623C28.8607 30.7297 28.8114 30.8457 28.78 30.9673C28.739 31.086 28.6863 31.2879 28.6746 31.3472C28.666 31.436 28.666 31.5255 28.6746 31.6143C28.6776 31.6638 28.6776 31.7133 28.6746 31.7627H28.6102C28.5214 31.7252 28.4252 31.709 28.3292 31.7152H28.1711H27.9311H27.5447C27.4042 31.7152 27.3223 31.7152 27.3223 31.7152L27.4394 31.7627C27.5424 31.8224 27.6526 31.8683 27.7672 31.8993L28.2063 32.1545C28.301 32.2035 28.3911 32.2611 28.4755 32.3266L28.5399 32.3741L28.4931 32.4691L28.4404 32.5937C28.4404 32.6353 28.4111 32.6768 28.3994 32.7184L28.3468 32.8727C28.3468 32.938 28.3468 32.9855 28.3468 32.9915L28.2882 33.1398C28.2576 33.1968 28.2322 33.2564 28.2121 33.3179C28.1873 33.3871 28.158 33.4545 28.1243 33.5197C28.1243 33.5197 28.1243 33.5197 28.1945 33.4782C28.3797 33.2948 28.5752 33.1224 28.78 32.9618C28.8295 32.9214 28.8765 32.8778 28.9205 32.8312L29.0024 32.7421L29.0375 32.6947H29.0902C29.219 32.8015 29.3654 32.8965 29.5 33.0152L29.7108 33.1992C29.7352 33.2228 29.7628 33.2428 29.7927 33.2586H29.8747L29.9215 33.3061C29.9567 33.3417 29.9801 33.306 29.9801 33.2586C29.983 33.2389 29.983 33.2189 29.9801 33.1992C29.9771 33.1637 29.9771 33.1279 29.9801 33.0924C29.9801 33.0045 29.9622 32.9176 29.9274 32.8371L29.7108 32.6472L29.6581 32.5047V32.4632L29.7401 32.3919L29.9508 32.2317L30.0503 32.1486L30.2084 32.012C30.303 31.9268 30.4028 31.8475 30.507 31.7746L30.6592 31.6499C30.4777 31.6381 30.3079 31.644 30.1616 31.6559Z" fill="#061538"/>
<path d="M45.3122 28.0768H44.8965C44.8321 28.0768 44.7619 28.0768 44.7033 28.0768H44.5745H44.4926V27.9581C44.4836 27.9158 44.4718 27.8742 44.4575 27.8335L44.4165 27.6851C44.4165 27.5901 44.3638 27.5426 44.3462 27.5367L44.2818 27.2636C44.2866 27.2143 44.2866 27.1646 44.2818 27.1152C44.2129 27.2075 44.1577 27.3095 44.1179 27.418C44.0769 27.5189 44.0125 27.6969 43.995 27.7504C43.971 27.8276 43.9553 27.9072 43.9481 27.9878C43.9481 28.059 43.9481 28.0768 43.9481 28.1303H43.8896C43.8111 28.0909 43.7254 28.0687 43.6379 28.065H43.4974H43.2808L42.9295 28.0175C42.8007 28.0175 42.7246 28.0175 42.7246 28.0175C42.7595 28.0342 42.7928 28.054 42.8241 28.0768C42.9147 28.1379 43.0132 28.1858 43.1168 28.2193L43.4915 28.4924C43.5734 28.5459 43.6499 28.6076 43.7198 28.6764L43.7725 28.7238L43.7315 28.807L43.673 28.9138L43.6203 29.0266L43.5618 29.1572C43.5618 29.2165 43.5266 29.264 43.5618 29.264L43.4974 29.3946C43.4974 29.4421 43.433 29.5074 43.4154 29.5489C43.3907 29.6097 43.3593 29.6675 43.3217 29.7211C43.3217 29.7211 43.3217 29.7211 43.3861 29.7211C43.5732 29.5676 43.7686 29.4249 43.9716 29.2937L44.1121 29.1928L44.194 29.1156L44.2291 29.0741L44.2701 29.1097C44.3813 29.2106 44.5043 29.3115 44.6214 29.4302L44.797 29.6142C44.8174 29.6374 44.8411 29.6574 44.8672 29.6736H44.9375L44.9785 29.7151C44.9785 29.7508 45.0253 29.7151 45.037 29.6795V29.6202C45.0309 29.5888 45.0309 29.5565 45.037 29.5252C45.0406 29.4464 45.0287 29.3677 45.0019 29.2937L44.9316 29.0206L44.8907 28.8841V28.8485L44.9726 28.7891L45.1717 28.6586L45.2712 28.5933C45.3239 28.5576 45.3707 28.5161 45.4292 28.4805C45.4878 28.4449 45.6107 28.3558 45.7161 28.2846L45.8625 28.1896C45.599 28.0887 45.4468 28.0768 45.3122 28.0768Z" fill="#061538"/>
<path d="M56.7859 20.5145L56.5342 20.5561H56.4288H56.3527H56.2064L55.9254 20.5858H55.6151C55.5994 20.531 55.5799 20.4774 55.5566 20.4255C55.5329 20.3664 55.5055 20.3089 55.4746 20.2534L55.3809 20.0634C55.3165 19.9388 55.2697 19.8794 55.2404 19.8794L55.0297 19.5885C55.0182 19.5198 55.0006 19.4522 54.977 19.3867C54.9117 19.5372 54.8627 19.6945 54.8306 19.8557C54.8306 20.0159 54.7604 20.2771 54.7487 20.3543C54.734 20.4705 54.734 20.5882 54.7487 20.7045C54.7487 20.8054 54.7487 20.8291 54.7487 20.9004H54.6667C54.5448 20.8776 54.4198 20.8776 54.2979 20.9004H54.0989H53.7827L53.2851 20.936C53.0978 20.936 52.9924 20.936 52.9983 20.9953L53.1505 21.0488C53.2929 21.1096 53.4424 21.1515 53.5954 21.1734L54.1808 21.4465C54.3083 21.4985 54.43 21.5641 54.5438 21.6423L54.6316 21.6898C54.6316 21.7314 54.6316 21.7729 54.5906 21.8145L54.5379 21.9807C54.5379 22.04 54.5379 22.0935 54.497 22.1528C54.456 22.2122 54.497 22.2953 54.456 22.3546C54.415 22.414 54.4267 22.509 54.456 22.509L54.3974 22.7108C54.3974 22.788 54.333 22.8889 54.3213 22.9482C54.299 23.0388 54.2716 23.1279 54.2394 23.2153C54.2394 23.2153 54.2394 23.2153 54.3272 23.15C54.5496 22.9197 54.7841 22.7018 55.0297 22.4971C55.0888 22.44 55.1436 22.3785 55.1936 22.3131L55.2873 22.1884L55.3283 22.1231L55.3985 22.1588C55.58 22.2715 55.779 22.3784 55.9839 22.5149L56.2766 22.7227C56.3112 22.747 56.3485 22.7669 56.3879 22.782H56.4991L56.5693 22.8295C56.6162 22.873 56.6396 22.8493 56.6396 22.7583C56.6396 22.7583 56.6396 22.7049 56.6396 22.6811C56.634 22.6358 56.634 22.5899 56.6396 22.5446C56.6251 22.4319 56.5893 22.323 56.5342 22.2241L56.3527 21.862L56.2649 21.6839V21.6364L56.3703 21.5355L56.6103 21.2981L56.7274 21.1793L56.9206 20.9775C57.0318 20.8588 57.1372 20.752 57.2718 20.6273L57.4533 20.4552L56.7859 20.5145Z" fill="#061538"/>
<path d="M79.5695 26.243H79.0309H78.7675H78.6035C78.5647 26.2488 78.5253 26.2488 78.4865 26.243C78.4896 26.1916 78.4896 26.1401 78.4865 26.0887C78.4771 26.0297 78.4614 25.972 78.4396 25.9165L78.3869 25.7206C78.3518 25.596 78.3167 25.5307 78.2874 25.5248L78.2055 25.1627C78.2095 25.0974 78.2095 25.032 78.2055 24.9668C78.1202 25.0927 78.0495 25.2282 77.9947 25.3704C77.9362 25.507 77.8542 25.7444 77.8308 25.8156C77.7949 25.9169 77.7732 26.0228 77.7664 26.1302C77.7664 26.2252 77.7664 26.2489 77.7664 26.3142H77.6903C77.587 26.2598 77.473 26.2294 77.3566 26.2252H77.1693L76.8824 26.1836L76.4199 26.1243C76.2443 26.1243 76.1448 26.1243 76.1506 26.1243L76.2794 26.1955C76.3992 26.2776 76.5291 26.3435 76.6658 26.3914L77.1634 26.7476C77.2707 26.8209 77.3724 26.9023 77.4678 26.9909L77.5381 27.0562L77.4737 27.1631L77.4034 27.3055L77.3332 27.4539L77.2571 27.632C77.2571 27.7032 77.2044 27.7685 77.2571 27.7745L77.1693 27.9466C77.1341 28.0178 77.0815 28.1009 77.058 28.1543C77.0248 28.2355 76.9836 28.313 76.9351 28.3858C76.9351 28.3858 76.9351 28.3858 77.0229 28.3443C77.2596 28.1325 77.5078 27.9344 77.7664 27.7507L77.9479 27.6142L78.0591 27.5133L78.1059 27.4599L78.1645 27.5014C78.3108 27.6439 78.4748 27.7745 78.627 27.9288L78.8553 28.1722C78.8816 28.2034 78.9134 28.2296 78.9489 28.2493L79.0426 28.2909L79.1011 28.3502V28.3146C79.1363 28.3621 79.1655 28.3502 79.1773 28.2671C79.1801 28.2435 79.1801 28.2196 79.1773 28.1959C79.1709 28.1526 79.1709 28.1086 79.1773 28.0653C79.1849 27.9606 79.171 27.8555 79.1363 27.7566L79.0368 27.3946L78.9899 27.2105V27.1631L79.107 27.0918L79.3704 26.9197L79.4992 26.8307L79.71 26.6823C79.8317 26.5877 79.9587 26.5005 80.0905 26.4211L80.2896 26.2964L79.5695 26.243Z" fill="#061538"/>
<path d="M35.7115 20.6334L35.4422 20.675H35.3251H35.2431L35.0851 20.7046C34.9845 20.7243 34.8828 20.7382 34.7807 20.7462H34.4528C34.4323 20.6876 34.4088 20.6302 34.3826 20.574C34.356 20.5104 34.3247 20.4489 34.2889 20.39L34.1835 20.1823C34.1133 20.0458 34.0606 19.9864 34.0255 19.9864L33.844 19.5946C33.8278 19.5199 33.8063 19.4465 33.7796 19.375C33.7101 19.5404 33.661 19.7139 33.6332 19.8914C33.5981 20.0576 33.563 20.3485 33.5513 20.4316C33.5366 20.5578 33.5366 20.6853 33.5513 20.8115C33.5513 20.9183 33.5513 20.948 33.5513 21.0192H33.4635C33.3303 20.9905 33.1927 20.9905 33.0595 21.0192C32.9874 21.0234 32.9151 21.0234 32.8429 21.0192H32.5034L31.9648 21.0667C31.7599 21.0667 31.6487 21.1083 31.6545 21.1379L31.8243 21.1914C31.978 21.2559 32.1394 21.2998 32.3043 21.322L32.9542 21.6009C33.1065 21.7044 33.246 21.8259 33.3698 21.963L33.4693 22.0165C33.4693 22.0639 33.4693 22.1114 33.4225 22.153L33.3698 22.337C33.3698 22.3963 33.3698 22.4557 33.3288 22.521C33.2878 22.5863 33.3288 22.6753 33.2878 22.7406C33.2469 22.8059 33.2878 22.9128 33.2878 22.9068L33.2293 23.1265L33.2 23.1561C33.2 23.2452 33.1356 23.358 33.1239 23.4173C33.1033 23.5167 33.0739 23.6141 33.0361 23.7082H33.0654C33.0654 23.7082 33.0654 23.7082 33.159 23.6369C33.3794 23.3484 33.6159 23.0729 33.8674 22.8119C33.9304 22.7487 33.9891 22.6813 34.043 22.61L34.1426 22.4676L34.1835 22.3963L34.2596 22.432C34.4645 22.5566 34.6811 22.6635 34.8919 22.8059L35.2139 23.0255C35.251 23.0541 35.2925 23.0762 35.3368 23.0908H35.4539L35.53 23.1443V23.1086C35.5827 23.1502 35.612 23.1086 35.6061 23.0315C35.6002 22.9543 35.6061 22.9721 35.6061 22.9484C35.5978 22.8993 35.5978 22.8491 35.6061 22.8C35.5878 22.6782 35.5461 22.5612 35.4832 22.4557L35.2841 22.0639L35.1261 21.9037V21.8503L35.2373 21.7375L35.4949 21.4763L35.6237 21.3457L35.8286 21.1261C35.9444 20.9887 36.0696 20.8598 36.2032 20.7402L36.3964 20.5444C36.1271 20.5562 35.893 20.5918 35.7115 20.6334Z" fill="#061538"/>
<path d="M97.5068 30.1123L97.2844 30.0529H97.1848H97.1146L96.9799 30.0233C96.8941 30.0047 96.8099 29.9789 96.7282 29.9461L96.5702 29.8867L96.4648 29.8392C96.4648 29.7918 96.4648 29.7621 96.4648 29.679C96.4648 29.5959 96.4648 29.5603 96.4648 29.5009V29.2991C96.4648 29.1685 96.4648 29.1032 96.4121 29.0854V28.7174C96.4279 28.6531 96.4377 28.5876 96.4414 28.5215C96.3347 28.6284 96.2386 28.7457 96.1545 28.8717C96.0667 28.9964 95.9379 29.2041 95.9028 29.2694C95.8491 29.3632 95.8059 29.4627 95.774 29.5662C95.7447 29.6552 95.7447 29.6849 95.7213 29.7383H95.6452C95.5553 29.6615 95.4491 29.6067 95.3349 29.5781L95.1593 29.5128L94.8841 29.4119L94.4451 29.2575C94.2812 29.2041 94.1816 29.1804 94.1816 29.2041L94.2987 29.311C94.3979 29.4145 94.5101 29.5043 94.6324 29.5781L95.0481 30.0292C95.1398 30.1193 95.2222 30.2188 95.2939 30.326L95.3525 30.4031L95.2705 30.4981L95.1651 30.6228L95.0715 30.7534C95.0363 30.8009 94.9895 30.8602 94.9603 30.9077C94.931 30.9552 94.8841 31.0323 94.9076 31.0442L94.7846 31.1926C94.7319 31.246 94.6675 31.3232 94.6324 31.3648C94.5803 31.4358 94.5236 31.5032 94.4626 31.5666C94.4626 31.5666 94.4626 31.5666 94.5563 31.5666C94.8286 31.4216 95.108 31.2908 95.3935 31.1748C95.4652 31.1468 95.5356 31.1151 95.6042 31.0798L95.733 31.0027L95.7915 30.9611L95.8384 31.0145C95.9555 31.1867 96.0843 31.3469 96.2013 31.531L96.377 31.8218C96.3996 31.8538 96.4251 31.8836 96.4531 31.9109L96.535 31.9761L96.5819 32.0414V32.0058C96.5819 32.0592 96.6404 32.0533 96.6697 32.0058V31.9346C96.6697 31.893 96.6697 31.8456 96.7048 31.8159C96.7266 31.7122 96.7266 31.605 96.7048 31.5013V31.1214V30.9374V30.8661L96.8277 30.8127L97.1204 30.7059L97.2668 30.6465L97.501 30.5397L97.9283 30.3735L98.1508 30.2904C97.8815 30.2073 97.6824 30.1538 97.5068 30.1123Z" fill="#061538"/>
<path fill-rule="evenodd" clip-rule="evenodd" d="M54.1505 14.7989C56.4161 14.1756 57.464 11.9734 56.8259 9.5694C56.2405 7.25442 54.2559 5.8595 52.084 6.45308C49.7423 7.09416 48.8349 9.3201 49.4789 11.7479C50.0643 13.9501 51.8791 15.434 54.1505 14.7989ZM52.3943 7.83614C53.77 7.45624 54.7769 8.26945 55.2628 10.0918C55.7195 11.8132 55.2043 13.1547 53.9515 13.493C52.4997 13.8907 51.563 12.9885 51.0946 11.2255C50.6263 9.46256 51.0302 8.19822 52.3709 7.83614H52.3943Z" fill="#061538"/>
<path fill-rule="evenodd" clip-rule="evenodd" d="M59.0387 13.3558L60.8301 13.2252C60.7186 12.7012 60.6462 12.1694 60.6135 11.6344L60.5608 10.6847L61.4214 10.6312C63.0898 10.5303 64.0148 9.6162 63.9094 7.79983C63.8157 6.19122 62.7854 5.34239 61.1169 5.42549L58.6348 5.59763C58.9158 5.83507 59.2904 13.154 59.0387 13.3558ZM60.9413 6.58299C61.8956 6.52363 62.6156 6.98662 62.6976 8.01353C62.7795 9.04043 62.1122 9.52123 61.1404 9.56872H60.5198L60.2505 6.60079L60.9413 6.58299Z" fill="#061538"/>
<path fill-rule="evenodd" clip-rule="evenodd" d="M77.5156 15.9383L79.1607 16.6625C79.3027 16.145 79.4828 15.639 79.6992 15.1488L80.0798 14.3059L80.8642 14.668C82.3863 15.3625 83.6274 14.9885 84.3768 13.3265C85.0266 11.8663 84.5055 10.6198 82.9834 9.92526L80.6945 8.9043C80.8525 9.21296 77.861 15.873 77.5156 15.9383ZM82.3044 10.8334C83.1766 11.2311 83.604 11.9791 83.1883 12.9169C82.7727 13.8548 81.9707 13.9735 81.0925 13.558L80.5071 13.2909L81.6253 10.5367L82.3044 10.8334Z" fill="#061538"/>
<path fill-rule="evenodd" clip-rule="evenodd" d="M45.3934 18.1278L46.9799 17.279C46.673 16.8424 46.3971 16.3842 46.1545 15.9078L45.7447 15.0827L46.5116 14.685C47.9986 13.9133 48.4903 12.7024 47.6824 11.076C46.9624 9.64547 45.6803 9.29525 44.1699 10.0491L41.957 11.2363C42.3141 11.2778 45.5398 17.8369 45.3934 18.1278ZM44.4919 11.1472C45.3466 10.708 46.1896 10.8386 46.6462 11.7408C47.1029 12.6431 46.6989 13.3672 45.8325 13.8006L45.2471 14.0736L43.8304 11.4678L44.4919 11.1472Z" fill="#061538"/>
<path fill-rule="evenodd" clip-rule="evenodd" d="M66.1516 10.3408L69.026 10.4061L69.3187 8.89844C69.0653 8.99716 68.7916 9.02981 68.5225 8.99341L65.5954 8.95186L65.2734 10.4655C65.5594 10.3847 65.8547 10.3427 66.1516 10.3408Z" fill="#061538"/>
<path fill-rule="evenodd" clip-rule="evenodd" d="M72.8444 14.6261C74.7997 15.1781 76.0467 14.3708 76.6438 12.1864C76.6438 12.1864 77.961 8.03133 78.2713 7.92448L76.3511 7.3309C76.5209 7.57427 75.2388 11.8956 75.2388 11.8956C74.8641 13.2727 74.2494 13.7832 73.2659 13.5101C72.1595 13.1955 71.896 12.5307 72.2941 11.0705C72.2941 11.0705 73.5118 6.76105 73.7928 6.64827L71.9663 6.05469C72.1712 6.30399 70.9301 10.5422 70.9301 10.5422C70.333 12.7741 71.0413 14.1215 72.8444 14.6261Z" fill="#061538"/>
<path fill-rule="evenodd" clip-rule="evenodd" d="M7.51112 94.8673C7.72342 94.8693 7.92937 94.941 8.0982 95.0715C8.26703 95.202 8.38967 95.3844 8.44779 95.5915C8.53561 95.7755 8.54146 96.001 8.67025 96.001C8.89271 96.001 9.2908 96.0011 9.2908 95.7577C9.29932 95.4198 9.21846 95.0857 9.05663 94.7901C8.91756 94.5522 8.72211 94.3532 8.48802 94.2112C8.25392 94.0692 7.98857 93.9887 7.71602 93.9769C7.23012 93.9769 6.13538 93.9413 5.47386 94.5705C4.81233 95.1997 4.45523 96.565 4.45523 97.6809C4.43479 98.0661 4.49171 98.4515 4.62253 98.8137C4.75335 99.1759 4.95534 99.5074 5.21627 99.7881C5.71654 100.241 6.36028 100.498 7.03108 100.512C7.37619 100.515 7.71828 100.447 8.03639 100.311C8.35449 100.175 8.6419 99.9752 8.88101 99.7228C9.35189 99.2208 9.61938 98.5576 9.63034 97.8649C9.63034 97.4316 9.54838 97.4019 9.37276 97.4019C8.99224 97.4019 8.54146 97.5028 8.52975 97.6631C8.53227 97.775 8.52046 97.8867 8.49463 97.9955C8.40682 98.2389 8.25461 98.6722 8.16094 98.8681C8.02413 99.1174 7.82138 99.3229 7.57552 99.4616C7.33755 99.5406 7.08824 99.5788 6.83789 99.5744C6.59589 99.5764 6.35697 99.5194 6.14124 99.4082C5.87481 99.2031 5.67171 98.9251 5.55582 98.6069C5.44136 98.2728 5.38202 97.9218 5.38019 97.5681C5.3717 96.9082 5.57739 96.2637 5.96561 95.7339C6.14436 95.483 6.37559 95.2752 6.64276 95.1253C6.90994 94.9755 7.20646 94.8874 7.51112 94.8673Z" fill="#061538"/>
<path fill-rule="evenodd" clip-rule="evenodd" d="M16.0693 93.584H15.6771C15.0939 93.6827 14.5545 93.9603 14.1316 94.3794C13.7292 94.7489 13.4046 95.1972 13.1774 95.6971C12.9178 96.2758 12.7765 96.9017 12.7617 97.5373C12.7839 98.1416 13.002 98.7216 13.3823 99.1874C13.5633 99.4489 13.7956 99.6697 14.0645 99.8361C14.3334 100.003 14.6332 100.111 14.9453 100.155C15.1227 100.169 15.3012 100.151 15.4722 100.102C15.5893 100.102 15.683 100.102 15.8176 100.102C16.2313 100.032 16.6164 99.8432 16.926 99.5566C17.2357 99.27 17.4567 98.8984 17.5622 98.487C17.7591 97.7629 17.8362 97.0107 17.7905 96.261C17.7805 95.6022 17.5767 94.9615 17.2051 94.4209C16.9456 94.0054 16.5393 93.706 16.0693 93.584ZM16.6548 98.3327C16.5466 98.4965 16.4188 98.646 16.2742 98.7779C16.1134 98.9772 15.9118 99.1389 15.6834 99.2516C15.455 99.3643 15.2052 99.4255 14.9512 99.4308C14.756 99.3788 14.5744 99.2845 14.4187 99.1543C14.263 99.0242 14.1371 98.8613 14.0496 98.6769C13.8124 98.2757 13.6907 97.8151 13.6984 97.3473C13.694 96.7764 13.7912 96.2093 13.9852 95.6734C14.1104 95.4597 14.28 95.2762 14.4822 95.1358C14.6844 94.9953 14.9144 94.9013 15.1561 94.8602C15.3735 94.8638 15.5865 94.9235 15.7749 95.0336C15.9634 95.1436 16.1211 95.3005 16.2333 95.4894C16.4994 95.901 16.6739 96.3664 16.7446 96.8534C16.8154 97.3403 16.7807 97.837 16.6431 98.3089L16.6548 98.3327Z" fill="#061538"/>
<path fill-rule="evenodd" clip-rule="evenodd" d="M18.9266 96.9318C18.9734 98.1664 19.0495 99.1696 19.0671 99.4604C19.0279 99.6343 19.0279 99.8149 19.0671 99.9887C19.0839 100.02 19.1035 100.05 19.1256 100.078C20.033 100.078 20.9346 100.078 21.8361 100.125C22.1642 99.9108 22.4331 99.6152 22.6174 99.2662C22.8018 98.9173 22.8955 98.5266 22.8899 98.1308C22.8712 97.4637 22.6058 96.828 22.1464 96.3501C21.6956 96.0674 21.1714 95.9288 20.6418 95.9524C20.4545 95.9524 20.4838 95.988 20.2145 96.0176C20.2145 95.9405 20.2145 95.4241 20.2145 95.3172C20.2145 95.0481 20.2145 94.8404 20.2145 94.694C20.5482 94.694 20.835 94.694 21.239 94.694C21.6429 94.694 22.3805 94.6109 22.4625 94.6109C22.5326 94.6168 22.6031 94.6168 22.6733 94.6109C22.7552 94.6109 22.7377 94.5574 22.7552 94.3912C22.7527 94.2531 22.7104 94.1188 22.6334 94.0049C22.5564 93.8909 22.4481 93.8024 22.322 93.7502C22.2108 93.7502 21.6897 93.7858 21.28 93.7858C20.8702 93.7858 20.7941 93.7383 20.1911 93.7383C19.7988 93.7383 19.4534 93.7383 19.2427 93.768H19.1139C18.9441 93.768 18.8563 93.768 18.8563 94.0113V94.3437C18.8563 94.3853 18.8563 94.4209 18.8563 94.4446C18.85 94.5138 18.85 94.5833 18.8563 94.6524C18.8856 95.4181 18.8914 96.2373 18.9266 96.9318ZM20.1559 97.1395C20.3176 96.9924 20.5244 96.9065 20.7414 96.8962C20.9983 96.9117 21.2493 96.9804 21.479 97.098C21.6515 97.2137 21.7881 97.3766 21.8731 97.5678C21.958 97.7589 21.9878 97.9706 21.959 98.1783C21.9713 98.3087 21.9553 98.4403 21.9123 98.5639C21.8693 98.6874 21.8003 98.8 21.71 98.8938C21.6198 98.9876 21.5105 99.0603 21.3897 99.1069C21.2689 99.1535 21.1396 99.1729 21.0107 99.1636C20.4896 99.1636 20.3608 99.0984 20.2145 98.849C20.1526 98.6878 20.117 98.5174 20.1091 98.3445C20.0889 97.9422 20.1045 97.5389 20.1559 97.1395ZM19.4359 94.8186C19.5124 94.8242 19.5875 94.8422 19.6583 94.872C19.6711 95.0697 19.6711 95.268 19.6583 95.4656C19.6583 96.3026 19.6583 96.3501 19.6583 96.908C19.6583 97.5669 19.6583 98.0002 19.6583 98.5879C19.6583 98.9559 19.6583 99.5317 19.6583 99.5317H19.4359C19.3481 99.1399 19.2778 97.5372 19.231 96.2551C19.231 95.6615 19.1959 95.4478 19.1959 94.8067C19.2757 94.7912 19.358 94.7953 19.4359 94.8186Z" fill="#061538"/>
<path fill-rule="evenodd" clip-rule="evenodd" d="M24.7333 98.3391C24.7333 98.7428 24.6279 99.5263 24.6572 99.7756C24.6572 99.8409 24.704 99.8409 24.745 99.8943C24.7893 100.015 24.8616 100.123 24.9558 100.209C25.5939 100.209 26.232 100.173 26.8701 100.167C27.1495 100.06 27.4118 99.9125 27.6487 99.7281C28.0418 99.3673 28.2916 98.8734 28.3512 98.3391C28.4229 97.7531 28.2881 97.1603 27.9707 96.6652C27.806 96.4326 27.5935 96.239 27.3479 96.0976C27.1024 95.9561 26.8295 95.8704 26.5481 95.8461C26.2924 95.8471 26.0381 95.8851 25.7929 95.9589C25.7769 95.7296 25.7769 95.4995 25.7929 95.2703C25.7929 94.5224 25.8632 94.4096 25.8397 94.0119C25.8397 93.8635 25.8397 93.7032 25.7227 93.6201C25.6608 93.59 25.5919 93.5777 25.5236 93.5845C25.4058 93.5616 25.2864 93.5477 25.1665 93.543C24.8811 93.5455 24.5967 93.5773 24.3176 93.6379C23.82 93.721 23.6444 93.822 23.6034 93.9169C23.5645 94.1128 23.5645 94.3146 23.6034 94.5105C23.6327 94.6945 23.6912 94.8192 23.8083 94.8667C23.9981 94.9237 24.196 94.9478 24.3937 94.9379C24.544 94.9661 24.6991 94.9475 24.8387 94.8845C24.8387 95.2169 24.8387 95.6265 24.8387 95.9411C24.7684 96.9264 24.7567 97.5378 24.7333 98.3391ZM25.629 97.5853C25.6382 97.3865 25.6577 97.1884 25.6875 96.9917C25.8527 96.9015 26.0337 96.845 26.2203 96.8255C26.3898 96.7934 26.5645 96.8043 26.7289 96.8571C26.8934 96.9099 27.0424 97.003 27.1628 97.1282C27.3108 97.2461 27.4274 97.3996 27.502 97.5748C27.5767 97.75 27.6069 97.9413 27.5901 98.1314C27.5842 98.4617 27.4592 98.7784 27.2389 99.0218C26.9123 99.2125 26.5443 99.3185 26.1676 99.3304C25.9492 99.354 25.7284 99.3339 25.5178 99.2711C25.5178 98.9387 25.6056 98.0958 25.629 97.5853Z" fill="#061538"/>
<path fill-rule="evenodd" clip-rule="evenodd" d="M29.2187 99.9598C29.2187 100.173 29.2187 100.227 29.3299 100.227C29.6765 100.218 30.0224 100.19 30.3661 100.144C30.782 100.116 31.1963 100.066 31.6072 99.9954C32.1165 99.9004 32.8249 99.8173 33.2464 99.6986C33.4981 99.6214 33.6327 99.5561 33.6327 99.473C33.6327 99.1525 33.4747 98.3333 33.2991 98.3215C33.1234 98.3096 32.1282 98.4877 31.3847 98.6183C30.9985 98.7138 30.6077 98.7891 30.2139 98.8438C30.2139 98.5767 30.2139 98.4164 30.1788 98.1375C30.1436 97.8585 30.1788 97.4311 30.1788 97.2115C30.4364 97.164 30.9632 97.0809 31.3496 97.0215C32.0755 96.9147 32.3624 96.9562 32.579 96.9147C32.6668 96.9147 32.778 96.3211 32.7839 96.1311C32.7897 95.9412 32.7195 95.9768 32.6258 95.9827C32.4268 96.0124 31.9233 96.0599 31.2559 96.1489C30.6705 96.2261 30.1554 96.2973 30.0851 96.2973C30.0609 96.0545 30.0629 95.8097 30.091 95.5672C30.091 95.3535 30.091 95.1399 30.091 94.9736C30.2666 94.9736 30.6764 94.8727 31.1271 94.8074C31.5779 94.7421 32.2394 94.6116 32.6551 94.5463C32.8401 94.5374 33.0241 94.5136 33.2054 94.475C33.3166 94.4394 33.3869 94.0002 33.3693 93.7509C33.3686 93.7246 33.3626 93.6988 33.3519 93.6749C33.3411 93.651 33.3257 93.6296 33.3066 93.6119C33.2874 93.5941 33.265 93.5805 33.2406 93.5718C33.2162 93.563 33.1903 93.5593 33.1644 93.5609C32.7003 93.5741 32.2372 93.6117 31.777 93.6737L30.0207 93.8815C29.4353 93.9467 29.4938 93.9349 29.2421 93.9527C28.9904 93.9705 29.0899 94.2673 29.1133 95.1042C29.1133 95.5435 29.1543 96.2024 29.1894 96.885C29.2245 97.4311 29.2772 97.8466 29.2714 98.274C29.2304 98.8972 29.1836 99.6036 29.2187 99.9598Z" fill="#061538"/>
<path fill-rule="evenodd" clip-rule="evenodd" d="M39.5268 94.9252C39.5268 94.4859 39.6205 93.9755 39.6205 93.8271C39.6205 93.6787 39.1814 93.6074 38.9355 93.6074C38.6896 93.6074 38.1862 94.6937 37.7647 95.4475C37.5751 95.7996 37.366 96.1405 37.1383 96.4685C36.8804 96.1595 36.6475 95.83 36.4416 95.4832C35.944 94.6996 35.5225 93.9398 35.1478 93.9398C35.0132 93.9398 34.9195 94.201 34.8142 95.127C34.7849 95.495 34.7263 96.1539 34.6678 96.8009C34.6093 97.5607 34.5683 98.184 34.5097 98.7301C34.4395 99.4186 34.4161 99.7095 34.3985 99.8816C34.3809 100.054 34.4805 100.048 34.5917 100.048C34.809 100.025 35.0231 99.9773 35.2298 99.9054L35.4815 99.8104C35.5459 99.7807 35.5928 99.751 35.5928 99.662C35.5928 99.5729 35.5928 99.2227 35.5928 99.1218C35.5928 98.8725 35.663 98.2315 35.704 97.6557C35.7508 96.9612 35.7742 96.0886 35.8035 95.8749C35.9559 96.0611 36.093 96.2596 36.2133 96.4685C36.6114 97.0621 36.828 97.5251 37.0914 97.5251C37.2495 97.5251 37.6242 97.0324 37.8993 96.6347C38.1745 96.237 38.3969 95.8809 38.5843 95.6375L38.637 95.7503C38.6018 96.2133 38.5608 96.6881 38.5199 97.1511C38.4438 97.9762 38.3969 99.3652 38.3325 99.9113C38.274 100.356 38.9765 100.167 39.3453 100.167C39.3472 100.147 39.3472 100.127 39.3453 100.107C39.3453 100.012 39.3453 99.751 39.3453 99.5136C39.3453 98.7716 39.3863 98.1009 39.4097 97.4895C39.439 96.326 39.4917 95.5663 39.5268 94.9252ZM35.4288 95.7443C35.4288 96.2726 35.4288 96.9315 35.382 97.4717C35.382 97.81 35.3352 98.2374 35.3059 98.6173C35.2649 99.0862 35.2298 99.2702 35.2064 99.4542C35.1003 99.4961 34.9851 99.5084 34.8727 99.4899C34.8727 99.2049 34.8727 98.8963 34.9371 98.2315C35.0015 97.5666 35.0659 96.6585 35.1303 95.8571C35.1465 95.421 35.2054 94.9875 35.3059 94.5631C35.3895 94.6568 35.4586 94.7629 35.5108 94.8777C35.4757 95.1092 35.4288 95.3229 35.4113 95.7443H35.4288Z" fill="#061538"/>
<path fill-rule="evenodd" clip-rule="evenodd" d="M44.0536 100.185H44.6742C44.8557 100.155 44.9962 100.113 44.9962 100.066C44.9962 99.8107 44.9962 99.6801 45.0488 99.1755C45.0488 98.4632 45.1191 97.4304 45.1601 96.4688C45.1952 95.6496 45.2303 94.9789 45.3006 94.5337C45.3291 94.3051 45.3291 94.0737 45.3006 93.8451C45.2991 93.8163 45.2867 93.7891 45.266 93.7692C45.2453 93.7493 45.2179 93.7382 45.1894 93.7383C45.0664 93.7383 44.8849 93.8036 44.7444 93.7917H44.159C44.0009 93.7917 43.9717 94.4684 43.9541 94.8127C43.9541 95.4063 43.9131 96.0829 43.8897 96.4272L43.0057 96.4747C42.6135 96.4747 42.3149 96.5103 42.0105 96.5044C41.9754 95.9108 41.9461 95.0738 41.9286 94.6643C41.911 94.2547 41.9286 94.0707 41.7061 94.0707C41.5746 94.0476 41.4415 94.0356 41.308 94.0351C41.1671 94.0418 41.0276 94.0657 40.8924 94.1063C40.7636 94.1419 40.6523 94.415 40.6523 94.5159C40.6523 95.1095 40.7109 95.7387 40.7343 96.5222C40.7577 97.3057 40.7343 97.6381 40.7343 98.3386C40.7343 98.8312 40.7343 99.223 40.7343 99.6029C40.7343 99.8166 40.7343 99.8641 40.7694 99.9947C40.8046 100.125 40.828 100.167 40.8924 100.191H40.9451C41.068 100.191 41.7178 100.03 41.7705 100.03C41.9403 100.03 41.9461 99.8107 41.9812 99.5317C42.0027 99.1105 42.0027 98.6885 41.9812 98.2673C41.9812 98.208 41.9812 97.8578 41.9812 97.6381C42.1979 97.6381 42.5959 97.6381 42.9882 97.6381C43.2165 97.6381 43.3453 97.5966 43.5736 97.5847H43.8663C43.8663 98.2139 43.7726 99.1102 43.7843 99.6444C43.7913 99.7482 43.8188 99.8494 43.865 99.9422C43.9113 100.035 43.9754 100.117 44.0536 100.185Z" fill="#061538"/>
<path fill-rule="evenodd" clip-rule="evenodd" d="M51.3348 94.0823C51.3348 94.0408 51.3348 93.9874 51.3348 93.9755C51.1943 93.9755 51.1533 93.9221 50.9777 93.9043C50.7498 93.8726 50.5247 93.8229 50.3044 93.7559C50.1815 93.7559 50.2049 93.9577 50.1932 94.1239C50.1932 94.4444 50.1932 94.7175 50.1932 95.1092C50.1932 95.6672 50.1932 95.9818 50.1464 96.5398C50.0995 97.0977 50.1464 97.6795 50.082 98.1543C50.0176 98.6292 50 99.5671 50 99.7926C50 100.018 50.041 100.089 50.199 100.125C50.3571 100.161 50.4391 100.125 50.5561 100.125C50.6732 100.125 50.8313 100.22 50.9191 100.196C50.9503 100.189 50.9784 100.172 50.9994 100.147C51.0205 100.123 51.0333 100.092 51.0362 100.06C51.0745 99.8042 51.096 99.5465 51.1006 99.2881C51.1416 98.4986 51.206 97.0859 51.2586 96.3736C51.3113 95.6613 51.2587 95.5841 51.2879 95.0736C51.3287 94.7449 51.3443 94.4135 51.3348 94.0823Z" fill="#061538"/>
<path fill-rule="evenodd" clip-rule="evenodd" d="M46.4993 98.4337C46.4993 98.8433 46.4349 99.6209 46.4993 99.8761C46.4993 99.9414 46.5462 99.9414 46.5871 99.9949C46.6339 100.079 46.7002 100.15 46.7803 100.203H48.923C49.0611 100.154 49.1899 100.082 49.3035 99.9889C49.6723 99.6228 49.8828 99.1233 49.8889 98.5999C49.9544 98.051 49.8121 97.4974 49.4908 97.0507C49.3689 96.8303 49.2009 96.6396 48.9987 96.4919C48.7964 96.3443 48.5648 96.2432 48.32 96.1959C48.2166 96.1699 48.1103 96.158 48.0039 96.1603C47.8245 96.1478 47.6446 96.1478 47.4653 96.1603C47.4653 95.9941 47.4653 95.5667 47.4653 95.2699C47.4653 94.9731 47.4653 94.8247 47.4653 94.5458C47.4653 94.2668 47.4653 94.2312 47.4653 94.0115C47.4653 93.7919 47.4653 93.7029 47.3306 93.6198C47.2681 93.5911 47.2001 93.5769 47.1316 93.5782H47.0028H46.7686C46.6867 93.6198 46.5813 93.6672 46.5813 93.786V93.9106C46.5436 94.0523 46.52 94.1975 46.511 94.3439C46.5004 94.4186 46.517 94.4946 46.5579 94.5576C46.5579 94.985 46.5227 95.5133 46.5169 95.9704C46.5169 96.9142 46.4993 97.6383 46.4993 98.4337ZM47.3716 98.0004C47.3716 97.3297 47.3716 97.4068 47.4184 97.1278C47.4891 97.0923 47.5683 97.0779 47.6467 97.0863C47.8193 97.0464 47.9991 97.0528 48.1685 97.1049C48.3379 97.1569 48.491 97.2528 48.6127 97.3831C48.7893 97.562 48.9199 97.7822 48.9932 98.0242C49.0595 98.1602 49.0801 98.3144 49.0518 98.4634C49.0459 98.7 48.9705 98.9295 48.8351 99.1223C48.6361 99.3538 48.3258 99.3419 47.9804 99.3716C47.7842 99.3987 47.5845 99.3825 47.395 99.3241C47.3833 99.0095 47.3599 98.5346 47.3716 98.0004ZM46.833 96.4096C46.833 95.537 46.874 94.5161 46.8974 94.1837H47.0086C47.0596 94.1948 47.1088 94.2128 47.155 94.2371C47.155 94.3024 47.155 94.5458 47.155 94.7416C47.155 95.1453 47.155 95.3708 47.155 95.7804C47.155 96.19 47.155 96.374 47.155 96.7242C47.155 97.0744 47.155 97.3178 47.155 97.6561C47.155 98.315 47.155 98.8967 47.155 99.3419C47.0588 99.3357 46.9678 99.2959 46.8974 99.2291C46.8974 99.0629 46.8974 98.9145 46.8974 98.7127C46.7745 97.9411 46.833 97.3 46.833 96.4096Z" fill="#061538"/>
<path fill-rule="evenodd" clip-rule="evenodd" d="M57.4711 94.9252C57.4711 94.4859 57.5648 93.9755 57.5648 93.8271C57.5648 93.6787 57.1316 93.6074 56.8799 93.6074C56.6281 93.6074 56.1305 94.6937 55.709 95.4475C55.5208 95.7991 55.3136 96.14 55.0885 96.4685C54.8287 96.1596 54.5938 95.8301 54.386 95.4832C53.8942 94.6996 53.4669 93.9398 53.0922 93.9398C52.9575 93.9398 52.8639 94.201 52.7585 95.127C52.7585 95.495 52.6707 96.1539 52.618 96.8009C52.5536 97.5607 52.5126 98.184 52.4599 98.7301C52.3838 99.4186 52.3604 99.7095 52.3487 99.8816C52.337 100.054 52.4248 100.048 52.536 100.048C52.7535 100.026 52.9676 99.9779 53.1742 99.9054L53.4317 99.8104C53.4903 99.7807 53.543 99.751 53.543 99.662C53.543 99.5729 53.543 99.2227 53.543 99.1218C53.543 98.8725 53.6132 98.2315 53.6542 97.6557C53.701 96.9612 53.7244 96.0886 53.7596 95.8749C53.9082 96.0626 54.0432 96.261 54.1635 96.4685C54.5616 97.0621 54.7489 97.5251 55.0416 97.5251C55.1997 97.5251 55.5744 97.0324 55.8554 96.6347C56.1364 96.237 56.3471 95.8809 56.5403 95.6375C56.5523 95.6765 56.568 95.7143 56.5872 95.7503C56.552 96.2133 56.5169 96.6881 56.4759 97.1511C56.394 97.9762 56.3471 98.8132 56.2827 99.3652C56.23 99.8104 56.1949 99.9588 56.1715 100.125C56.1715 100.178 56.2769 100.226 56.3296 100.238C56.3823 100.25 56.5696 100.178 56.7277 100.178C56.8857 100.178 57.0613 100.178 57.2253 100.22C57.2721 100.22 57.3014 100.22 57.3189 100.107C57.3365 99.9944 57.3189 99.751 57.3189 99.5136C57.3189 98.7716 57.3599 98.1009 57.3833 97.4895C57.3716 96.326 57.4419 95.5663 57.4711 94.9252Z" fill="#061538"/>
<path fill-rule="evenodd" clip-rule="evenodd" d="M63.0723 94.8906C63.0723 94.7007 63.1074 94.6354 63.1133 94.4455C63.1191 94.2555 62.8674 94.1427 62.7269 94.2021C62.5864 94.2614 62.4049 94.4514 62.0888 94.8728C61.7726 95.2943 61.1521 96.1312 60.7891 96.6536C60.2798 97.3659 59.8817 98.007 59.7588 98.1019C59.7998 97.36 59.8291 96.5408 59.8876 95.7276C59.8876 95.4427 59.8876 94.8669 59.9344 94.5404C59.9344 94.3386 59.9344 94.3089 59.9344 94.1843C59.9344 94.0596 59.8466 94.0299 59.7529 94.0181C59.5316 94.0056 59.3096 94.0196 59.0914 94.0596C59.0096 94.0701 58.935 94.1125 58.8835 94.1779C58.8321 94.2434 58.808 94.3266 58.8163 94.4098C58.8163 94.5286 58.8163 95.0865 58.8163 95.597C58.8163 96.1075 58.7636 96.5942 58.746 97.1759C58.7285 97.7577 58.6816 98.47 58.6641 99.295C58.6641 99.5087 58.6641 99.7224 58.6641 99.853C58.6641 100.073 58.6641 100.043 58.746 100.138C58.828 100.233 59.1675 100.269 59.3314 100.28C59.4954 100.292 60.9179 97.9654 61.316 97.3778C61.5538 97.005 61.82 96.6517 62.1122 96.3212C62.1122 96.7308 62.1122 96.9148 62.0829 97.4193C62.0419 98.3097 62.0361 99.4256 62.0244 99.6274C62.0244 99.942 62.0244 100.073 62.1473 100.15C62.3333 100.224 62.5348 100.248 62.7327 100.221C62.9084 100.221 62.9903 100.09 63.002 99.8886C63.002 99.58 62.9376 98.5293 62.9552 97.6568C62.9084 96.5408 63.043 95.8463 63.0723 94.8906ZM59.5598 95.5733C59.5598 95.8344 59.5129 96.1669 59.4778 96.5408C59.4449 97.2878 59.3608 98.0316 59.2261 98.7668C59.2085 98.496 59.2085 98.2243 59.2261 97.9535C59.2261 97.3956 59.2261 96.6714 59.2788 96.06C59.3432 95.2231 59.3666 94.6117 59.39 94.3861C59.4624 94.3629 59.5401 94.3629 59.6124 94.3861C59.5832 94.5938 59.5715 95.0212 59.5305 95.5673L59.5598 95.5733Z" fill="#061538"/>
<path fill-rule="evenodd" clip-rule="evenodd" d="M71.2404 94.9742C71.375 94.8436 71.5038 94.903 71.5155 94.7546C71.5272 94.6062 71.0648 94.0304 70.8891 94.0304C70.4419 94.3936 70.0476 94.8193 69.7183 95.2948C69.3739 95.7558 68.9813 96.1777 68.5475 96.5532H68.4948C68.4948 96.2208 68.5299 95.6806 68.5592 95.2948C68.6236 94.529 68.688 94.066 68.688 93.882C68.688 93.698 68.6236 93.7574 68.4655 93.7336C68.2065 93.7086 67.9458 93.7086 67.6869 93.7336C67.2478 93.7336 67.2771 94.3985 67.2537 94.9208C67.2303 95.4432 67.1717 96.2148 67.1424 97.0399C67.1132 97.865 67.1424 98.4586 67.0781 98.9334C67.0781 99.2302 67.0137 99.5804 66.9961 99.7704C66.9961 100.067 67.3005 100.198 67.4586 100.198C67.6166 100.198 67.845 100.138 67.9855 100.138C68.126 100.138 68.2079 100.216 68.2899 100.198C68.3718 100.18 68.4889 99.99 68.4948 99.8594C68.5006 99.7288 68.4187 99.1649 68.4304 98.4289C68.4304 98.2152 68.4304 97.9481 68.4655 97.6869C68.7312 97.9662 68.9703 98.2703 69.1797 98.5951C69.5246 99.0823 69.898 99.5481 70.2979 99.99C70.4427 100.124 70.6288 100.204 70.8247 100.216C70.977 100.216 71.2697 100.103 71.2521 99.8594C71.2381 99.7711 71.1995 99.6888 71.1409 99.622C71.0538 99.4909 70.9579 99.3659 70.854 99.248C70.6491 98.9809 70.3447 98.6545 70.1222 98.3755C69.6773 97.8353 69.3905 97.5088 69.1797 97.1883C69.4373 96.8915 69.8822 96.3988 70.3505 95.924C70.6374 95.639 70.9887 95.2354 71.2404 94.9742ZM68.2138 95.4966C68.2138 95.8587 68.2138 96.0902 68.1669 96.6125C68.1669 97.034 68.1025 97.77 68.085 98.3399C68.085 98.7019 68.085 99.3133 68.085 99.527C67.9971 99.5534 67.9036 99.5534 67.8157 99.527C67.8057 99.3531 67.8057 99.1786 67.8157 99.0047C67.8157 98.6248 67.8742 97.865 67.9093 97.1289C67.9093 96.4879 67.9093 96.1495 67.9562 95.4966C67.982 95.0002 68.0427 94.5062 68.1377 94.0186C68.1377 94.0186 68.3133 94.0957 68.3133 94.161C68.3133 94.2263 68.2606 94.5468 68.2138 95.5025V95.4966Z" fill="#061538"/>
<path fill-rule="evenodd" clip-rule="evenodd" d="M76.3966 93.9579C76.3966 93.7739 76.2034 93.7383 75.9985 93.7383C75.6829 93.7489 75.3681 93.7786 75.056 93.8273C74.8511 93.8689 74.6637 94.3497 74.3886 95.0145C74.2247 95.3944 74.0432 95.8396 73.8032 96.2907C73.7329 96.4332 73.1241 97.6678 72.8138 98.3148C72.6792 98.6057 72.5445 98.9381 72.3982 99.2467C72.2699 99.4749 72.1696 99.7181 72.0996 99.9709C72.0996 100.137 72.2108 100.173 72.4333 100.191H73.0187C73.2236 100.191 73.3583 99.7928 73.5456 99.3477C73.6497 99.098 73.771 98.856 73.9086 98.6235C74.0725 98.576 74.6345 98.3801 75.0794 98.2851C75.3633 98.2311 75.6512 98.2013 75.94 98.1961C75.9713 98.3369 75.9928 98.4797 76.0044 98.6235C76.0688 99.0865 76.1097 99.6919 76.1156 99.8107C76.1507 100.054 76.2151 100.185 76.4493 100.185C76.9235 100.185 77.1694 100.185 77.1694 99.8463C77.1472 99.5585 77.1041 99.2728 77.0406 98.9915C77.0406 98.7719 76.9645 98.4751 76.9469 98.1961C76.9078 97.8133 76.8393 97.4343 76.742 97.0624C76.619 96.3916 76.5664 95.9642 76.4668 95.3706C76.4024 94.9907 76.3732 94.5752 76.3439 94.2606C76.3837 94.165 76.4018 94.0616 76.3966 93.9579ZM75.056 97.2464L74.5935 97.3592C74.6872 97.0802 74.9389 96.6528 75.0735 96.3382C75.179 96.0382 75.3061 95.7465 75.4541 95.4656C75.5094 95.6986 75.5524 95.9344 75.5829 96.172C75.6497 96.4888 75.6927 96.8102 75.7117 97.1336C75.4908 97.1562 75.2718 97.1939 75.056 97.2464Z" fill="#061538"/>
<path fill-rule="evenodd" clip-rule="evenodd" d="M80.2735 97.9716C81.1107 97.5561 82.2815 96.8972 82.2815 95.4251C82.2424 94.953 82.0481 94.5079 81.7296 94.1613C81.4111 93.8147 80.9869 93.5866 80.5253 93.5137C80.1432 93.511 79.7646 93.5878 79.4129 93.7393C79.1824 93.7993 78.9572 93.8787 78.7397 93.9767C78.5114 94.0895 78.3065 94.232 78.2948 94.3507C78.2831 94.4694 78.3416 94.505 78.3416 94.6119C78.3416 94.8968 78.248 95.9 78.2011 97.1346C78.1602 98.025 78.1543 99.1053 78.1543 100.067C78.1543 100.292 78.2421 100.292 78.406 100.31C78.6398 100.331 78.8748 100.331 79.1085 100.31C79.1963 100.31 79.3251 100.346 79.3954 100.346C79.4656 100.346 79.5769 100.198 79.5886 100.067C79.5146 99.6378 79.4813 99.2025 79.4891 98.767V98.4168C79.6764 98.2862 79.8871 98.1675 80.2735 97.9716ZM78.9388 99.046C78.9526 99.2871 78.9526 99.5289 78.9388 99.7701C78.8681 99.8016 78.7931 99.8216 78.7163 99.8295C78.6485 99.8417 78.5792 99.8417 78.5114 99.8295C78.5114 99.1884 78.5114 98.5948 78.5114 97.8054C78.5524 96.5232 78.6285 94.9146 78.7163 94.5228H78.9388C78.9388 94.5228 78.9388 95.1164 78.9388 95.4726C78.9388 96.3808 78.9388 96.6241 78.9388 97.3661V98.2743C78.9212 98.577 78.9388 98.767 78.9388 99.046ZM79.4481 97.378C79.3847 96.8284 79.3573 96.2751 79.3661 95.7219C79.3557 95.4503 79.3675 95.1783 79.4012 94.9087C79.4856 94.753 79.6133 94.6261 79.7685 94.5437C79.9236 94.4613 80.0993 94.4272 80.2735 94.4457C80.8589 94.4457 81.5029 94.7306 81.5029 95.3361C81.4841 95.612 81.4076 95.8807 81.2784 96.1243C81.1492 96.3679 80.9703 96.5808 80.7536 96.7488C80.3653 97.0467 79.921 97.2608 79.4481 97.378Z" fill="#061538"/>
<path fill-rule="evenodd" clip-rule="evenodd" d="M86.6424 95.3712C86.7701 95.3942 86.9009 95.3942 87.0287 95.3712C87.5315 95.3827 88.034 95.3389 88.5274 95.2406C88.5585 95.0943 88.5742 94.9451 88.5742 94.7954C88.5742 94.5758 88.5742 94.3384 88.5742 94.2731C88.5742 94.006 88.6679 93.8457 88.2874 93.8457C88.1352 93.8457 87.8893 93.8457 87.4854 93.8457C86.8999 93.8457 86.0394 93.8457 85.3778 93.8457C84.9563 93.8457 84.6695 93.8457 84.3007 93.8457C83.9319 93.8457 83.5572 93.8457 83.3289 93.8457C82.9074 93.8457 82.9484 93.9585 82.9484 94.5046C82.9437 94.7036 82.9594 94.9025 82.9952 95.0982C83.0245 95.2525 83.1006 95.3772 83.1767 95.395C83.4167 95.4424 83.7621 95.395 84.1426 95.395C84.5342 95.3859 84.9258 95.4097 85.3134 95.4662C85.3134 95.7452 85.3134 96.1844 85.2666 96.6177C85.2198 97.0511 85.2198 97.3894 85.2022 97.8049C85.2022 98.3569 85.1554 99.2414 85.1554 99.7875C85.1625 99.8731 85.2005 99.9531 85.262 100.012C85.3235 100.071 85.4044 100.105 85.4891 100.108C85.7303 100.11 85.9713 100.09 86.2091 100.049C86.455 100.001 86.5897 99.9299 86.5897 99.7163C86.5588 99.5554 86.5373 99.3929 86.5253 99.2295C86.5253 98.6359 86.5253 97.6268 86.5253 96.8552C86.539 96.3588 86.5781 95.8635 86.6424 95.3712Z" fill="#061538"/>
<path fill-rule="evenodd" clip-rule="evenodd" d="M93.6153 94.8906C93.6153 94.7007 93.6445 94.6354 93.6504 94.4455C93.6562 94.2555 93.4045 94.1427 93.264 94.2021C93.1235 94.2614 92.942 94.4514 92.6259 94.8728C92.3098 95.2943 91.6951 96.1312 91.3263 96.6536C90.8169 97.3659 90.4189 98.007 90.2959 98.1019C90.3369 97.36 90.372 96.5408 90.4247 95.7276C90.4247 95.4427 90.4247 94.8669 90.4715 94.5404C90.4715 94.3386 90.4715 94.3089 90.4715 94.1843C90.4715 94.0596 90.3837 94.0299 90.2901 94.0181C90.0687 94.0056 89.8467 94.0196 89.6285 94.0596C89.5471 94.07 89.473 94.1127 89.4225 94.1783C89.3721 94.244 89.3493 94.3272 89.3592 94.4098C89.3592 94.5286 89.3592 95.0865 89.3592 95.597C89.3592 96.1075 89.3066 96.5942 89.289 97.1759C89.2714 97.7577 89.2246 98.47 89.2129 99.295C89.2129 99.5087 89.2129 99.7224 89.2129 99.853C89.2129 100.073 89.2129 100.043 89.2948 100.138C89.3768 100.233 89.5407 100.269 89.6871 100.28C89.7851 100.271 89.878 100.231 89.9541 100.168C90.0301 100.105 90.0859 100.02 90.1144 99.9242C90.1246 99.9009 90.1298 99.8756 90.1298 99.85C90.1298 99.8245 90.1246 99.7992 90.1144 99.7758C90.2257 99.6274 90.3837 99.4494 90.5184 99.2535C90.9106 98.7015 91.4492 97.9654 91.8473 97.3778C92.085 97.005 92.3512 96.6517 92.6435 96.3212C92.6435 96.7308 92.6435 96.9148 92.6435 97.4193C92.6025 98.3097 92.5966 99.4256 92.5908 99.6274C92.5908 99.942 92.5908 100.073 92.7079 100.15C92.8938 100.224 93.0953 100.248 93.2933 100.221C93.4689 100.221 93.5509 100.09 93.5684 99.8886C93.5684 99.58 93.504 98.5293 93.5157 97.6568C93.4455 96.5408 93.5801 95.8463 93.6153 94.8906Z" fill="#061538"/>
<path fill-rule="evenodd" clip-rule="evenodd" d="M98.2625 100.238C98.6196 100.238 99.0587 100.149 99.0587 100.066C99.0587 99.8107 99.0587 99.6801 99.1055 99.1755C99.1055 98.4632 99.1757 97.4304 99.2167 96.4688C99.2333 95.8217 99.2821 95.1758 99.3631 94.5337C99.389 94.3049 99.389 94.0739 99.3631 93.8451C99.3616 93.8163 99.3492 93.7891 99.3285 93.7692C99.3078 93.7493 99.2804 93.7382 99.2519 93.7383C99.1348 93.7383 98.9533 93.8036 98.8069 93.7917H98.2215C98.0635 93.7917 98.0283 94.4684 98.0108 94.8127C98.0108 95.4063 97.9756 96.0829 97.9522 96.4272L97.0624 96.4747C96.676 96.4747 96.3716 96.5103 96.0672 96.5044C96.0672 95.9108 96.0028 95.0738 95.9911 94.6643C95.9794 94.2547 95.9911 94.0707 95.7686 94.0707C95.6371 94.0476 95.504 94.0356 95.3705 94.0351C95.2297 94.0418 95.0901 94.0657 94.9549 94.1063C94.8261 94.1419 94.7148 94.415 94.7148 94.5159C94.7148 95.1095 94.7675 95.7387 94.7968 96.5222C94.8261 97.3057 94.7968 97.6381 94.8261 98.3386C94.8261 98.8312 94.8261 99.223 94.8261 99.6029C94.8261 99.8166 94.8261 99.8641 94.8261 99.9947C94.8261 100.125 94.8905 100.191 94.9724 100.196C95.0544 100.202 96.0086 100.274 96.0379 99.9947C96.0672 99.7157 96.0379 98.6294 96.0379 98.2673C96.0379 98.208 96.0379 97.8578 96.0379 97.6381C96.2545 97.6381 96.6526 97.6381 97.039 97.6381C97.2731 97.6381 97.4019 97.5966 97.6244 97.5847H97.9112C97.9112 98.2139 97.8234 99.1102 97.8293 99.6444C97.9522 100.03 98.0635 100.244 98.2625 100.238Z" fill="#061538"/>
<path fill-rule="evenodd" clip-rule="evenodd" d="M104.604 94.9742C104.738 94.8436 104.867 94.903 104.873 94.7546C104.879 94.6062 104.428 94.0304 104.252 94.0304C103.805 94.3936 103.411 94.8193 103.082 95.2948C102.737 95.7558 102.345 96.1777 101.911 96.5532H101.864C101.864 96.2208 101.899 95.6806 101.928 95.2948C101.993 94.529 102.057 94.066 102.057 93.882C102.057 93.698 101.993 93.7574 101.835 93.7336C101.576 93.7086 101.315 93.7086 101.056 93.7336C100.617 93.7336 100.646 94.3985 100.623 94.9208C100.599 95.4432 100.541 96.2148 100.512 97.0399C100.482 97.865 100.512 98.4586 100.447 98.9334C100.447 99.2302 100.383 99.5804 100.365 99.7704C100.365 100.067 100.67 100.198 100.828 100.198C100.986 100.198 101.214 100.138 101.355 100.138C101.495 100.138 101.577 100.216 101.659 100.198C101.741 100.18 101.858 99.99 101.864 99.8594C101.87 99.7288 101.788 99.1649 101.8 98.4289C101.8 98.2152 101.8 97.9481 101.835 97.6869C102.1 97.9662 102.339 98.2703 102.549 98.5951C102.894 99.0823 103.267 99.5481 103.667 99.99C103.812 100.124 103.998 100.203 104.194 100.216C104.346 100.216 104.639 100.103 104.621 99.8594C104.607 99.7711 104.569 99.6888 104.51 99.622C104.423 99.4909 104.327 99.3659 104.223 99.248C104.018 98.9809 103.714 98.6545 103.491 98.3755C103.046 97.8353 102.76 97.5088 102.549 97.1883C102.806 96.8915 103.251 96.3988 103.72 95.924C104.001 95.639 104.352 95.2354 104.604 94.9742Z" fill="#061538"/>
<path fill-rule="evenodd" clip-rule="evenodd" d="M109.76 93.9579C109.76 93.7739 109.567 93.7383 109.362 93.7383C109.046 93.7492 108.731 93.7789 108.419 93.8273C108.214 93.8689 108.027 94.3497 107.752 95.0145C107.588 95.3944 107.406 95.8396 107.166 96.2907C107.096 96.4332 106.487 97.6678 106.177 98.3148C106.042 98.6057 105.908 98.9381 105.761 99.2467C105.633 99.4749 105.533 99.7181 105.463 99.9709C105.463 100.137 105.574 100.173 105.797 100.191H106.382C106.587 100.191 106.722 99.7928 106.909 99.3477C107.013 99.098 107.134 98.856 107.272 98.6235C107.43 98.576 107.998 98.3801 108.443 98.2851C108.727 98.2311 109.014 98.2013 109.303 98.1961C109.335 98.3369 109.356 98.4797 109.368 98.6235C109.432 99.0865 109.473 99.6919 109.479 99.8107C109.514 100.054 109.578 100.185 109.818 100.185C110.287 100.185 110.533 100.185 110.533 99.8463C110.51 99.5585 110.467 99.2728 110.404 98.9915C110.404 98.7719 110.328 98.4751 110.31 98.1961C110.271 97.8133 110.203 97.4343 110.105 97.0624C109.982 96.3916 109.93 95.9642 109.83 95.3706C109.766 94.9907 109.736 94.5752 109.701 94.2606C109.745 94.1662 109.765 94.0622 109.76 93.9579ZM108.419 97.2464L107.957 97.3592C108.05 97.0802 108.302 96.6528 108.437 96.3382C108.542 96.0382 108.669 95.7465 108.817 95.4656C108.873 95.6986 108.916 95.9344 108.946 96.172C109.013 96.4888 109.056 96.8102 109.075 97.1336C108.854 97.1562 108.635 97.1939 108.419 97.2464Z" fill="#061538"/>
<path fill-rule="evenodd" clip-rule="evenodd" d="M116.499 94.9259C116.499 94.546 116.576 94.1186 116.587 93.9109L115.645 93.8574C115.387 94.2254 115.059 94.914 114.731 95.4482C114.542 95.8003 114.333 96.1412 114.105 96.4692C113.847 96.1602 113.614 95.8307 113.408 95.4838C112.911 94.7003 112.489 93.9405 112.115 93.9405C111.98 93.9405 111.886 94.2017 111.781 95.1277C111.752 95.4957 111.693 96.1546 111.635 96.8016C111.576 97.5614 111.535 98.1847 111.477 98.7308C111.406 99.4193 111.383 99.7102 111.365 99.8823C111.348 100.054 111.447 100.049 111.558 100.049C111.776 100.026 111.99 99.978 112.197 99.9061L112.448 99.8111C112.513 99.7814 112.56 99.7517 112.56 99.6627C112.56 99.5736 112.56 99.2234 112.56 99.1225C112.56 98.8732 112.63 98.2321 112.671 97.6564C112.718 96.9619 112.741 96.0893 112.77 95.8756C112.923 96.0618 113.06 96.2603 113.18 96.4692C113.578 97.0628 113.766 97.5258 114.058 97.5258C114.216 97.5258 114.591 97.0331 114.866 96.6354C115.141 96.2377 115.364 95.8815 115.551 95.6382L115.604 95.751C115.569 96.214 115.528 96.6888 115.487 97.1518C115.411 97.9769 115.364 99.259 115.299 99.8111C115.241 100.256 115.943 100.143 116.318 100.143C116.319 100.132 116.319 100.12 116.318 100.108C116.318 100.013 116.318 99.7517 116.318 99.5143C116.318 98.7723 116.359 98.1016 116.382 97.4902C116.429 96.3267 116.499 95.5669 116.499 94.9259ZM112.402 95.745C112.402 96.2733 112.401 96.9322 112.355 97.4724C112.355 97.8107 112.308 98.2381 112.279 98.618L111.845 99.4905C111.845 99.2056 111.845 98.897 111.91 98.2321C111.974 97.5673 112.039 96.6591 112.103 95.8578C112.122 95.4219 112.181 94.9888 112.279 94.5638C112.362 94.6575 112.431 94.7636 112.483 94.8784C112.466 95.1099 112.402 95.3236 112.402 95.745Z" fill="#061538"/>
<path fill-rule="evenodd" clip-rule="evenodd" d="M122.119 94.8898C122.119 94.6998 122.154 94.6345 122.16 94.4446C122.16 94.3733 122.055 94.2724 121.938 94.225H121.75C121.598 94.2962 121.44 94.4802 121.13 94.8838C120.82 95.2875 120.199 96.1422 119.836 96.6646C119.321 97.3769 118.923 98.018 118.806 98.1129C118.847 97.3709 118.876 96.5518 118.934 95.7386C118.934 95.4537 118.934 94.8779 118.981 94.5514C118.973 94.4328 118.973 94.3139 118.981 94.1953C118.982 94.1751 118.978 94.155 118.97 94.1365C118.962 94.118 118.95 94.1016 118.934 94.0884L118.244 94.0469H118.132C118.052 94.0587 117.978 94.1018 117.928 94.167C117.878 94.2323 117.855 94.3148 117.863 94.3971C117.863 94.5158 117.863 95.0738 117.863 95.5843C117.863 96.0947 117.805 96.5815 117.793 97.1632C117.781 97.7449 117.729 98.4572 117.711 99.2823C117.711 99.496 117.711 99.7097 117.711 99.8403C117.711 100.06 117.711 100.03 117.787 100.125C117.808 100.157 117.836 100.183 117.869 100.202H118.349C118.595 99.8967 118.817 99.5712 119.011 99.2289C119.397 98.6768 119.941 97.9408 120.339 97.3531C120.575 96.9789 120.841 96.6255 121.136 96.2966C121.136 96.7061 121.136 96.8901 121.106 97.3947C121.065 98.2851 121.054 99.401 121.048 99.6028C121.048 99.9174 121.048 100.048 121.165 100.125C121.351 100.198 121.552 100.222 121.75 100.196C121.926 100.196 122.002 100.066 122.02 99.864C122.02 99.5553 121.955 98.5047 121.973 97.6321C121.955 96.5399 122.09 95.8454 122.119 94.8898ZM118.571 95.5665C118.571 95.8276 118.525 96.16 118.495 96.534C118.464 97.2814 118.377 98.0254 118.238 98.7599C118.223 98.4891 118.223 98.2176 118.238 97.9467C118.238 97.3888 118.238 96.6646 118.296 96.0532C118.361 95.2162 118.384 94.6048 118.408 94.3793C118.48 94.3561 118.558 94.3561 118.63 94.3793C118.63 94.593 118.612 95.0204 118.571 95.5665Z" fill="#061538"/>
<path fill-rule="evenodd" clip-rule="evenodd" d="M125.42 102.945C124.777 102.795 124.126 102.683 123.471 102.606C122.833 102.517 122.206 102.464 121.568 102.399C120.312 102.288 119.053 102.191 117.792 102.108C116.534 102.025 115.275 101.965 114.016 101.906C112.758 101.846 111.499 101.811 110.246 101.769C108.994 101.728 107.729 101.698 106.47 101.68L102.694 101.633C101.436 101.633 100.183 101.633 98.9243 101.633H95.1483C93.8897 101.633 92.631 101.686 91.3724 101.716C90.1137 101.746 88.8609 101.811 87.6023 101.87C86.3436 101.93 85.0849 102.025 83.8321 102.108C82.5793 102.191 81.3148 102.292 80.062 102.399C78.8092 102.505 77.5506 102.618 76.2919 102.737C75.0333 102.856 73.7863 102.992 72.5277 103.123C71.269 103.253 70.0162 103.42 68.7517 103.609C67.4508 103.771 66.1672 104.053 64.9172 104.452C64.7446 104.512 64.5989 104.632 64.5072 104.792C64.4154 104.952 64.3837 105.14 64.418 105.321C64.4522 105.503 64.5501 105.666 64.6935 105.78C64.8369 105.894 65.0162 105.952 65.1982 105.942H65.286C65.6508 105.919 66.0165 105.968 66.3632 106.085C66.5337 106.139 66.6969 106.215 66.8491 106.31C66.9942 106.388 67.1265 106.488 67.2413 106.607C67.3409 106.708 67.1535 106.732 67.1535 106.732C67.0976 106.759 67.0386 106.779 66.9779 106.791C66.9049 106.815 66.8306 106.835 66.7554 106.85C66.6793 106.85 66.5915 106.886 66.5037 106.904C66.4159 106.922 66.1407 106.963 65.9593 106.993L65.3738 107.058L64.7884 107.106L64.162 107.147C63.9513 107.147 63.7405 107.177 63.5239 107.183C63.3073 107.189 63.1024 107.213 62.8858 107.218L62.3004 107.248H61.715C61.4984 107.248 61.2876 107.248 61.0769 107.248C60.8661 107.248 60.6495 107.248 60.4388 107.248C60.228 107.248 60.0231 107.248 59.8182 107.218C59.6133 107.189 59.4143 107.218 59.2328 107.177L58.6474 107.112C58.5478 107.112 58.4776 107.076 58.3898 107.064H58.261L58.1556 107.034C58.0903 107.023 58.0258 107.007 57.9624 106.987H57.8922C58.0031 106.851 58.1266 106.725 58.261 106.613C58.4082 106.491 58.5627 106.378 58.7235 106.275C58.8889 106.172 59.0611 106.081 59.2386 106.002C59.4078 105.926 59.5819 105.863 59.7597 105.812C59.8996 105.776 60.0429 105.757 60.187 105.752H60.2983C60.5001 105.766 60.6989 105.697 60.851 105.562C61.003 105.427 61.0959 105.236 61.1091 105.031C61.1223 104.826 61.0547 104.625 60.9213 104.471C60.788 104.316 60.5996 104.222 60.3978 104.209C59.1508 104.072 57.9156 103.883 56.6804 103.722C55.4451 103.562 54.1982 103.42 52.9571 103.277L51.0896 103.087C50.469 103.022 49.8485 102.945 49.228 102.885L45.493 102.541L41.7521 102.256L38.0113 102.054L34.2646 101.936C33.0235 101.936 31.7707 101.936 30.5238 101.936C29.2768 101.936 28.0357 101.936 26.7888 101.977L23.0538 102.054C20.5658 102.137 18.0777 102.209 15.5956 102.321L8.14902 102.642L4.43745 102.82C3.19636 102.873 1.94942 102.933 0.708327 103.004C0.511143 103.004 0.322035 103.083 0.182605 103.225C0.0431748 103.366 -0.0351562 103.558 -0.0351562 103.758C-0.0351562 103.958 0.0431748 104.15 0.182605 104.291C0.322035 104.432 0.511143 104.512 0.708327 104.512C1.95332 104.571 3.19636 104.621 4.43745 104.66L8.17829 104.737H11.9133H15.6424C16.8893 104.737 18.1304 104.737 19.3715 104.737L23.1007 104.696L26.8181 104.648C28.0592 104.648 29.3003 104.648 30.5355 104.613L37.9645 104.53H41.676H45.3935C46.6287 104.53 47.8639 104.595 49.0992 104.642C50.3344 104.69 51.5696 104.785 52.8049 104.874C54.0401 104.963 55.2636 105.111 56.493 105.248L56.774 105.289L56.4755 105.497C56.2043 105.71 55.9674 105.964 55.773 106.251C55.7163 106.343 55.6655 106.438 55.6207 106.536C55.5644 106.643 55.5211 106.756 55.492 106.874C55.492 106.939 55.4627 107.005 55.4451 107.064C55.4276 107.123 55.4451 107.207 55.4451 107.278C55.4247 107.421 55.4247 107.567 55.4451 107.711C55.4692 107.881 55.5206 108.045 55.5973 108.198C57.5585 109.415 67.4521 109.486 69.3371 108.138C69.3371 108.091 69.384 108.044 69.4074 107.984C69.5676 107.639 69.628 107.255 69.5813 106.877C69.5347 106.499 69.383 106.142 69.144 105.847C68.9755 105.634 68.7784 105.447 68.5585 105.289L68.9742 105.224L69.8933 105.082L70.8183 104.975C71.4329 104.898 72.0593 104.85 72.6799 104.791C73.921 104.672 75.1679 104.613 76.4149 104.547C77.0413 104.512 77.6618 104.494 78.2882 104.476L80.1674 104.423C81.4144 104.423 82.6672 104.375 83.92 104.357H87.6725C88.9253 104.357 90.1781 104.357 91.4309 104.322L95.1893 104.274L98.9418 104.221H102.7H106.459H110.217H113.97C115.222 104.221 116.475 104.221 117.722 104.256C118.969 104.292 120.222 104.298 121.469 104.34C122.084 104.34 122.71 104.387 123.319 104.429C123.928 104.47 124.548 104.512 125.075 104.595H125.134C125.319 104.618 125.507 104.57 125.66 104.461C125.813 104.351 125.919 104.187 125.959 104.001C126.009 103.897 126.034 103.783 126.033 103.668C126.031 103.552 126.003 103.439 125.951 103.336C125.899 103.233 125.824 103.145 125.731 103.077C125.639 103.009 125.533 102.963 125.42 102.945Z" fill="#061538"/>
<path fill-rule="evenodd" clip-rule="evenodd" d="M77.1343 80.1816C77.1343 80.1816 77.0465 80.9414 77.0114 81.2857C76.9617 81.7151 76.9461 82.1478 76.9645 82.5797C77.105 82.6747 77.6378 82.5797 77.9305 82.55L79.0311 82.5085C79.0311 82.4432 78.3813 81.7546 78.1003 81.3925C77.8193 81.0305 77.1343 80.1816 77.1343 80.1816Z" fill="#061538"/>
<path fill-rule="evenodd" clip-rule="evenodd" d="M46.3585 72.1687L45.416 72.3468L45.8551 74.9526L46.7976 74.7686C46.9677 74.7464 47.1309 74.6865 47.2756 74.5933C47.4204 74.5001 47.5432 74.3757 47.6353 74.2291C47.7274 74.0824 47.7867 73.9171 47.8089 73.7446C47.831 73.5722 47.8155 73.397 47.7635 73.2313C47.7597 73.06 47.7175 72.8919 47.64 72.7396C47.5626 72.5874 47.452 72.4551 47.3165 72.3527C47.1811 72.2503 47.0245 72.1805 46.8585 72.1486C46.6925 72.1167 46.5215 72.1236 46.3585 72.1687Z" fill="#061538"/>
<path fill-rule="evenodd" clip-rule="evenodd" d="M46.7991 69.7393C46.7915 69.6011 46.7522 69.4667 46.6844 69.3466C46.6167 69.2265 46.5222 69.124 46.4085 69.0474C46.2949 68.9708 46.1652 68.9221 46.0298 68.9051C45.8943 68.8882 45.7568 68.9035 45.6282 68.9499L44.8555 69.0982L45.2184 71.2055L45.9853 71.0571C46.6176 70.9443 46.9279 70.4932 46.7991 69.7393Z" fill="#061538"/>
<path fill-rule="evenodd" clip-rule="evenodd" d="M54.3917 55.8438C54.2103 56.3424 53.9995 57.0309 53.8531 57.4939C53.6714 58.0504 53.5305 58.6199 53.4316 59.1975C53.7829 59.1975 54.0639 59.156 54.3508 59.1263C54.7071 59.1151 55.0617 59.0714 55.4104 58.9957C55.223 58.4674 55.0591 58.0222 54.901 57.5295C54.743 57.0369 54.6025 56.5501 54.3917 55.8438Z" fill="#061538"/>
<path fill-rule="evenodd" clip-rule="evenodd" d="M82.1984 71.4506L81.5778 71.3438L81.2441 74.4007L81.7242 74.4838C81.9228 74.5509 82.1342 74.5696 82.3412 74.5386C82.5483 74.5075 82.7453 74.4275 82.9162 74.305C83.0872 74.1825 83.2273 74.021 83.3253 73.8335C83.4233 73.6459 83.4765 73.4376 83.4805 73.2254C83.6444 72.1985 83.2404 71.6346 82.1984 71.4506Z" fill="#061538"/>
<path fill-rule="evenodd" clip-rule="evenodd" d="M29.3476 74.0977H29.3066C29.471 74.9768 29.563 75.8683 29.5818 76.7629L29.8628 79.8436L32.5382 78.7573L30.7819 76.282C30.2278 75.6082 29.747 74.8759 29.3476 74.0977Z" fill="#061538"/>
<path fill-rule="evenodd" clip-rule="evenodd" d="M104.1 77.2679C104.004 77.4454 103.947 77.6417 103.932 77.8436C103.917 78.0454 103.945 78.2482 104.013 78.4382C104.082 78.6283 104.19 78.8012 104.33 78.9454C104.47 79.0896 104.639 79.2017 104.826 79.2742L105.739 79.571L107.009 77.0957L106.084 76.609C105.92 76.4847 105.729 76.4023 105.527 76.3686C105.325 76.335 105.118 76.3512 104.923 76.4158C104.729 76.4804 104.552 76.5916 104.409 76.7399C104.266 76.8882 104.16 77.0693 104.1 77.2679Z" fill="#061538"/>
<path fill-rule="evenodd" clip-rule="evenodd" d="M80.9344 59.0979L82.4916 59.5965C82.6555 59.1394 82.5501 59.3947 82.6497 58.8307C82.7024 58.4983 82.7609 57.7504 82.837 57.05C82.8838 56.5454 82.9073 56.4267 82.9424 55.75C82.2106 55.3642 79.7401 54.8537 79.3303 56.9016C79.2308 57.3765 79.5645 57.8098 79.9158 58.249C80.1911 58.603 80.5386 58.8925 80.9344 59.0979Z" fill="#061538"/>
<path fill-rule="evenodd" clip-rule="evenodd" d="M95.6582 76.5068L97.9355 77.3794L97.795 75.9726C97.777 75.1112 97.8437 74.2503 97.994 73.4023H97.9531C97.5757 74.1601 97.1162 74.8728 96.5832 75.5274L95.6582 76.5068Z" fill="#061538"/>
<path fill-rule="evenodd" clip-rule="evenodd" d="M73.383 58.9606C73.2718 58.4086 73.1723 57.9397 73.0845 57.4292C72.9967 56.9187 72.9147 56.4142 72.7976 55.6484C72.5576 56.1055 72.2532 56.7347 72.0483 57.1799C71.8001 57.7117 71.5907 58.2612 71.4219 58.8241C71.7673 58.8716 72.0541 58.8894 72.3351 58.9132C72.6822 58.9616 73.033 58.9775 73.383 58.9606Z" fill="#061538"/>
<path fill-rule="evenodd" clip-rule="evenodd" d="M107.488 70.1623C105.211 70.1267 107.945 70.0673 105.674 70.0198C105.357 70.0198 99.8194 69.4262 98.0631 68.9039C98.6485 62.8968 99.9892 56.8066 99.7667 56.5989C99.5442 56.3911 99.1813 53.6962 98.9413 52.5565C99.0681 52.4012 99.1384 52.2062 99.1403 52.0045C99.1406 51.7856 99.0614 51.5743 98.9178 51.4109C99.556 51.1794 99.0642 49.7489 98.9881 49.3096C98.912 48.8704 98.7891 48.9594 98.6193 49.1968C97.6885 50.5799 97.8055 51.031 97.9929 51.1794C97.823 51.2366 97.6751 51.3464 97.5701 51.4934C97.465 51.6404 97.4081 51.8171 97.4075 51.9986C97.4097 52.0832 97.4235 52.1671 97.4484 52.2479C97.0621 52.6278 95.1887 54.735 95.1887 54.735L94.3399 54.6578C94.3399 54.6578 94.4569 53.6725 94.7965 50.4078C95.456 50.4258 96.1047 50.2349 96.6523 49.8617C96.2191 47.8375 94.8492 40.0794 94.8316 38.6192C94.8213 38.4368 94.8823 38.2577 95.0014 38.1206C95.1293 37.8888 95.2146 37.6354 95.2531 37.3726L94.9253 37.0462L95.3175 36.3932L94.8667 35.1526C94.6267 35.5681 94.4452 35.8946 94.2462 36.2092C94.1404 36.338 94.0796 36.4987 94.0733 36.6661C94.0669 36.8336 94.1154 36.9985 94.2111 37.1352C94.2111 37.1352 94.2111 37.1946 94.2111 37.2242C94.2111 37.2539 94.1818 37.2777 94.1642 37.2895C93.9533 37.3828 93.7841 37.5525 93.69 37.7655C93.5958 37.9784 93.5833 38.2193 93.6549 38.4411C93.6719 38.5965 93.6497 38.7538 93.5905 38.8981C93.2861 39.6283 92.9758 40.3643 92.6421 41.0885C91.9572 42.5784 90.5639 45.2911 89.0301 48.0868C89.2247 48.6109 89.5796 49.0581 90.0429 49.3631L89.0828 52.1114L86.0562 50.2297C86.1088 49.179 86.185 44.4541 86.3196 42.7505C86.3161 42.6467 86.3372 42.5435 86.381 42.4495C86.4248 42.3556 86.49 42.2736 86.5713 42.2104H87.3851L87.5665 40.3643L86.103 40.0556C85.9508 38.3995 85.904 30.4158 85.9274 27.715C86.3137 27.715 87.268 27.4954 86.1498 24.2603C85.9801 23.833 86.1498 23.6193 85.7283 24.2603C85.3068 24.9014 83.896 26.9671 85.0024 27.5488C84.417 29.4067 82.2217 37.4142 81.6538 40.0616H80.2605L80.0732 41.9076L81.0801 42.1213C81.0801 42.3825 81.0215 42.7149 80.9571 43.071C80.7698 44.2582 80.6 45.3801 80.4069 46.5138C80.2137 47.6476 80.0907 48.7754 79.8507 49.8617L78.9082 49.9388L78.3228 45.7837L74.8102 45.5344L74.74 44.1514L76.0747 44.0505L76.1743 42.6674L74.8805 42.2875C74.4707 39.5689 73.493 32.9089 73.5223 32.7545C73.5684 32.4206 73.7157 32.1095 73.9438 31.8642C74.1487 31.6445 74.1311 31.5496 73.9438 31.3537C73.7565 31.1578 73.5399 30.9204 73.3174 30.6711C73.1652 30.772 73.0306 30.8551 72.9018 30.956C72.773 31.0569 72.6559 31.1637 72.5212 31.2646C72.4277 31.3165 72.3563 31.4014 72.3206 31.5032C72.285 31.6051 72.2876 31.7167 72.3281 31.8167C72.3405 31.8641 72.3581 31.9099 72.3807 31.9532C72.4979 32.2173 72.5584 32.5036 72.5584 32.7931C72.5584 33.0827 72.4979 33.369 72.3807 33.633C72.0822 34.5116 70.9582 39.842 70.443 42.0916H69.1668L69.0497 43.7418L70.4137 43.9733L70.5191 45.2851L66.3509 44.9824C66.3509 44.1276 66.3919 40.2337 66.4621 39.2187H67.1295L67.3169 36.69L66.3919 36.4229C65.988 33.7993 64.8698 21.9216 64.9166 21.4289C64.9166 21.1737 65.2445 20.129 65.2386 19.8738C65.2386 18.4848 64.6532 19.1436 64.6005 18.7519C65.666 17.7428 65.0571 16.4072 64.8815 16.0036C64.7588 15.5951 64.6021 15.198 64.4132 14.8164C63.9222 15.4932 63.5735 16.2649 63.3887 17.0839C63.2365 17.725 63.7458 18.2355 63.9331 18.829C63.6755 19.0487 63.2716 19.1318 63.3009 19.5651C63.3301 19.9984 63.096 20.3367 63.2482 20.5979C63.4252 20.8687 63.4943 21.1976 63.4414 21.518C63.2189 22.9545 61.5329 34.9211 61.4627 35.9777C61.4627 36.1558 61.41 36.3339 61.3866 36.506L60.2157 36.5654C60.2157 37.432 60.1806 38.2452 60.1689 39.0347C60.3621 39.0881 60.9475 39.1534 60.9475 39.1534C60.8538 40.3406 60.7426 43.7655 60.7309 44.6737L60.6665 45.3267L57.4408 45.392L56.7793 49.5471L55.948 49.4936C55.749 47.98 55.5441 46.4307 55.3626 45.76L54.0922 45.576H53.5068V45.4691L52.7399 45.3564V44.3413L54.2152 44.2285V42.3053L52.9097 42.0382C52.3886 39.7767 51.2763 34.4937 50.9778 33.6152C50.8592 33.3516 50.7978 33.0651 50.7978 32.7753C50.7978 32.4855 50.8592 32.1991 50.9778 31.9354C50.9988 31.892 51.0145 31.8461 51.0246 31.7989C51.065 31.6989 51.0677 31.5873 51.032 31.4854C50.9964 31.3836 50.925 31.2986 50.8314 31.2468C50.7026 31.1459 50.5797 31.0331 50.4509 30.9382C50.3221 30.8432 50.1875 30.7542 50.0353 30.6533C49.8128 30.9026 49.6255 31.1341 49.4089 31.3359C49.1922 31.5377 49.1805 31.6267 49.4089 31.8464C49.633 32.0937 49.7779 32.4042 49.8245 32.7367C49.8245 32.8911 48.8937 39.4502 48.4722 42.2341L47.1725 42.3409V43.9792L48.4078 44.187L48.5073 45.3742H46.5344C46.3764 45.3742 46.271 45.4098 46.2651 45.4454C46.072 46.1043 45.0943 50.4612 44.9187 50.7877C44.5152 50.8139 44.1104 50.8139 43.7069 50.7877C43.3907 50.0872 42.6941 43.3322 42.6765 41.9789H43.4376L43.1975 39.7707L42.2023 39.4799C41.8862 38.4233 39.808 31.6386 39.1757 29.7985C40.0538 29.1752 38.7718 27.157 38.3912 26.5635C38.0107 25.9699 38.1395 26.1242 37.9697 26.5635C37.0331 29.288 37.4955 29.8697 37.8761 29.9706C37.759 31.2765 36.7052 37.4142 36.3598 39.468L35.0192 39.8598L35.8505 41.9314H36.4769C36.5276 42.0024 36.5561 42.0871 36.5589 42.1747C36.5589 42.4181 36.6057 42.6674 36.6233 42.9108C36.7813 44.745 36.9453 46.5732 37.0858 48.4014C37.1736 49.4936 37.2204 50.5918 37.2907 51.678C37.2907 51.9926 37.4312 53.0908 37.4019 53.8506L37.197 54.0524C36.8399 54.4026 36.114 55.1268 35.5461 55.6551L34.0826 57.0856L33.6084 54.9427L34.7792 54.6103C34.752 53.8435 34.6699 53.0798 34.5333 52.325L32.7829 52.0104C32.7405 51.888 32.7053 51.7631 32.6775 51.6365C32.5312 51.0013 30.2949 44.2998 29.7973 42.9405C29.9395 42.6595 29.9696 42.3338 29.8813 42.031C29.793 41.7282 29.5931 41.4714 29.3231 41.314C29.8441 40.6492 28.7377 39.0822 28.4567 38.5539C28.1757 38.0256 28.0469 38.168 27.9122 38.5539C27.2039 40.8451 27.5727 41.3853 27.8829 41.5218C27.7203 41.6787 27.6035 41.8782 27.5457 42.0982C27.4878 42.3182 27.4911 42.5501 27.5551 42.7683C27.6166 42.9564 27.7209 43.1272 27.8595 43.2669C27.2741 45.6413 26.0155 51.684 25.7403 53.3994L23.8201 53.9574L24.6514 56.029H25.5705C25.7286 56.5276 25.875 57.0262 26.0213 57.5248C26.0272 57.5781 26.0272 57.6319 26.0213 57.6851C26.7414 61.2466 27.6195 70.2632 27.5317 69.7171C25.9218 69.8002 23.223 70.2216 20.6706 70.6015L20.4306 70.6431C19.8451 70.744 20.9047 70.6431 20.4306 70.6431H20.1203C19.9457 70.6387 19.7721 70.6725 19.6115 70.7422C19.4509 70.8118 19.307 70.9157 19.1895 71.0467C16.9883 73.3617 9.58857 84.5567 3.72266 93.1399C3.86316 93.1399 14.7695 91.7628 20.893 90.7122C27.7893 89.525 33.0405 88.2429 38.2507 88.3794C43.461 88.5159 61.5505 92.024 61.5505 92.024C61.5505 92.024 79.2887 88.6168 84.7741 88.5397C90.2595 88.4625 95.2707 89.1926 104.409 90.8725C110.486 91.9884 116.17 91.935 122.165 92.5938C117.101 85.3699 112.084 75.7895 108.255 70.5006C108.156 70.3955 108.037 70.3114 107.905 70.2534C107.774 70.1953 107.632 70.1643 107.488 70.1623ZM79.5112 59.6855C78.996 59.27 77.2807 58.2371 77.7549 56.308C78.194 54.6044 80.2781 53.999 81.7065 54.1236C82.6512 54.2974 83.5611 54.6283 84.3994 55.103C84.4373 55.1142 84.4722 55.1339 84.5016 55.1606C84.531 55.1873 84.5541 55.2204 84.5692 55.2573C84.6629 55.4532 84.5692 55.6016 84.5165 55.8509C84.2004 57.7385 83.6969 63.0808 83.4276 64.1611L82.0285 63.8584C82.0285 63.7872 82.0285 63.71 82.0285 63.6328C82.0384 63.3999 82.0638 63.1678 82.1046 62.9383C82.2099 62.0123 82.3095 61.2348 82.3563 60.8905C82.1397 60.8311 80.9747 60.5343 80.8108 60.4512L79.1482 63.2529L76.8065 62.7959C77.351 62.5822 79.1716 60.2019 79.5112 59.6855ZM76.4494 68.2628C76.8533 70.6371 78.071 74.8575 78.352 75.1721L75.8523 74.9228C76.0162 74.7863 76.1216 74.3292 75.9577 73.4626L75.4483 70.7262C75.2816 69.8974 75.1663 69.0588 75.1029 68.2153H75.062C74.8679 69.0266 74.6095 69.8206 74.2892 70.5896L73.3057 73.1777C72.9954 73.9968 73.0189 74.4776 73.1535 74.632L70.7591 74.3945C71.0928 74.1393 72.9662 70.4234 73.8209 68.0313C73.947 67.7797 74.0088 67.5001 74.0006 67.218C73.9924 66.9359 73.9145 66.6604 73.774 66.4167L76.7011 66.7195C76.426 66.9569 76.3206 67.5149 76.4494 68.2628ZM68.3472 61.3238C68.7628 60.4215 69.2078 59.5134 69.7581 58.3559C70.203 57.3883 70.5542 56.6463 70.9289 55.8984C71.5143 54.5866 71.7309 53.7318 71.93 53.6903C72.0178 53.6903 72.5447 53.809 72.7086 53.809C72.9356 53.8071 73.1625 53.821 73.3877 53.8506C73.4638 53.8506 73.4638 54.1652 73.5457 54.4441C73.7038 54.9249 74.0082 55.845 74.2365 56.7651C74.5761 58.1184 74.8688 59.3234 75.1205 60.3266C75.3722 61.3297 75.3957 61.6146 75.5362 62.1073C75.583 62.2617 75.6298 62.416 75.6649 62.5584C75.22 62.4753 74.781 62.3863 74.3361 62.3151H74.1604C74.1253 62.1489 74.1019 61.9886 74.0843 61.8877C73.9614 61.2941 73.9204 60.8252 73.8443 60.5403C73.2179 60.4631 72.9369 60.3859 72.088 60.3384C71.5319 60.3384 70.9172 60.2791 70.6772 60.2791C70.5835 60.4928 70.2732 61.0507 70.1327 61.4188C70.0742 61.5968 69.9864 61.7987 69.9103 62.0123C69.2839 62.0123 68.6516 62.0123 68.0252 62.0123C68.1013 61.7868 68.236 61.5612 68.3472 61.3119V61.3238ZM65.1918 65.9538L69.0965 66.0843C69.4878 66.1036 69.88 66.0837 70.2674 66.025L70.3903 68.1619C70.2349 67.8531 69.9917 67.5987 69.6922 67.4315C69.3927 67.2643 69.0506 67.1921 68.7102 67.224L67.27 67.1825L67.2115 69.2778H68.0369C68.6039 69.3238 69.1735 69.3238 69.7405 69.2778L69.3658 71.2663C69.2942 71.0157 69.1373 70.7988 68.9229 70.6543C68.7086 70.5098 68.4507 70.4469 68.195 70.4769L67.1881 70.4413L67.112 73.1243L68.2828 73.1658C68.7107 73.2007 69.1402 73.1222 69.5292 72.938C69.9182 72.7538 70.2533 72.4703 70.5015 72.1152L70.1269 74.4895C69.6915 74.3988 69.2483 74.353 68.8038 74.353L64.981 74.1986C65.2328 73.985 65.4669 66.1556 65.1918 65.9419V65.9538ZM59.1268 53.8862C59.1657 53.8918 59.2051 53.8918 59.2439 53.8862C59.6887 53.8319 60.1371 53.816 60.5845 53.8387C60.8714 54.183 61.1699 54.6578 61.5036 55.1149C61.9778 55.7797 62.6745 56.7116 62.9847 57.0678C63.325 56.6941 63.6399 56.2974 63.9273 55.8806C64.5127 55.0318 65.1859 53.9218 65.3616 53.5834L65.4845 53.3579C65.9177 53.3579 66.3509 53.3697 66.7841 53.3935C66.737 53.6025 66.7057 53.8148 66.6905 54.0286C66.6553 54.8834 66.6905 57.5367 66.7724 59.0325C66.8368 60.6946 66.8954 61.4069 66.9129 62.042L65.1567 62.0895C65.1567 61.5375 65.262 60.6055 65.2679 59.7152C65.2737 58.8248 65.2679 58.0947 65.2679 57.3408C65.2679 56.9075 65.2679 56.4564 65.2679 55.9162C64.9869 56.3021 64.7234 56.6938 64.378 57.1924C64.097 57.5901 63.8336 57.9878 63.5819 58.3321C63.3301 58.6764 63.137 58.9257 62.9965 59.0978C62.9965 59.2284 62.9438 59.365 62.856 59.3531C62.6452 59.3531 62.1944 58.8248 61.6851 58.1659C61.3924 57.7801 60.8714 57.1628 60.6899 56.8422C60.6899 57.2043 60.6899 57.4358 60.6899 57.8513C60.6899 58.7061 60.6899 59.1809 60.6899 60.0357C60.6899 60.8905 60.7426 61.6562 60.725 62.1964L59.3551 62.2498C59.3551 62.137 59.3551 62.0183 59.3551 61.6562C59.3551 60.9558 59.1268 55.3108 59.1327 54.8656C59.1327 54.6514 59.1444 54.4374 59.1678 54.2245C59.1268 54.1355 59.1268 54.0168 59.1268 53.8862ZM25.7989 83.3399L24.388 83.9334L24.1187 84.1709C24.4179 83.392 24.5631 82.561 24.5461 81.7253L24.4992 81.2445L23.5099 80.9358L20.7759 78.4487C20.3393 77.9852 19.7963 77.6385 19.1953 77.4396L21.4843 76.2525C21.484 76.5355 21.5502 76.8145 21.6775 77.0663C21.8047 77.3182 21.9894 77.5357 22.2161 77.7008L24.3529 79.6952L24.066 76.7273C23.992 76.1719 23.7265 75.661 23.3167 75.2849L25.1725 74.3174C25.1725 74.3174 25.3247 75.4096 25.4066 76.1872L25.8984 80.9655C25.9444 81.7583 25.9111 82.5538 25.7989 83.3399ZM35.2827 80.2295C35.093 79.9205 34.7972 79.6937 34.4523 79.5928C34.1075 79.492 33.738 79.5242 33.4152 79.6834L29.8207 81.1377C29.4716 81.2528 29.1739 81.4892 28.98 81.8052C28.7861 82.1213 28.7086 82.4966 28.7611 82.865L27.4263 80.7874C27.6859 80.7036 27.9144 80.5422 28.082 80.3244L28.2986 74.632C28.2929 74.3363 28.1969 74.0497 28.024 73.8116C27.851 73.5734 27.6095 73.3955 27.3327 73.3023L30.2598 72.1152C30.1458 72.3642 30.104 72.6409 30.1393 72.9131C30.1745 73.1853 30.2853 73.4418 30.4588 73.6525L34.3109 77.8076C34.4237 77.8503 34.5441 77.8681 34.6642 77.8599C34.7843 77.8517 34.9014 77.8177 35.0075 77.7602L35.3061 80.2532L35.2827 80.2295ZM38.2098 76.9291C38.0927 77.3625 38.2742 77.772 38.2098 78.1163L35.8681 78.7752C36.0064 78.4891 36.0865 78.1776 36.1036 77.8595C36.1207 77.5413 36.0744 77.2229 35.9676 76.9232L34.7968 72.3763C34.5567 71.4207 34.1177 70.9517 33.7957 70.833L36.354 70.0436C36.213 70.3297 36.1304 70.6417 36.1113 70.961C36.0922 71.2803 36.1369 71.6002 36.2428 71.9015L36.7579 73.9315C36.9514 74.7467 37.0786 75.5765 37.1384 76.4127H37.1794C37.2404 75.5319 37.3855 74.6592 37.6126 73.8069L38.4322 70.6371C38.5696 70.2435 38.6196 69.8239 38.5786 69.4084L40.9203 68.7377C40.6254 69.2987 40.5541 69.9531 40.7212 70.5659L41.8921 75.1662C42.1379 76.1219 42.5711 76.5908 42.8931 76.7095L40.3114 77.4515C40.4632 77.1684 40.5537 76.8557 40.5769 76.5343C40.6002 76.2129 40.5555 75.8902 40.4461 75.5876L39.9192 73.5101C39.7113 72.6463 39.5916 71.7632 39.5621 70.8746H39.5211C39.4709 71.8058 39.3238 72.729 39.082 73.6288L38.2098 76.9291ZM47.9102 80.4313C47.4943 80.7963 47.0585 81.1371 46.6047 81.4523C45.9315 81.9449 44.7723 82.6394 44.7957 82.6394C46.2539 83.409 47.4705 84.5769 48.3083 86.011C47.912 86.3669 47.4085 86.5761 46.8798 86.6046C46.8213 86.6046 45.7734 84.7585 44.7489 84.2302C44.1058 83.8489 43.4322 83.5232 42.7351 83.2568C42.6063 83.2924 42.255 84.0759 42.1496 84.3311C42.0443 84.5864 41.3301 85.9279 40.9788 85.9398C40.6275 85.9516 39.9543 85.9398 39.7494 85.9398C39.5445 85.9398 39.3104 85.8626 39.3923 85.6964C39.4743 85.5302 39.5855 85.459 39.6558 85.3224C39.7845 85.0672 40.9729 83.0965 41.2949 82.6157C41.6007 82.1671 41.8746 81.697 42.1145 81.2089C42.4189 80.6153 42.6531 79.9386 42.6999 79.8793C42.7995 79.6893 43.6952 79.6121 44.2045 79.5647C44.8192 79.5112 44.4503 79.8733 44.3918 79.9861C44.2045 80.3541 44.1049 80.8171 43.8766 81.3039C43.6951 81.6838 43.4493 82.2595 43.4493 82.2595C44.2271 81.8441 44.9832 81.3885 45.7148 80.8943C46.5871 80.3007 47.3306 79.3688 47.5062 79.351C47.5531 79.351 49.0166 79.1788 48.9815 79.351C48.6747 79.765 48.3075 80.1293 47.8926 80.4313H47.9102ZM47.2252 75.8785L43.9703 76.5077C44.1596 76.2295 44.2865 75.9126 44.3422 75.5793C44.3978 75.246 44.3808 74.9044 44.2923 74.5785L43.5078 70.0436C43.4903 69.71 43.3966 69.3852 43.234 69.0947C43.0715 68.8042 42.8445 68.556 42.5711 68.3696L45.4982 67.7761C47.1082 67.4674 48.0331 67.966 48.2673 69.3669C48.3468 69.7524 48.298 70.1539 48.1285 70.5083C47.959 70.8628 47.6784 71.1502 47.3306 71.3257V71.3613C47.8017 71.3463 48.2621 71.5055 48.6261 71.809C48.9901 72.1126 49.2329 72.5399 49.3093 73.0115C49.5669 74.5192 48.6654 75.5995 47.2077 75.8785H47.2252ZM43.8708 60.7658C44.0347 61.8283 45.2231 63.1402 45.9783 63.0571C47.8048 62.8493 47.7053 61.6681 47.8341 60.7955C47.8341 60.564 47.8985 60.3147 47.916 60.1129C47.9336 59.9111 48.0507 59.7449 48.2146 59.733C48.5431 59.6444 48.8778 59.5809 49.2157 59.543C49.2742 59.543 49.3679 59.543 49.3796 59.6202C49.418 60.0586 49.418 60.4996 49.3796 60.938C49.3849 61.7571 49.1439 62.5584 48.6888 63.2351C48.1767 63.8046 47.4944 64.1878 46.7468 64.3262C45.9991 64.4645 45.2273 64.3502 44.5499 64.0009C44.2161 63.8337 43.9209 63.5971 43.6834 63.3064C43.0044 62.5881 42.7585 61.7274 42.5653 60.469C42.3611 58.8705 42.7651 57.2531 43.6951 55.9459C44.2035 55.2816 44.9272 54.8212 45.7383 54.646C46.2849 54.5259 46.8547 54.5777 47.3716 54.7944C48.1853 55.1208 48.5424 55.7916 49.0927 56.5336C49.2274 56.7354 49.3854 56.866 49.3971 57.1271C49.4089 57.3883 48.6595 57.5605 48.3727 57.6198C48.0858 57.6792 47.957 57.5011 47.8399 57.2815C47.7228 57.0618 47.6526 56.8778 47.5648 56.7235C47.4243 56.4505 47.1023 56.2427 46.4642 56.3614C45.9572 56.4827 45.4835 56.718 45.0782 57.0499C44.6729 57.3817 44.3463 57.8017 44.1225 58.2787C43.739 59.0474 43.6434 59.931 43.8532 60.7658H43.8708ZM49.6489 67.0756L52.3008 66.7729C52.1134 67.031 51.9803 67.3255 51.9098 67.6379C51.8393 67.9504 51.8329 68.2742 51.891 68.5893L52.0725 70.6727C52.1311 71.3494 52.0725 73.1836 52.0725 73.1836C52.276 72.325 52.5603 71.4882 52.9214 70.6846L54.2327 67.6751C54.4341 67.3106 54.5521 66.9049 54.5781 66.488L56.9783 66.2149C56.5926 66.7212 56.4162 67.3599 56.4866 67.9957L56.9022 72.7444C56.9842 73.7297 57.3413 74.258 57.6399 74.4301L54.9703 74.7329C55.1654 74.4785 55.3048 74.185 55.3795 73.8719C55.4542 73.5588 55.4624 73.2331 55.4036 72.9165L55.2162 70.7855C55.1518 70.0495 55.2513 68.1263 55.2513 68.1263C55.0502 69.0373 54.7559 69.9246 54.3732 70.7737L52.9858 73.8484C52.8858 74.2163 52.8288 74.5949 52.816 74.9762L50.3806 75.2849C50.5642 75.0249 50.6941 74.73 50.7625 74.4179C50.8309 74.1058 50.8364 73.7829 50.7787 73.4685L50.3748 68.7911C50.287 67.8117 49.9357 67.2774 49.6372 67.1053L49.6489 67.0756ZM57.7218 82.0636C57.6399 82.9184 57.5228 83.9572 57.435 84.6992C57.3179 85.6133 57.2242 86.842 57.1188 87.5543C57.1144 87.8103 57.0586 88.0628 56.9549 88.2963C56.8964 88.4269 55.8485 88.231 55.5616 88.1242C55.4887 88.0977 55.4269 88.0468 55.3864 87.9799C55.346 87.9129 55.3293 87.834 55.3392 87.7561C55.3392 87.5662 55.3801 87.2516 55.4387 86.569C55.5555 85.8602 55.6259 85.1443 55.6494 84.4261C55.5206 84.2362 54.5664 84.1174 53.9927 83.9928C53.2668 83.8325 52.0198 83.7019 52.0198 83.7019C52.0198 83.8385 51.8735 84.5211 51.8091 85.0316C51.7622 85.4055 51.7154 85.9635 51.6744 86.1772C51.6334 86.3909 51.6042 86.8717 51.5983 86.9429C51.053 86.9822 50.505 86.9422 49.9709 86.8242C49.7367 86.7708 49.924 86.2306 49.9709 85.9754C50.0177 85.7201 50.3338 83.6723 50.5563 82.2714C50.6675 81.5116 50.7436 80.7993 50.8256 80.3482C50.8766 79.9651 50.9811 79.5914 51.1358 79.2382C51.6301 79.3614 52.1303 79.4585 52.6345 79.529C52.5935 79.8792 52.4355 80.8052 52.3301 81.6066C52.2705 81.8773 52.2449 82.1545 52.254 82.4317C52.3184 82.5088 53.4248 82.4851 54.2327 82.5919C54.7303 82.6572 55.708 83.0193 55.8368 82.9481C56.0592 82.8234 56.2173 80.8587 56.2583 80.3304C56.2772 80.1469 56.2772 79.9618 56.2583 79.7783L57.7979 79.8258C57.886 79.916 57.9363 80.0373 57.9384 80.1642C57.9052 80.8013 57.8329 81.4357 57.7218 82.0636ZM56.6856 62.4041C56.6037 62.1667 56.5217 61.9114 56.4807 61.769C56.2758 61.1754 56.1763 60.7539 56.0651 60.4809C55.4328 60.4809 55.1401 60.4809 54.3088 60.5759C53.7585 60.653 53.138 60.7183 52.9038 60.7599C52.8394 60.9914 52.6052 61.5968 52.5174 61.9827C52.4296 62.3685 52.3301 62.7365 52.254 63.0214C51.8032 63.1045 51.3524 63.1936 50.9075 63.2886L50.445 63.3776C50.4422 63.3361 50.4422 63.2944 50.445 63.2529C50.5244 62.8854 50.636 62.5258 50.7787 62.1786C51.0656 61.2169 51.3642 60.2375 51.774 59.0029C52.0784 57.97 52.3594 57.1687 52.5818 56.3674C53.0092 54.9724 53.0911 54.0939 53.2843 53.993C53.3663 53.993 53.9049 53.993 54.0688 53.993C54.2935 53.9555 54.5203 53.9317 54.7479 53.9218C54.8181 53.9218 54.8591 54.2186 54.9821 54.5154C55.1987 54.9665 55.626 55.8213 55.9773 56.6938C56.4924 57.976 56.9432 59.1216 57.3296 60.0891C57.716 61.0567 57.7745 61.3178 57.9794 61.7868C58.0614 61.9708 58.1375 62.1429 58.2019 62.3032C57.675 62.3269 57.1832 62.3566 56.6856 62.4041ZM58.2663 68.34L58.3892 66.1496C58.8927 66.209 63.5233 66.0606 64.0209 65.9716L64.2668 68.1441C64.1258 67.8851 63.9177 67.6703 63.6648 67.5227C63.412 67.3752 63.1242 67.3006 62.8325 67.3071H62.013C62.013 67.3071 62.1359 72.1567 62.5398 73.8069C62.5865 74.0171 62.7072 74.2029 62.8794 74.3292L60.0576 74.4183C60.1999 74.2587 60.2987 74.0644 60.3445 73.8544C60.6665 72.3051 60.526 67.3249 60.526 67.3249H59.7005C59.3938 67.3368 59.0965 67.4361 58.8428 67.6114C58.5891 67.7867 58.3893 68.031 58.2663 68.3162V68.34ZM66.3626 87.6493C66.3626 88.0767 66.2046 88.2904 66.0641 88.3319C65.7997 88.3888 65.5264 88.3888 65.262 88.3319C65.1332 88.3319 64.9459 88.3319 64.823 88.3319C64.7 88.3319 64.7469 88.136 64.7469 87.7383C64.7469 87.216 64.7469 86.8123 64.7761 86.1475C64.8054 85.4827 64.7761 85.1087 64.7761 84.5626C64.7761 84.2777 64.7761 83.1855 64.7761 83.1855C64.7761 83.1855 64.4307 83.9691 64.1263 84.5983C63.8219 85.2275 63.3887 86.0169 62.9555 86.6936C62.5575 87.3735 62.1155 88.0259 61.6324 88.6465C61.5342 88.7674 61.4176 88.8716 61.287 88.9552C60.7191 88.9377 60.1524 88.8901 59.5893 88.8127C59.5331 88.7371 59.5005 88.6461 59.4956 88.5515C59.5166 88.0404 59.5674 87.531 59.6479 87.026C59.7357 86.1356 59.8352 81.4285 59.9054 79.998C60.4661 80.0611 61.023 80.1542 61.5739 80.277V80.3185C61.5388 81.1911 61.5739 82.6513 61.4861 83.6307C61.4041 84.9603 61.2987 86.7292 61.2987 86.7292C61.8332 86.0656 62.3074 85.3544 62.7155 84.6042C63.0609 83.9394 63.3945 83.3755 63.699 82.6928C64.0034 82.0102 64.1556 81.476 64.3663 80.9121C64.4776 80.6331 64.5712 80.366 64.6708 80.1286C65.1332 79.9742 65.5957 79.814 66.0699 79.6656C66.0699 79.719 66.0699 79.7665 66.0699 79.8318C66.0699 80.1701 66.0699 80.3482 66.0699 80.7103C66.0699 82.1705 66.0699 83.233 66.187 84.8654C66.2865 86.0288 66.3802 87.305 66.3626 87.6255V87.6493ZM71.5729 79.998C71.0495 80.0581 70.5348 80.1796 70.0391 80.3601C70.0154 80.7316 70.039 81.1046 70.1093 81.4701C70.1854 82.2714 70.2732 83.138 70.3084 83.9097C70.3756 84.8726 70.3639 85.8395 70.2732 86.8005C70.2264 87.1388 69.6878 87.394 68.9853 87.6493C68.7219 87.7443 68.5521 87.768 68.5404 87.305C68.5404 86.9548 68.5404 84.9722 68.4936 83.4942C68.4936 82.402 68.4174 81.3573 68.394 80.5263C68.394 80.1404 68.3472 79.8199 68.3472 79.5943C68.3444 79.5608 68.3444 79.527 68.3472 79.4934C68.4994 79.4341 70.1796 79.0304 70.484 78.9948C71.3863 78.8378 72.2974 78.7387 73.212 78.698C73.3314 79.024 73.4235 79.3595 73.4872 79.7012C72.8783 79.8436 72.1934 79.8496 71.5729 79.9742V79.998ZM83.2813 85.6133C82.8263 85.6973 82.367 85.7548 81.9055 85.7854C81.6948 85.6074 81.203 84.8298 81.045 84.6636C80.7767 84.3135 80.4832 83.9841 80.1668 83.6782C79.7805 83.512 79.1599 83.6367 78.2408 83.6782C77.724 83.6872 77.209 83.7409 76.7011 83.8385C76.5851 84.1592 76.5141 84.4949 76.4904 84.8357C76.4904 85.1562 76.3616 85.5955 76.3382 85.7914C76.3382 85.8567 76.2796 86.0288 76.2328 86.0525C76.0865 86.106 75.782 86.0525 75.4776 86.1178C75.0034 86.1891 74.6756 86.2662 74.4883 86.2781C74.4497 86.2848 74.4101 86.2834 74.3721 86.2741C74.334 86.2647 74.2982 86.2475 74.267 86.2236C74.2357 86.1997 74.2096 86.1696 74.1903 86.135C74.171 86.1005 74.1588 86.0623 74.1546 86.0229C74.2224 85.7157 74.3185 85.4156 74.4414 85.1265C74.6756 84.3133 74.9273 83.423 75.1205 82.396C75.2844 81.5413 75.3898 80.9121 75.4718 80.3601C75.6123 79.4044 75.4718 78.9592 75.6006 78.9533C75.7032 78.9718 75.8048 78.9955 75.905 79.0245C76.0394 79.0353 76.1745 79.0353 76.3089 79.0245C76.5314 79.0245 77.3041 79.0245 77.5207 79.0245C77.5851 79.0245 77.7139 79.1966 77.9071 79.3569C78.4696 79.8116 79.0089 80.295 79.5229 80.8053C80.4127 81.7075 81.2264 82.586 81.9407 83.328C82.6549 84.07 82.8305 84.2718 83.2169 84.6279C83.4871 84.8509 83.7378 85.0972 83.9662 85.364C84.0306 85.5124 83.3925 85.5895 83.2813 85.5895V85.6133ZM82.0285 75.7716L78.8731 75.2137C79.1263 75.0223 79.334 74.7757 79.4809 74.4922C79.6278 74.2087 79.7102 73.8954 79.7219 73.5754L80.4537 68.8801C80.5318 68.5775 80.5435 68.2612 80.4879 67.9535C80.4322 67.6458 80.3107 67.3542 80.1317 67.0994L82.7602 67.5624C82.4617 67.7167 81.7475 70.2335 81.7475 70.2335L82.7602 70.4116C84.3292 70.6906 85.2893 71.7887 85.0317 73.4626C84.7507 75.2493 83.4335 75.9794 82.0285 75.7479V75.7716ZM91.6996 78.146L89.1472 77.4634C89.434 77.3328 90.5522 73.9019 90.5522 73.9019L87.7422 73.148C87.7422 73.148 87.2094 76.7095 87.4143 76.9826L84.8853 76.2643C85.1496 76.0915 85.3735 75.8623 85.5414 75.5926C85.7092 75.323 85.817 75.0194 85.8571 74.7032L86.9343 70.1326C87.0444 69.8289 87.0869 69.5043 87.0585 69.182C87.0302 68.8597 86.9318 68.5478 86.7704 68.2687L89.3228 68.9514C89.0359 69.0819 88.0407 71.9549 88.0407 71.9549L90.8508 72.7028C90.8508 72.7028 91.2605 69.6755 91.0556 69.4144L93.6081 70.097C93.3438 70.2698 93.1199 70.499 92.952 70.7687C92.7842 71.0383 92.6764 71.3419 92.6363 71.6581L91.5474 76.2762C91.4434 76.5735 91.4052 76.8903 91.4356 77.2042C91.4659 77.5181 91.5641 77.8214 91.723 78.0926L91.6996 78.146ZM99.8955 72.5188C99.6851 72.6437 99.514 72.8266 99.4021 73.0462C99.2902 73.2658 99.242 73.5131 99.2632 73.7594L99.2047 78.9592C99.1734 79.7136 99.3074 80.4657 99.5969 81.1614L97.2552 80.277C97.4777 80.1998 97.7177 78.5912 97.7177 78.5912L95.0775 77.5821C95.0775 77.5821 94.3106 78.9889 94.4043 79.1848L92.2675 78.3537C92.9016 77.998 93.4511 77.5056 93.8774 76.9113L96.904 72.8512C97.0673 72.6665 97.1777 72.4399 97.2231 72.1961C97.2685 71.9523 97.2472 71.7006 97.1616 71.4682L99.8779 72.5069L99.8955 72.5188ZM109.262 77.03C108.923 77.0835 108.378 77.4693 107.951 78.3715L105.902 82.7225C105.475 83.6426 105.504 84.3193 105.679 84.6457L103.279 83.3695C103.589 83.2983 104.105 82.9006 104.532 81.9984L105.463 80.176C104.292 80.9121 101.95 82.3961 101.74 82.6394L100.013 81.5769C100.55 81.3876 101.068 81.1451 101.558 80.8527C102.079 80.5203 103.718 79.6656 103.718 79.6656C102.179 78.9236 102.19 77.7008 102.659 76.6976C103.443 75.0297 104.725 74.6023 106.423 75.5105L109.28 77.036L109.262 77.03Z" fill="#061538"/>
</g>
<defs>
<clipPath id="clip0_873_2754">
<rect width="126" height="109" fill="white"/>
</clipPath>
</defs>
</svg>
