<svg width="64" height="64" viewBox="0 0 64 64" fill="none" xmlns="http://www.w3.org/2000/svg">
  <path
    d="M37.1435 37.1429C32.953 41.4667 32.6483 46.8571 32.2864 58.6667C43.2959 58.6667 50.8959 58.6286 54.8197 54.8191C58.6292 50.8952 58.6673 42.9333 58.6673 32.2857C46.8578 32.6667 41.4673 32.9524 37.1435 37.1429ZM5.33398 32.2857C5.33398 42.9333 5.37208 50.8952 9.1816 54.8191C13.1054 58.6286 20.7054 58.6667 31.7149 58.6667C31.334 46.8571 31.0483 41.4667 26.8578 37.1429C22.534 32.9524 17.1435 32.6476 5.33398 32.2857ZM31.7149 5.33334C20.7245 5.33334 13.1054 5.37143 9.1816 9.18096C5.37208 13.1048 5.33398 21.0667 5.33398 31.7143C17.1435 31.3333 22.534 31.0476 26.8578 26.8571C31.0483 22.5333 31.353 17.1429 31.7149 5.33334ZM37.1435 26.8571C32.953 22.5333 32.6483 17.1429 32.2864 5.33334C43.2959 5.33334 50.8959 5.37143 54.8197 9.18096C58.6292 13.1048 58.6673 21.0667 58.6673 31.7143C46.8578 31.3333 41.4673 31.0476 37.1435 26.8571Z"
    fill="#28AE60" />
  <path
    d="M58.6673 32.2857V31.7143C46.8578 31.3333 41.4673 31.0476 37.1435 26.8571C32.953 22.5333 32.6483 17.1429 32.2864 5.33334H31.7149C31.334 17.1429 31.0483 22.5333 26.8578 26.8571C22.534 31.0476 17.1435 31.3524 5.33398 31.7143V32.2857C17.1435 32.6667 22.534 32.9524 26.8578 37.1429C31.0483 41.4667 31.353 46.8571 31.7149 58.6667H32.2864C32.6673 46.8571 32.953 41.4667 37.1435 37.1429C41.4673 32.9524 46.8578 32.6476 58.6673 32.2857Z"
    fill="white" />
</svg>