<svg width="136" height="64" viewBox="0 0 136 64" fill="none" xmlns="http://www.w3.org/2000/svg">
  <mask id="mask0_1231_4616" style="mask-type:luminance" maskUnits="userSpaceOnUse" x="10" y="5"
    width="114" height="54">
    <path d="M123.907 5.33334H10.666V58.6667H123.907V5.33334Z" fill="white" />
  </mask>
  <g mask="url(#mask0_1231_4616)">
    <path fill-rule="evenodd" clip-rule="evenodd"
      d="M93.4256 32.0627C93.4256 27.3531 90.2757 24.0159 85.6745 24.0159C81.0423 24.0159 77.8925 27.3219 77.8925 32.0627C77.8925 36.6787 81.0423 40.0471 85.6745 40.0471C90.2449 40.0471 93.4256 36.6787 93.4256 32.0627ZM85.6745 45.1309C78.3557 45.1309 72.4883 39.5792 72.4883 32.0627C72.4883 24.5773 78.3866 18.9321 85.6745 18.9321C92.9315 18.9321 98.8298 24.5773 98.8298 32.0627C98.8298 39.5792 92.9315 45.1309 85.6745 45.1309ZM101.424 19.9613C101.424 19.5559 101.64 19.3063 102.072 19.3063H106.149C106.55 19.3063 106.797 19.5247 106.797 19.9613V29.8483L115.907 19.6806C116.154 19.3999 116.401 19.3063 116.772 19.3063H122.639C123.04 19.3063 123.071 19.7118 122.824 19.9925L111.398 31.6572L123.442 44.1329C123.689 44.4136 123.658 44.819 123.257 44.819H117.451C116.957 44.819 116.833 44.6943 116.555 44.4759L106.797 33.6845V44.164C106.797 44.5695 106.581 44.819 106.149 44.819H102.072C101.671 44.819 101.424 44.6007 101.424 44.164V19.9613Z"
      fill="#28AE60" />
    <path
      d="M11.0664 30.9712C11.0664 18.9946 11.0664 12.9751 14.7413 9.26358C18.447 5.55209 24.3761 5.55209 36.2344 5.55209H38.3343C50.1927 5.55209 56.1527 5.55209 59.8275 9.26358C63.5024 12.9751 63.5024 18.9946 63.5024 30.9712V33.092C63.5024 45.0687 63.5024 51.0881 59.8275 54.7996C56.1527 58.5112 50.1927 58.5111 38.3343 58.5111H36.2344C24.3761 58.5111 18.4161 58.5112 14.7413 54.7996C11.0664 51.0881 11.0664 45.0998 11.0664 33.092V30.9712Z"
      fill="#28AE60" />
    <path
      d="M37.2838 31.9066C39.847 31.9066 42.163 30.8462 43.8306 29.162C45.4982 27.4777 46.5481 25.1386 46.5481 22.5499C46.5481 19.9612 45.4982 17.622 43.8306 15.9378C42.163 14.2536 39.847 13.1931 37.2838 13.1931C34.7207 13.1931 32.4046 14.2536 30.7371 15.9378C29.0695 17.622 28.0195 19.9612 28.0195 22.5499C28.0195 25.1386 29.0695 27.4777 30.7371 29.162C32.4046 30.8462 34.7516 31.9066 37.2838 31.9066ZM34.3193 19.5245C35.0913 18.7448 36.1412 18.277 37.2838 18.277C38.4573 18.277 39.5073 18.7448 40.2484 19.5245C41.0204 20.3043 41.4837 21.3647 41.4837 22.5187C41.4837 23.7039 41.0204 24.7643 40.2484 25.5128C39.4764 26.2926 38.4264 26.7604 37.2838 26.7604C36.1104 26.7604 35.0604 26.2926 34.3193 25.5128C33.5472 24.7331 33.084 23.6727 33.084 22.5187C33.084 21.3647 33.5781 20.3043 34.3193 19.5245Z"
      fill="white" />
    <path
      d="M49.7605 35.6832L47.043 31.9405C46.8886 31.7221 46.5798 31.691 46.3945 31.8781C43.8313 34.0925 40.6815 35.5272 37.2846 35.5272C33.8877 35.5272 30.7378 34.0925 28.1747 31.8781C27.9894 31.7221 27.6806 31.7533 27.5262 31.9405L24.8086 35.6832C24.6851 35.8703 24.716 36.1198 24.8704 36.2757C27.1556 38.1471 29.8114 39.4258 32.5907 40.0808L26.8468 50.3108C26.6924 50.5915 26.9086 50.9658 27.2174 50.9658H32.8377C33.023 50.9658 33.1774 50.8722 33.2392 50.6851L37.2537 41.6403L41.2682 50.6851C41.33 50.841 41.4844 50.9658 41.6697 50.9658H47.29C47.6297 50.9658 47.815 50.6227 47.6606 50.3108L41.9167 40.0808C44.696 39.4258 47.3518 38.1783 49.637 36.2757C49.884 36.1198 49.9149 35.8703 49.7605 35.6832Z"
      fill="white" />
  </g>
</svg>