<svg width="64" height="64" viewBox="0 0 64 64" fill="none" xmlns="http://www.w3.org/2000/svg">
  <path
    d="M26.6673 40L40.5073 32L26.6673 24V40ZM57.494 19.12C57.8407 20.3733 58.0807 22.0533 58.2407 24.1867C58.4273 26.32 58.5073 28.16 58.5073 29.76L58.6673 32C58.6673 37.84 58.2407 42.1333 57.494 44.88C56.8273 47.28 55.2807 48.8267 52.8807 49.4933C51.6273 49.84 49.334 50.08 45.814 50.24C42.3473 50.4267 39.174 50.5067 36.2407 50.5067L32.0007 50.6667C20.8273 50.6667 13.8673 50.24 11.1207 49.4933C8.72065 48.8267 7.17398 47.28 6.50732 44.88C6.16065 43.6267 5.92065 41.9467 5.76065 39.8133C5.57398 37.68 5.49398 35.84 5.49398 34.24L5.33398 32C5.33398 26.16 5.76065 21.8667 6.50732 19.12C7.17398 16.72 8.72065 15.1733 11.1207 14.5067C12.374 14.16 14.6673 13.92 18.1873 13.76C21.654 13.5733 24.8273 13.4933 27.7607 13.4933L32.0007 13.3333C43.174 13.3333 50.134 13.76 52.8807 14.5067C55.2807 15.1733 56.8273 16.72 57.494 19.12Z"
    fill="#28AE60" />
</svg>