<svg width="290" height="265" viewBox="0 0 290 265" fill="none" xmlns="http://www.w3.org/2000/svg">
<g clip-path="url(#clip0_1408_3023)">
<path d="M258.781 117.499C258.781 116.056 258.781 113.963 258.552 111.221C258.102 103.28 256.878 95.4106 254.901 87.7417C251.895 75.7745 247.114 64.4022 240.74 54.0592C232.511 40.5967 221.834 29.0481 209.346 20.1027C202.207 15.023 194.555 10.8257 186.534 7.59081C177.929 4.14442 168.959 1.85168 159.829 0.764853C157.498 0.447367 155.032 0.331917 152.674 0.144312L149.171 0H147.406C146.678 0 146.166 0 145.533 0L141.908 0.0865872C140.682 0.0865872 139.47 0.274193 138.257 0.36078C135.805 0.490661 133.379 0.894734 130.914 1.21222C125.96 1.99459 121.062 3.1373 116.254 4.63241C113.815 5.32511 111.43 6.26314 109.005 7.12901C107.819 7.59081 106.634 8.11033 105.434 8.57213L103.642 9.32255L101.891 10.174C82.0918 19.5189 65.2716 34.8527 53.4952 54.2927C41.7188 73.7327 35.4988 96.4327 35.5988 119.606C35.7756 140.888 41.3153 161.724 51.6329 179.914C52.8091 179.431 54.0103 179.022 55.2304 178.687C50.8357 170.525 47.3578 161.835 44.8689 152.797C43.4233 147.413 42.3381 141.925 41.6217 136.375C40.9395 130.815 40.6064 125.213 40.6246 119.606C40.7324 116.893 40.7189 113.833 40.9884 111.178C41.2579 108.523 41.5004 105.651 41.8508 102.866C42.6509 97.3587 43.8126 91.9191 45.327 86.5872C48.3881 75.983 52.853 65.9036 58.5854 56.6569C69.8142 38.6114 85.5856 24.3414 104.073 15.4991L105.744 14.6765L107.442 13.955L110.851 12.5118C113.155 11.6893 115.419 10.7801 117.736 10.1307C122.312 8.71943 126.971 7.63946 131.682 6.89811C134.026 6.59506 136.344 6.20541 138.675 6.07553C139.833 5.98895 140.992 5.85907 142.151 5.81577L145.6 5.77248H147.258H149.023L152.526 5.8735C154.789 6.07553 156.999 6.17655 159.263 6.49404C167.924 7.53239 176.432 9.71361 184.594 12.9881C205.709 21.5443 223.751 37.0438 236.132 57.263C242.165 67.1183 246.759 77.9023 249.754 89.2425C251.692 96.5374 252.911 104.03 253.392 111.596C253.634 114.223 253.594 116.243 253.661 117.585C253.729 118.927 253.661 119.649 253.661 119.649C253.661 119.649 253.661 120.371 253.661 121.756C253.661 123.141 253.661 125.263 253.473 127.817C252.794 140.81 250.032 153.58 245.308 165.569C243.562 170.073 241.537 174.445 239.244 178.658C240.599 178.718 241.949 178.868 243.286 179.106C248.149 170.447 251.927 161.141 254.524 151.427C256.604 143.794 257.927 135.948 258.472 128.019C258.741 125.219 258.714 123.228 258.795 121.814C258.876 120.399 258.781 119.779 258.781 119.779C258.781 119.779 258.781 118.913 258.781 117.499Z" fill="#FCFCFC"/>
<path d="M208.684 46.0788L208.253 45.9633H208.051H207.929H207.66L207.188 45.819L206.892 45.7036C206.821 45.6783 206.753 45.6444 206.69 45.6026V45.2851C206.703 45.1652 206.703 45.0442 206.69 44.9243V44.5202C206.69 44.2605 206.69 44.1306 206.582 44.1017V43.3513C206.594 43.2217 206.594 43.0912 206.582 42.9617C206.38 43.1764 206.199 43.4134 206.043 43.6688C205.875 43.9277 205.722 44.1976 205.585 44.4769C205.482 44.6678 205.4 44.8713 205.342 45.083C205.342 45.2706 205.342 45.3139 205.248 45.4294H205.1C204.922 45.2889 204.721 45.1861 204.507 45.1263L204.17 44.9965L203.537 44.7367L202.701 44.4336C202.378 44.3326 202.189 44.2893 202.189 44.3326L202.405 44.5347C202.594 44.7468 202.812 44.9268 203.052 45.0686L203.847 45.9633C204.02 46.1496 204.182 46.3472 204.332 46.555L204.44 46.7138L204.278 46.9014L204.089 47.1467L203.914 47.4209L203.699 47.7384C203.618 47.8827 203.564 47.9837 203.604 48.0126L203.389 48.3156H203.321L203.038 48.6764C202.946 48.82 202.842 48.9551 202.728 49.0805C202.728 49.0805 202.728 49.0805 202.917 49.0805C203.431 48.7717 203.962 48.4969 204.507 48.2579L204.898 48.0559L205.14 47.8971L205.248 47.8105L205.329 47.926C205.585 48.2526 205.824 48.5947 206.043 48.9506L206.393 49.5134C206.393 49.5134 206.501 49.6866 206.542 49.701L206.703 49.8309L206.784 49.9608C206.784 50.0762 206.878 50.0474 206.932 49.8886V49.7587C206.932 49.6722 206.932 49.5711 206.932 49.5134C206.976 49.3044 206.976 49.0875 206.932 48.8784V48.128V47.7384V47.6229L207.161 47.5219L207.714 47.291L207.997 47.1611L208.441 46.9591C208.697 46.8292 208.953 46.7138 209.25 46.5983L209.668 46.4251L208.684 46.0788Z" fill="#FCFCFC"/>
<path d="M69.4978 76.8291H68.4603C68.2944 76.8435 68.1276 76.8435 67.9617 76.8291H67.6384H67.4228C67.4228 76.7425 67.4228 76.6847 67.3419 76.5116C67.2611 76.3384 67.2611 76.2951 67.2341 76.1796L67.0994 75.8044C67.0051 75.5591 66.9377 75.4437 66.8838 75.4292L66.6548 74.7077C66.6689 74.5782 66.6689 74.4475 66.6548 74.318C66.5037 74.5772 66.3902 74.8594 66.3179 75.155C66.2236 75.4437 66.1023 75.9343 66.0754 76.0786C66.0556 76.2946 66.0556 76.5121 66.0754 76.728C66.0822 76.8482 66.0822 76.9687 66.0754 77.0888H65.9272C65.7227 76.9976 65.5014 76.9581 65.2804 76.9734H64.9166H64.3642H63.4749C63.1515 76.9734 62.9629 76.9734 62.9629 76.9734L63.2324 77.0888C63.4695 77.2338 63.7231 77.3454 63.9869 77.4207L64.9975 78.0413C65.2155 78.1604 65.4229 78.3005 65.6173 78.4598L65.7655 78.5752L65.6577 78.8061L65.5364 79.1092C65.5364 79.2102 65.469 79.3112 65.4421 79.4122L65.3208 79.7874C65.3208 79.9462 65.3208 80.0616 65.3208 80.0761L65.1861 80.4369C65.1157 80.5752 65.0571 80.7201 65.0109 80.8698C64.9539 81.038 64.8864 81.2019 64.8088 81.3604C64.8088 81.3604 64.8088 81.3604 64.9705 81.2594C65.3967 80.8135 65.8466 80.3943 66.3179 80.0039C66.432 79.9057 66.54 79.7997 66.6413 79.6864L66.8299 79.47L66.9108 79.3545H67.032C67.3285 79.6143 67.6653 79.8452 67.9752 80.1338L68.4603 80.5812C68.5165 80.6386 68.58 80.6872 68.6489 80.7255H68.8375L68.9453 80.8409C69.0262 80.9275 69.0801 80.8409 69.0801 80.7255C69.0867 80.6776 69.0867 80.629 69.0801 80.5812C69.0733 80.4947 69.0733 80.4078 69.0801 80.3214C69.0802 80.1078 69.0389 79.8965 68.9588 79.7009L68.4603 79.2391L68.339 78.8927V78.7917L68.5276 78.6185L69.0127 78.2289L69.2418 78.0268L69.6056 77.6949C69.8234 77.4877 70.0529 77.2949 70.2927 77.1177L70.643 76.8146C70.2254 76.7858 69.8346 76.8002 69.4978 76.8291Z" fill="#FCFCFC"/>
<path d="M104.37 68.2595H103.413C103.265 68.2595 103.103 68.2595 102.968 68.2595H102.672H102.483V67.9709C102.462 67.8681 102.435 67.7669 102.402 67.6679L102.308 67.3071C102.308 67.0762 102.187 66.9607 102.146 66.9463L101.998 66.2825C102.009 66.1625 102.009 66.0417 101.998 65.9217C101.84 66.146 101.712 66.394 101.621 66.6577C101.527 66.903 101.378 67.3359 101.338 67.4658C101.283 67.6535 101.246 67.8471 101.23 68.0431C101.23 68.2163 101.23 68.2595 101.23 68.3894H101.095C100.915 68.2937 100.717 68.2396 100.516 68.2307H100.193H99.6941L98.8856 68.1152C98.5892 68.1152 98.4141 68.1152 98.4141 68.1152C98.4943 68.1558 98.571 68.2041 98.6431 68.2595C98.8516 68.4079 99.0783 68.5245 99.3168 68.6059L100.179 69.2697C100.368 69.4 100.544 69.5498 100.705 69.7171L100.826 69.8325L100.732 70.0346L100.597 70.2943L100.476 70.5685L100.341 70.886C100.341 71.0303 100.26 71.1458 100.341 71.1458L100.193 71.4633C100.193 71.5787 100.044 71.7375 100.004 71.8385C99.9471 71.9862 99.8748 72.1266 99.7884 72.257C99.7884 72.257 99.7884 72.257 99.9366 72.257C100.367 71.8837 100.817 71.5368 101.284 71.2179L101.607 70.9726L101.796 70.785L101.877 70.684L101.971 70.7706C102.227 71.0159 102.51 71.2612 102.78 71.5499L103.184 71.9972C103.231 72.0536 103.285 72.1023 103.346 72.1415H103.507L103.602 72.2426C103.602 72.3291 103.709 72.2426 103.736 72.156V72.0117C103.722 71.9354 103.722 71.857 103.736 71.7808C103.744 71.5893 103.717 71.3979 103.655 71.2179L103.494 70.5541L103.399 70.2222V70.1356L103.588 69.9913L104.046 69.6738L104.275 69.5151C104.396 69.4285 104.504 69.3275 104.639 69.2409C104.774 69.1543 105.057 68.9378 105.299 68.7646L105.636 68.5337C105.03 68.2884 104.679 68.2595 104.37 68.2595Z" fill="#FCFCFC"/>
<path d="M130.779 49.8742L130.199 49.9752H129.957H129.782H129.445L128.798 50.0474H128.084C128.048 49.9142 128.003 49.784 127.949 49.6577C127.895 49.5141 127.832 49.3743 127.761 49.2392L127.545 48.7774C127.397 48.4744 127.289 48.3301 127.222 48.3301L126.737 47.6229C126.71 47.4558 126.669 47.2916 126.615 47.1323C126.465 47.4982 126.352 47.8805 126.278 48.2723C126.278 48.662 126.117 49.297 126.09 49.4846C126.056 49.7672 126.056 50.0533 126.09 50.336C126.09 50.5813 126.09 50.6391 126.09 50.8122H125.901C125.621 50.7569 125.333 50.7569 125.052 50.8122H124.594H123.867L122.721 50.8988C122.29 50.8988 122.048 50.8988 122.061 51.0431L122.411 51.173C122.739 51.3209 123.083 51.4228 123.435 51.4761L124.783 52.1399C125.076 52.2664 125.356 52.426 125.618 52.6161L125.82 52.7316C125.82 52.8326 125.82 52.9336 125.726 53.0346L125.605 53.4387C125.605 53.583 125.605 53.7129 125.51 53.8572C125.416 54.0015 125.51 54.2036 125.416 54.3479C125.322 54.4922 125.349 54.7231 125.416 54.7231L125.281 55.2137C125.281 55.4014 125.133 55.6467 125.106 55.791C125.055 56.0111 124.992 56.2279 124.918 56.4404C124.918 56.4404 124.918 56.4404 125.12 56.2817C125.632 55.7217 126.171 55.1918 126.737 54.6942C126.873 54.5554 126.999 54.4058 127.114 54.2469L127.329 53.9438L127.424 53.7851L127.585 53.8716C128.003 54.1458 128.461 54.4056 128.933 54.7375L129.606 55.2426C129.686 55.3017 129.772 55.3502 129.863 55.3869H130.119L130.28 55.5024C130.388 55.6082 130.442 55.5505 130.442 55.3292C130.442 55.3292 130.442 55.1993 130.442 55.1416C130.429 55.0314 130.429 54.9199 130.442 54.8097C130.409 54.5356 130.326 54.271 130.199 54.0304L129.782 53.1501L129.58 52.7171V52.6017L129.822 52.3564L130.375 51.7791L130.644 51.4905L131.089 50.9998C131.345 50.7112 131.587 50.4515 131.897 50.1484L132.315 49.7299L130.779 49.8742Z" fill="#FCFCFC"/>
<path d="M183.219 63.8003H181.979H181.373H180.996C180.906 63.8143 180.816 63.8143 180.726 63.8003C180.734 63.6754 180.734 63.55 180.726 63.4251C180.705 63.2818 180.669 63.1415 180.618 63.0066L180.497 62.5304C180.416 62.2273 180.336 62.0686 180.268 62.0541L180.08 61.1738C180.089 61.0152 180.089 60.8562 180.08 60.6976C179.883 61.0038 179.721 61.3331 179.594 61.6789C179.46 62.0108 179.271 62.5881 179.217 62.7613C179.134 63.0075 179.085 63.265 179.069 63.5261C179.069 63.757 179.069 63.8147 179.069 63.9735H178.894C178.656 63.8412 178.394 63.7672 178.126 63.757H177.695L177.034 63.656L175.97 63.5117C175.566 63.5117 175.337 63.5117 175.35 63.5117L175.647 63.6849C175.922 63.8845 176.221 64.0446 176.536 64.1611L177.681 65.027C177.928 65.2054 178.162 65.4032 178.382 65.6186L178.543 65.7774L178.395 66.0371L178.234 66.3835L178.072 66.7443L177.897 67.1772C177.897 67.3504 177.775 67.5091 177.897 67.5236L177.695 67.9421C177.614 68.1152 177.493 68.3173 177.439 68.4472C177.362 68.6444 177.267 68.8329 177.156 69.01C177.156 69.01 177.156 69.01 177.358 68.9089C177.903 68.3941 178.474 67.9123 179.069 67.4658L179.487 67.1339L179.743 66.8886L179.85 66.7587L179.985 66.8597C180.322 67.2061 180.699 67.5236 181.05 67.8988L181.575 68.4904C181.636 68.5665 181.709 68.6301 181.791 68.678L182.006 68.7791L182.141 68.9234V68.8368C182.222 68.9522 182.289 68.9234 182.316 68.7213C182.323 68.6638 182.323 68.6057 182.316 68.5482C182.302 68.4429 182.302 68.3359 182.316 68.2307C182.334 67.9762 182.302 67.7206 182.222 67.4803L181.993 66.6L181.885 66.1526V66.0371L182.155 65.864L182.761 65.4455L183.057 65.229L183.542 64.8682C183.822 64.6384 184.115 64.4264 184.418 64.2332L184.876 63.9302L183.219 63.8003Z" fill="#FCFCFC"/>
<path d="M82.2716 50.1628L81.6518 50.2638H81.3823H81.1936L80.8298 50.336C80.5983 50.3838 80.3643 50.4176 80.1292 50.437H79.3746C79.3274 50.2947 79.2734 50.155 79.213 50.0185C79.1518 49.8637 79.0798 49.7142 78.9974 49.5711L78.7548 49.0661C78.5932 48.7341 78.4719 48.5898 78.3911 48.5898L77.9734 47.6374C77.9362 47.4557 77.8867 47.2773 77.8251 47.1034C77.6653 47.5056 77.5522 47.9272 77.4883 48.3589C77.4075 48.763 77.3266 49.4701 77.2997 49.6722C77.266 49.979 77.266 50.289 77.2997 50.5958C77.2997 50.8555 77.2997 50.9277 77.2997 51.1008H77.0976C76.7911 51.0311 76.4743 51.0311 76.1679 51.1008C76.0018 51.111 75.8354 51.111 75.6693 51.1008H74.8878L73.6482 51.2163C73.1766 51.2163 72.9206 51.3173 72.9341 51.3895L73.3248 51.5194C73.6786 51.6763 74.0501 51.783 74.4297 51.8368L75.9253 52.5151C76.2759 52.7666 76.5971 53.0621 76.882 53.3954L77.111 53.5253C77.111 53.6407 77.111 53.7562 77.0032 53.8572L76.882 54.3046C76.882 54.4489 76.882 54.5932 76.7877 54.7519C76.6933 54.9107 76.7877 55.1272 76.6933 55.2859C76.599 55.4446 76.6933 55.7044 76.6933 55.69L76.5586 56.2239L76.4912 56.2961C76.4912 56.5125 76.343 56.7867 76.3161 56.9311C76.2685 57.1727 76.2009 57.4094 76.114 57.6382H76.1813C76.1813 57.6382 76.1813 57.6382 76.3969 57.465C76.9041 56.7635 77.4484 56.0937 78.0273 55.4591C78.1723 55.3056 78.3074 55.1417 78.4315 54.9684L78.6605 54.6221L78.7548 54.4489L78.93 54.5355C79.4016 54.8385 79.9001 55.0983 80.3852 55.4446L81.1263 55.9786C81.2116 56.0481 81.3073 56.1018 81.4092 56.1373H81.6787L81.8539 56.2672V56.1806C81.9751 56.2816 82.0425 56.1806 82.029 55.993C82.0155 55.8054 82.029 55.8487 82.029 55.791C82.0099 55.6716 82.0099 55.5496 82.029 55.4302C81.987 55.134 81.8908 54.8496 81.7461 54.5932L81.288 53.6407L80.9242 53.2511V53.1212L81.1802 52.847L81.773 52.2121L82.0694 51.8946L82.541 51.3606C82.8076 51.0267 83.0958 50.7133 83.4034 50.4226L83.848 49.9464C83.2282 49.9752 82.6892 50.0618 82.2716 50.1628Z" fill="#FCFCFC"/>
<path d="M224.503 73.2094L223.991 73.0651H223.762H223.6L223.29 72.993C223.093 72.9478 222.899 72.885 222.711 72.8054L222.347 72.661L222.104 72.5456C222.104 72.4302 222.104 72.358 222.104 72.156C222.104 71.9539 222.104 71.8673 222.104 71.723V71.2324C222.104 70.9149 222.104 70.7561 221.983 70.7128V69.8181C222.02 69.662 222.042 69.5025 222.051 69.3419C221.805 69.6019 221.584 69.8871 221.39 70.1933C221.188 70.4964 220.892 71.0015 220.811 71.1602C220.687 71.3881 220.588 71.6302 220.515 71.8818C220.447 72.0982 220.447 72.1704 220.393 72.3003H220.218C220.011 72.1135 219.767 71.9801 219.504 71.9106L219.1 71.7519L218.466 71.5066L217.456 71.1313C217.079 71.0015 216.85 70.9437 216.85 71.0015L217.119 71.2612C217.347 71.5129 217.606 71.7312 217.887 71.9106L218.844 73.0074C219.055 73.2265 219.245 73.4683 219.41 73.729L219.544 73.9166L219.356 74.1475L219.113 74.4505L218.898 74.768C218.817 74.8835 218.709 75.0278 218.642 75.1432C218.574 75.2587 218.466 75.4463 218.52 75.4751L218.237 75.8359C218.116 75.9658 217.968 76.1534 217.887 76.2544C217.767 76.4271 217.637 76.5911 217.496 76.7451C217.496 76.7451 217.496 76.7451 217.712 76.7451C218.339 76.3926 218.982 76.0747 219.639 75.7926C219.804 75.7244 219.966 75.6473 220.124 75.5617L220.42 75.3741L220.555 75.2731L220.663 75.403C220.932 75.8215 221.229 76.2111 221.498 76.6585L221.902 77.3656C221.954 77.4434 222.013 77.5158 222.077 77.5821L222.266 77.7408L222.374 77.8996V77.813C222.374 77.9429 222.509 77.9284 222.576 77.813V77.6398C222.576 77.5388 222.576 77.4233 222.657 77.3512C222.707 77.0991 222.707 76.8384 222.657 76.5863V75.6627V75.2154V75.0422L222.94 74.9123L223.614 74.6526L223.95 74.5082L224.489 74.2485L225.473 73.8444L225.985 73.6424C225.365 73.4403 224.907 73.3105 224.503 73.2094Z" fill="#FCFCFC"/>
<path fill-rule="evenodd" clip-rule="evenodd" d="M124.714 35.977C129.929 34.4617 132.34 29.1077 130.872 23.2631C129.524 17.6349 124.957 14.2436 119.958 15.6867C114.568 17.2453 112.48 22.657 113.962 28.5593C115.309 33.9133 119.486 37.5211 124.714 35.977ZM120.672 19.0492C123.838 18.1256 126.156 20.1027 127.274 24.533C128.325 28.7181 127.139 31.9795 124.256 32.8021C120.914 33.769 118.759 31.5754 117.681 27.2894C116.603 23.0033 117.533 19.9295 120.618 19.0492H120.672Z" fill="#FCFCFC"/>
<path fill-rule="evenodd" clip-rule="evenodd" d="M135.965 32.4702L140.088 32.1527C139.831 30.8787 139.665 29.5859 139.589 28.2851L139.468 25.9761L141.449 25.8463C145.289 25.6009 147.418 23.3785 147.175 18.9626C146.96 15.0517 144.588 12.9881 140.748 13.1901L135.035 13.6086C135.682 14.1859 136.544 31.9795 135.965 32.4702ZM140.344 16.0042C142.54 15.8599 144.197 16.9855 144.386 19.4821C144.575 21.9787 143.039 23.1476 140.802 23.2631H139.374L138.754 16.0475L140.344 16.0042Z" fill="#FCFCFC"/>
<path fill-rule="evenodd" clip-rule="evenodd" d="M178.49 38.7478L182.276 40.5084C182.603 39.2503 183.018 38.0203 183.516 36.8284L184.392 34.7792L186.197 35.6595C189.701 37.3479 192.557 36.4388 194.282 32.398C195.777 28.848 194.578 25.8174 191.075 24.129L185.807 21.6468C186.17 22.3972 179.285 38.589 178.49 38.7478ZM189.512 26.3369C191.52 27.3038 192.503 29.1221 191.547 31.4023C190.59 33.6824 188.744 33.971 186.723 32.9608L185.375 32.3114L187.949 25.6154L189.512 26.3369Z" fill="#FCFCFC"/>
<path fill-rule="evenodd" clip-rule="evenodd" d="M104.558 44.0729L108.209 42.0092C107.503 40.9478 106.868 39.8338 106.309 38.6756L105.366 36.6697L107.131 35.7028C110.554 33.8267 111.685 30.8828 109.826 26.9286C108.169 23.4507 105.218 22.5992 101.742 24.432L96.6484 27.3182C97.4703 27.4193 104.895 43.3657 104.558 44.0729ZM102.483 27.1018C104.45 26.0339 106.39 26.3514 107.441 28.5449C108.492 30.7384 107.562 32.499 105.568 33.5525L104.221 34.2164L100.96 27.8811L102.483 27.1018Z" fill="#FCFCFC"/>
<path fill-rule="evenodd" clip-rule="evenodd" d="M152.337 25.1391L158.953 25.2979L159.627 21.6324C159.044 21.8724 158.414 21.9518 157.794 21.8633L151.057 21.7622L150.316 25.4422C150.975 25.2457 151.654 25.1438 152.337 25.1391Z" fill="#FCFCFC"/>
<path fill-rule="evenodd" clip-rule="evenodd" d="M167.737 35.5585C172.237 36.9006 175.107 34.9379 176.482 29.6272C176.482 29.6272 179.513 19.5254 180.227 19.2656L175.808 17.8225C176.199 18.4142 173.248 28.9201 173.248 28.9201C172.385 32.2682 170.971 33.5092 168.707 32.8454C166.16 32.0805 165.554 30.4642 166.47 26.9142C166.47 26.9142 169.273 16.4371 169.92 16.1629L165.716 14.7198C166.187 15.3259 163.331 25.6298 163.331 25.6298C161.957 31.0559 163.587 34.3318 167.737 35.5585Z" fill="#FCFCFC"/>
<path fill-rule="evenodd" clip-rule="evenodd" d="M17.367 230.639C17.8556 230.644 18.3296 230.818 18.7182 231.136C19.1068 231.453 19.389 231.897 19.5228 232.4C19.7249 232.847 19.7384 233.396 20.0348 233.396C20.5468 233.396 21.463 233.396 21.463 232.804C21.4826 231.982 21.2966 231.17 20.9241 230.452C20.604 229.873 20.1542 229.389 19.6154 229.044C19.0766 228.699 18.4658 228.503 17.8386 228.475C16.7202 228.475 14.2006 228.388 12.678 229.918C11.1555 231.447 10.3336 234.767 10.3336 237.48C10.2865 238.416 10.4175 239.353 10.7186 240.234C11.0197 241.114 11.4846 241.92 12.0852 242.603C13.2366 243.705 14.7182 244.329 16.2621 244.363C17.0564 244.371 17.8438 244.204 18.5759 243.874C19.308 243.544 19.9695 243.058 20.5199 242.444C21.6037 241.224 22.2193 239.611 22.2445 237.927C22.2445 236.874 22.0559 236.801 21.6517 236.801C20.7759 236.801 19.7384 237.047 19.7114 237.436C19.7172 237.708 19.69 237.98 19.6306 238.245C19.4285 238.836 19.0782 239.89 18.8626 240.366C18.5477 240.972 18.081 241.472 17.5152 241.809C16.9675 242.001 16.3937 242.094 15.8175 242.083C15.2605 242.088 14.7106 241.95 14.2141 241.679C13.6008 241.18 13.1334 240.505 12.8667 239.731C12.6032 238.919 12.4666 238.065 12.4624 237.206C12.4429 235.601 12.9163 234.034 13.8098 232.746C14.2212 232.136 14.7534 231.631 15.3684 231.267C15.9833 230.902 16.6657 230.688 17.367 230.639Z" fill="#FCFCFC"/>
<path fill-rule="evenodd" clip-rule="evenodd" d="M37.0659 227.522H36.1632C34.8207 227.762 33.5793 228.437 32.606 229.456C31.6798 230.354 30.9328 231.444 30.4098 232.66C29.8125 234.067 29.4871 235.588 29.4531 237.133C29.5041 238.603 30.0062 240.013 30.8814 241.145C31.2981 241.781 31.8326 242.318 32.4516 242.722C33.0705 243.127 33.7606 243.391 34.4789 243.497C34.8871 243.533 35.2979 243.489 35.6916 243.368C35.961 243.368 36.1766 243.368 36.4865 243.368C37.4387 243.2 38.3249 242.739 39.0377 242.043C39.7504 241.346 40.259 240.443 40.5018 239.442C40.9549 237.682 41.1325 235.853 41.0273 234.031C41.0044 232.429 40.5352 230.871 39.6799 229.557C39.0826 228.547 38.1476 227.819 37.0659 227.522ZM38.4133 239.067C38.1645 239.465 37.8703 239.829 37.5375 240.149C37.1673 240.634 36.7034 241.027 36.1776 241.301C35.6519 241.575 35.077 241.724 34.4924 241.737C34.0432 241.611 33.6251 241.381 33.2668 241.065C32.9086 240.748 32.6187 240.352 32.4174 239.904C31.8714 238.929 31.5913 237.809 31.609 236.672C31.5988 235.284 31.8225 233.905 32.2692 232.602C32.5572 232.082 32.9475 231.636 33.4129 231.295C33.8783 230.953 34.4076 230.725 34.964 230.625C35.4644 230.634 35.9546 230.779 36.3883 231.046C36.822 231.314 37.185 231.695 37.4432 232.155C38.0556 233.155 38.4573 234.287 38.6202 235.471C38.783 236.654 38.7033 237.862 38.3864 239.009L38.4133 239.067Z" fill="#FCFCFC"/>
<path fill-rule="evenodd" clip-rule="evenodd" d="M43.6414 235.661C43.7492 238.663 43.9243 241.102 43.9648 241.809C43.8747 242.232 43.8747 242.671 43.9648 243.093C44.0035 243.17 44.0486 243.242 44.0995 243.31C46.188 243.31 48.2629 243.31 50.3379 243.425C51.0931 242.904 51.7119 242.185 52.1362 241.337C52.5605 240.489 52.7763 239.539 52.7632 238.576C52.7203 236.955 52.1095 235.409 51.0521 234.247C50.0146 233.56 48.808 233.223 47.5892 233.28C47.1581 233.28 47.2255 233.367 46.6056 233.439C46.6056 233.251 46.6056 231.996 46.6056 231.736C46.6056 231.082 46.6056 230.577 46.6056 230.221C47.3737 230.221 48.0339 230.221 48.9636 230.221C49.8933 230.221 51.591 230.019 51.7796 230.019C51.9411 230.033 52.1033 230.033 52.2647 230.019C52.4533 230.019 52.4129 229.889 52.4533 229.485C52.4476 229.149 52.3501 228.823 52.1729 228.546C51.9957 228.268 51.7465 228.053 51.4563 227.926C51.2003 227.926 50.0011 228.013 49.0579 228.013C48.1147 228.013 47.9396 227.897 46.5518 227.897C45.649 227.897 44.854 227.897 44.369 227.97H44.0725C43.6818 227.97 43.4797 227.97 43.4797 228.561V229.369C43.4797 229.47 43.4797 229.557 43.4797 229.615C43.4651 229.783 43.4651 229.952 43.4797 230.12C43.5471 231.981 43.5605 233.973 43.6414 235.661ZM46.4709 236.166C46.843 235.809 47.3189 235.6 47.8183 235.575C48.4096 235.613 48.9873 235.78 49.516 236.065C49.913 236.347 50.2275 236.743 50.423 237.208C50.6186 237.672 50.6872 238.187 50.6209 238.692C50.649 239.009 50.6123 239.329 50.5133 239.629C50.4144 239.93 50.2555 240.203 50.0478 240.431C49.84 240.659 49.5884 240.836 49.3105 240.95C49.0325 241.063 48.7348 241.11 48.4381 241.088C47.2389 241.088 46.9425 240.929 46.6056 240.323C46.4633 239.931 46.3814 239.516 46.3631 239.096C46.3165 238.118 46.3526 237.137 46.4709 236.166ZM44.8136 230.524C44.9897 230.537 45.1626 230.581 45.3256 230.654C45.3551 231.134 45.3551 231.616 45.3256 232.097C45.3256 234.132 45.3256 234.247 45.3256 235.604C45.3256 237.206 45.3256 238.259 45.3256 239.688C45.3256 240.582 45.3256 241.982 45.3256 241.982H44.8136C44.6115 241.03 44.4498 237.133 44.342 234.016C44.342 232.573 44.2612 232.054 44.2612 230.495C44.4448 230.457 44.6343 230.467 44.8136 230.524Z" fill="#FCFCFC"/>
<path fill-rule="evenodd" clip-rule="evenodd" d="M57.0076 239.082C57.0076 240.063 56.765 241.968 56.8324 242.574C56.8324 242.733 56.9402 242.733 57.0345 242.863C57.1365 243.155 57.3029 243.418 57.5196 243.627C58.9882 243.627 60.4569 243.541 61.9255 243.526C62.5686 243.266 63.1724 242.907 63.7176 242.458C64.6224 241.581 65.1973 240.38 65.3345 239.082C65.4995 237.657 65.1893 236.216 64.4586 235.012C64.0796 234.446 63.5906 233.976 63.0254 233.632C62.4602 233.288 61.8321 233.079 61.1845 233.02C60.5959 233.023 60.0106 233.115 59.4463 233.295C59.4096 232.737 59.4096 232.178 59.4463 231.621C59.4463 229.802 59.608 229.528 59.5541 228.561C59.5541 228.2 59.5541 227.811 59.2846 227.609C59.1422 227.536 58.9838 227.506 58.8265 227.522C58.5553 227.466 58.2806 227.433 58.0046 227.421C57.3478 227.427 56.6932 227.505 56.0509 227.652C54.9056 227.854 54.5014 228.099 54.4071 228.33C54.3174 228.807 54.3174 229.297 54.4071 229.773C54.4744 230.221 54.6092 230.524 54.8787 230.639C55.3155 230.778 55.771 230.837 56.2261 230.812C56.5718 230.881 56.9289 230.836 57.2501 230.683C57.2501 231.491 57.2501 232.487 57.2501 233.251C57.0884 235.647 57.0614 237.133 57.0076 239.082ZM59.0691 237.249C59.0902 236.766 59.1352 236.284 59.2038 235.806C59.5839 235.586 60.0005 235.449 60.4299 235.402C60.8202 235.324 61.2223 235.35 61.6007 235.478C61.9791 235.607 62.3221 235.833 62.5992 236.138C62.9399 236.424 63.2083 236.797 63.38 237.223C63.5518 237.649 63.6215 238.114 63.5828 238.576C63.5691 239.38 63.2815 240.149 62.7744 240.741C62.0227 241.205 61.1757 241.463 60.3087 241.492C59.8061 241.549 59.2979 241.5 58.8131 241.347C58.8131 240.539 59.0152 238.49 59.0691 237.249Z" fill="#FCFCFC"/>
<path fill-rule="evenodd" clip-rule="evenodd" d="M67.3286 243.021C67.3286 243.541 67.3286 243.671 67.5846 243.671C68.3823 243.649 69.1784 243.581 69.9695 243.469C70.9268 243.401 71.8802 243.281 72.826 243.108C73.9982 242.877 75.6285 242.675 76.5987 242.386C77.178 242.199 77.4879 242.04 77.4879 241.838C77.4879 241.059 77.1242 239.067 76.7199 239.038C76.3157 239.009 74.0251 239.442 72.3139 239.76C71.4251 239.992 70.5256 240.175 69.6192 240.308C69.6192 239.659 69.6192 239.269 69.5383 238.591C69.4575 237.913 69.5383 236.874 69.5383 236.34C70.1312 236.224 71.3438 236.022 72.2331 235.878C73.9039 235.618 74.5641 235.719 75.0626 235.618C75.2647 235.618 75.5207 234.175 75.5342 233.713C75.5477 233.251 75.386 233.338 75.1704 233.352C74.7123 233.425 73.5536 233.54 72.0175 233.756C70.6701 233.944 69.4844 234.117 69.3227 234.117C69.267 233.527 69.2715 232.932 69.3362 232.342C69.3362 231.823 69.3362 231.303 69.3362 230.899C69.7404 230.899 70.6836 230.654 71.7211 230.495C72.7586 230.336 74.2811 230.019 75.2378 229.86C75.6636 229.839 76.0872 229.781 76.5044 229.687C76.7604 229.6 76.922 228.532 76.8816 227.926C76.8799 227.862 76.8663 227.8 76.8415 227.742C76.8166 227.684 76.7812 227.631 76.7372 227.588C76.6932 227.545 76.6416 227.512 76.5854 227.491C76.5292 227.47 76.4695 227.461 76.41 227.464C75.3419 227.496 74.276 227.588 73.2167 227.739L69.1745 228.244C67.8271 228.402 67.9619 228.374 67.3825 228.417C66.8031 228.46 67.0322 229.182 67.086 231.217C67.086 232.284 67.1804 233.886 67.2612 235.546C67.3421 236.874 67.4633 237.884 67.4498 238.923C67.3555 240.438 67.2477 242.155 67.3286 243.021Z" fill="#FCFCFC"/>
<path fill-rule="evenodd" clip-rule="evenodd" d="M91.0578 230.784C91.0578 229.716 91.2734 228.475 91.2734 228.114C91.2734 227.753 90.2629 227.58 89.697 227.58C89.1311 227.58 87.9723 230.221 87.0022 232.054C86.5658 232.909 86.0845 233.738 85.5605 234.536C84.967 233.784 84.4308 232.983 83.9571 232.14C82.8118 230.235 81.8417 228.388 80.9793 228.388C80.6694 228.388 80.4538 229.023 80.2113 231.274C80.1439 232.169 80.0092 233.771 79.8745 235.344C79.7397 237.191 79.6454 238.706 79.5107 240.034C79.349 241.708 79.2951 242.415 79.2547 242.834C79.2142 243.252 79.4433 243.238 79.6993 243.238C80.1996 243.182 80.6923 243.066 81.168 242.891L81.7473 242.66C81.8956 242.588 82.0033 242.516 82.0033 242.3C82.0033 242.083 82.0033 241.232 82.0033 240.986C82.0033 240.38 82.165 238.822 82.2594 237.422C82.3671 235.733 82.421 233.612 82.4884 233.093C82.8391 233.545 83.1546 234.028 83.4316 234.536C84.3478 235.979 84.8464 237.104 85.4527 237.104C85.8165 237.104 86.6788 235.907 87.3121 234.94C87.9454 233.973 88.4574 233.107 88.8885 232.515L89.0098 232.79C88.929 233.915 88.8346 235.07 88.7403 236.195C88.5652 238.201 88.4574 241.578 88.3092 242.906C88.1744 243.988 89.7913 243.526 90.6402 243.526C90.6446 243.478 90.6446 243.43 90.6402 243.382C90.6402 243.151 90.6402 242.516 90.6402 241.939C90.6402 240.135 90.7345 238.504 90.7884 237.018C90.8557 234.189 90.977 232.342 91.0578 230.784ZM81.6261 232.775C81.6261 234.059 81.6261 235.661 81.5183 236.975C81.5183 237.797 81.4105 238.836 81.3431 239.76C81.2488 240.9 81.168 241.347 81.1141 241.795C80.8699 241.896 80.6047 241.926 80.346 241.881C80.346 241.188 80.346 240.438 80.4943 238.822C80.6425 237.205 80.7907 234.998 80.9389 233.049C80.9763 231.989 81.1117 230.935 81.3431 229.903C81.5356 230.131 81.6946 230.389 81.8147 230.668C81.7339 231.231 81.6261 231.75 81.5857 232.775H81.6261Z" fill="#FCFCFC"/>
<path fill-rule="evenodd" clip-rule="evenodd" d="M101.473 243.605H102.901C103.319 243.533 103.642 243.432 103.642 243.317C103.642 242.696 103.642 242.379 103.763 241.152C103.763 239.42 103.925 236.909 104.019 234.572C104.1 232.58 104.181 230.949 104.343 229.867C104.409 229.311 104.409 228.749 104.343 228.193C104.339 228.123 104.311 228.057 104.263 228.008C104.216 227.96 104.152 227.933 104.087 227.933C103.804 227.933 103.386 228.092 103.063 228.063H101.715C101.352 228.063 101.284 229.708 101.244 230.545C101.244 231.988 101.15 233.634 101.096 234.471L99.0611 234.586C98.1583 234.586 97.4711 234.673 96.7705 234.658C96.6896 233.215 96.6223 231.18 96.5819 230.184C96.5414 229.189 96.5818 228.741 96.0698 228.741C95.7672 228.685 95.4607 228.656 95.1536 228.655C94.8294 228.671 94.5082 228.729 94.197 228.828C93.9005 228.915 93.6445 229.578 93.6445 229.824C93.6445 231.267 93.7793 232.797 93.8332 234.701C93.8871 236.606 93.8332 237.415 93.8332 239.117C93.8332 240.315 93.8332 241.268 93.8332 242.191C93.8332 242.711 93.8332 242.826 93.914 243.144C93.9949 243.461 94.0487 243.562 94.197 243.62H94.3182C94.6012 243.62 96.0968 243.23 96.2181 243.23C96.6088 243.23 96.6223 242.696 96.7031 242.018C96.7526 240.994 96.7526 239.968 96.7031 238.944C96.7031 238.8 96.7031 237.948 96.7031 237.415C97.2017 237.415 98.1179 237.415 99.0206 237.415C99.5461 237.415 99.8426 237.313 100.368 237.285H101.042C101.042 238.814 100.826 240.993 100.853 242.292C100.869 242.544 100.932 242.791 101.039 243.016C101.145 243.242 101.293 243.442 101.473 243.605Z" fill="#FCFCFC"/>
<path fill-rule="evenodd" clip-rule="evenodd" d="M118.234 228.734C118.234 228.633 118.234 228.504 118.234 228.475C117.911 228.475 117.816 228.345 117.412 228.301C116.888 228.224 116.37 228.104 115.863 227.941C115.58 227.941 115.634 228.431 115.607 228.835C115.607 229.615 115.607 230.279 115.607 231.231C115.607 232.588 115.607 233.352 115.499 234.709C115.391 236.065 115.499 237.48 115.351 238.634C115.203 239.789 115.162 242.069 115.162 242.617C115.162 243.166 115.256 243.339 115.62 243.425C115.984 243.512 116.173 243.425 116.442 243.425C116.712 243.425 117.075 243.656 117.278 243.599C117.349 243.581 117.414 243.539 117.462 243.479C117.511 243.42 117.54 243.345 117.547 243.267C117.635 242.646 117.685 242.019 117.695 241.391C117.79 239.471 117.938 236.037 118.059 234.305C118.18 232.573 118.059 232.386 118.126 231.144C118.22 230.345 118.256 229.54 118.234 228.734Z" fill="#FCFCFC"/>
<path fill-rule="evenodd" clip-rule="evenodd" d="M107.105 239.312C107.105 240.308 106.957 242.199 107.105 242.819C107.105 242.978 107.213 242.978 107.307 243.108C107.415 243.313 107.567 243.486 107.752 243.613H112.683C113.001 243.496 113.298 243.32 113.559 243.093C114.408 242.203 114.892 240.989 114.906 239.717C115.057 238.382 114.73 237.036 113.99 235.95C113.71 235.414 113.323 234.951 112.857 234.592C112.392 234.233 111.859 233.987 111.295 233.872C111.057 233.809 110.813 233.78 110.568 233.785C110.155 233.755 109.741 233.755 109.328 233.785C109.328 233.381 109.328 232.342 109.328 231.621C109.328 230.899 109.328 230.538 109.328 229.86C109.328 229.182 109.328 229.095 109.328 228.561C109.328 228.027 109.328 227.811 109.018 227.609C108.874 227.539 108.718 227.505 108.56 227.508H108.264H107.725C107.536 227.609 107.294 227.724 107.294 228.013V228.316C107.207 228.66 107.153 229.013 107.132 229.369C107.107 229.551 107.146 229.736 107.24 229.889C107.24 230.928 107.159 232.212 107.145 233.324C107.145 235.618 107.105 237.379 107.105 239.312ZM109.113 238.259C109.113 236.628 109.113 236.816 109.22 236.138C109.383 236.051 109.565 236.016 109.746 236.037C110.143 235.94 110.557 235.955 110.947 236.082C111.337 236.208 111.689 236.441 111.969 236.758C112.375 237.193 112.676 237.728 112.845 238.317C112.997 238.647 113.045 239.022 112.98 239.385C112.966 239.96 112.793 240.518 112.481 240.987C112.023 241.549 111.309 241.52 110.514 241.593C110.062 241.658 109.603 241.619 109.166 241.477C109.14 240.712 109.086 239.558 109.113 238.259ZM107.873 234.391C107.873 232.27 107.967 229.788 108.021 228.98H108.277C108.394 229.007 108.508 229.05 108.614 229.11C108.614 229.268 108.614 229.86 108.614 230.336C108.614 231.318 108.614 231.866 108.614 232.862C108.614 233.857 108.614 234.305 108.614 235.156C108.614 236.008 108.614 236.599 108.614 237.422C108.614 239.024 108.614 240.438 108.614 241.52C108.393 241.505 108.183 241.408 108.021 241.246C108.021 240.842 108.021 240.481 108.021 239.991C107.738 238.115 107.873 236.556 107.873 234.391Z" fill="#FCFCFC"/>
<path fill-rule="evenodd" clip-rule="evenodd" d="M132.355 230.784C132.355 229.716 132.57 228.475 132.57 228.114C132.57 227.753 131.573 227.58 130.994 227.58C130.414 227.58 129.269 230.221 128.299 232.054C127.866 232.908 127.389 233.737 126.871 234.536C126.273 233.785 125.732 232.984 125.254 232.14C124.122 230.235 123.138 228.388 122.276 228.388C121.966 228.388 121.751 229.023 121.508 231.274C121.508 232.169 121.306 233.771 121.185 235.344C121.037 237.191 120.942 238.706 120.821 240.034C120.646 241.708 120.592 242.415 120.565 242.834C120.538 243.252 120.74 243.238 120.996 243.238C121.497 243.184 121.989 243.068 122.465 242.891L123.058 242.66C123.192 242.588 123.314 242.516 123.314 242.3C123.314 242.083 123.314 241.232 123.314 240.986C123.314 240.38 123.475 238.822 123.57 237.422C123.677 235.733 123.731 233.612 123.812 233.093C124.154 233.549 124.465 234.031 124.742 234.536C125.658 235.979 126.089 237.104 126.763 237.104C127.127 237.104 127.989 235.907 128.636 234.94C129.283 233.973 129.768 233.107 130.212 232.515C130.24 232.61 130.276 232.702 130.32 232.79C130.239 233.915 130.158 235.07 130.064 236.195C129.875 238.201 129.768 240.236 129.619 241.578C129.498 242.66 129.417 243.021 129.363 243.425C129.363 243.555 129.606 243.671 129.727 243.7C129.848 243.728 130.28 243.555 130.643 243.555C131.007 243.555 131.411 243.555 131.789 243.656C131.897 243.656 131.964 243.656 132.004 243.382C132.045 243.108 132.004 242.516 132.004 241.939C132.004 240.135 132.099 238.504 132.153 237.018C132.126 234.189 132.287 232.342 132.355 230.784Z" fill="#FCFCFC"/>
<path fill-rule="evenodd" clip-rule="evenodd" d="M145.249 230.697C145.249 230.235 145.33 230.076 145.344 229.615C145.357 229.153 144.778 228.879 144.454 229.023C144.131 229.167 143.713 229.629 142.986 230.654C142.258 231.678 140.83 233.713 139.995 234.983C138.822 236.715 137.906 238.273 137.623 238.504C137.717 236.7 137.785 234.709 137.92 232.732C137.92 232.039 137.92 230.639 138.027 229.846C138.027 229.355 138.027 229.283 138.027 228.98C138.027 228.677 137.825 228.604 137.61 228.576C137.1 228.545 136.589 228.579 136.087 228.677C135.899 228.702 135.727 228.805 135.609 228.964C135.49 229.123 135.435 229.326 135.454 229.528C135.454 229.817 135.454 231.173 135.454 232.414C135.454 233.655 135.333 234.839 135.292 236.253C135.252 237.667 135.144 239.399 135.104 241.405C135.104 241.924 135.104 242.444 135.104 242.761C135.104 243.295 135.104 243.223 135.292 243.454C135.481 243.685 136.262 243.772 136.64 243.801C137.017 243.829 140.291 238.172 141.207 236.744C141.754 235.837 142.367 234.979 143.04 234.175C143.04 235.171 143.04 235.618 142.972 236.845C142.878 239.009 142.865 241.722 142.838 242.213C142.838 242.978 142.838 243.295 143.121 243.483C143.549 243.663 144.012 243.723 144.468 243.656C144.872 243.656 145.061 243.339 145.088 242.848C145.088 242.098 144.94 239.543 144.98 237.422C144.872 234.709 145.182 233.02 145.249 230.697ZM137.165 232.357C137.165 232.992 137.057 233.8 136.976 234.709C136.901 236.525 136.707 238.333 136.397 240.121C136.357 239.462 136.357 238.802 136.397 238.144C136.397 236.787 136.397 235.026 136.518 233.54C136.666 231.505 136.72 230.019 136.774 229.47C136.941 229.414 137.12 229.414 137.286 229.47C137.219 229.975 137.192 231.014 137.098 232.342L137.165 232.357Z" fill="#FCFCFC"/>
<path fill-rule="evenodd" clip-rule="evenodd" d="M164.046 230.899C164.356 230.582 164.652 230.726 164.679 230.365C164.706 230.004 163.642 228.605 163.238 228.605C162.208 229.487 161.301 230.522 160.543 231.678C159.75 232.799 158.847 233.825 157.848 234.738H157.727C157.727 233.93 157.808 232.616 157.875 231.678C158.023 229.817 158.171 228.691 158.171 228.244C158.171 227.796 158.023 227.941 157.659 227.883C157.063 227.822 156.463 227.822 155.867 227.883C154.857 227.883 154.924 229.499 154.87 230.769C154.816 232.039 154.682 233.915 154.614 235.921C154.547 237.927 154.614 239.37 154.466 240.525C154.466 241.246 154.318 242.098 154.277 242.559C154.277 243.281 154.978 243.599 155.342 243.599C155.706 243.599 156.231 243.454 156.554 243.454C156.878 243.454 157.066 243.642 157.255 243.599C157.444 243.555 157.713 243.093 157.727 242.776C157.74 242.458 157.552 241.087 157.578 239.298C157.578 238.779 157.578 238.129 157.659 237.494C158.271 238.173 158.821 238.912 159.303 239.702C160.097 240.887 160.956 242.019 161.877 243.093C162.21 243.42 162.638 243.614 163.089 243.642C163.44 243.642 164.113 243.368 164.073 242.776C164.041 242.561 163.952 242.361 163.817 242.199C163.616 241.88 163.396 241.576 163.157 241.29C162.685 240.64 161.984 239.846 161.472 239.168C160.448 237.855 159.788 237.061 159.303 236.282C159.896 235.56 160.92 234.363 161.998 233.208C162.658 232.515 163.467 231.534 164.046 230.899ZM157.08 232.169C157.08 233.049 157.08 233.612 156.972 234.882C156.972 235.907 156.824 237.696 156.784 239.082C156.784 239.962 156.784 241.448 156.784 241.968C156.581 242.032 156.366 242.032 156.164 241.968C156.141 241.545 156.141 241.121 156.164 240.698C156.164 239.774 156.298 237.927 156.379 236.138C156.379 234.579 156.379 233.756 156.487 232.169C156.547 230.962 156.686 229.761 156.905 228.576C156.905 228.576 157.309 228.763 157.309 228.922C157.309 229.081 157.188 229.86 157.08 232.183V232.169Z" fill="#FCFCFC"/>
<path fill-rule="evenodd" clip-rule="evenodd" d="M175.915 228.431C175.915 227.984 175.471 227.897 174.999 227.897C174.273 227.923 173.548 227.996 172.83 228.114C172.358 228.215 171.927 229.384 171.294 231C170.916 231.924 170.499 233.006 169.946 234.103C169.785 234.449 168.383 237.451 167.669 239.024C167.359 239.731 167.049 240.539 166.713 241.29C166.417 241.844 166.186 242.435 166.025 243.05C166.025 243.454 166.281 243.541 166.793 243.584H168.141C168.612 243.584 168.922 242.617 169.353 241.535C169.593 240.928 169.872 240.339 170.189 239.774C170.566 239.659 171.86 239.183 172.884 238.952C173.537 238.82 174.2 238.748 174.864 238.735C174.936 239.077 174.986 239.425 175.013 239.774C175.161 240.9 175.255 242.372 175.269 242.661C175.349 243.252 175.498 243.57 176.037 243.57C177.128 243.57 177.694 243.57 177.694 242.747C177.643 242.048 177.544 241.353 177.397 240.669C177.397 240.135 177.222 239.413 177.182 238.735C177.092 237.805 176.934 236.883 176.71 235.979C176.427 234.348 176.306 233.309 176.077 231.866C175.929 230.942 175.861 229.932 175.794 229.167C175.886 228.935 175.927 228.683 175.915 228.431ZM172.83 236.426L171.765 236.7C171.981 236.022 172.56 234.983 172.87 234.218C173.113 233.489 173.406 232.78 173.746 232.097C173.873 232.663 173.972 233.237 174.042 233.814C174.196 234.584 174.295 235.366 174.339 236.152C173.831 236.207 173.326 236.299 172.83 236.426Z" fill="#FCFCFC"/>
<path fill-rule="evenodd" clip-rule="evenodd" d="M184.837 238.187C186.763 237.177 189.458 235.575 189.458 231.996C189.368 230.848 188.921 229.766 188.188 228.923C187.455 228.081 186.479 227.526 185.416 227.349C184.537 227.342 183.665 227.529 182.856 227.897C182.325 228.043 181.807 228.236 181.306 228.475C180.781 228.749 180.309 229.095 180.282 229.384C180.255 229.672 180.39 229.759 180.39 230.019C180.39 230.711 180.175 233.15 180.067 236.152C179.972 238.317 179.959 240.943 179.959 243.281C179.959 243.829 180.161 243.829 180.538 243.873C181.076 243.922 181.617 243.922 182.155 243.873C182.357 243.873 182.654 243.959 182.815 243.959C182.977 243.959 183.233 243.599 183.26 243.281C183.09 242.238 183.013 241.179 183.031 240.121V239.269C183.462 238.952 183.947 238.663 184.837 238.187ZM181.764 240.799C181.796 241.385 181.796 241.973 181.764 242.559C181.602 242.636 181.429 242.685 181.252 242.704C181.097 242.733 180.937 242.733 180.781 242.704C180.781 241.145 180.781 239.702 180.781 237.783C180.875 234.666 181.05 230.755 181.252 229.802H181.764C181.764 229.802 181.764 231.245 181.764 232.111C181.764 234.319 181.764 234.911 181.764 236.715V238.923C181.724 239.659 181.764 240.121 181.764 240.799ZM182.937 236.744C182.791 235.408 182.728 234.062 182.748 232.717C182.724 232.057 182.751 231.396 182.829 230.74C183.023 230.362 183.317 230.053 183.674 229.853C184.031 229.653 184.436 229.57 184.837 229.615C186.184 229.615 187.666 230.307 187.666 231.779C187.623 232.45 187.447 233.104 187.149 233.696C186.852 234.288 186.44 234.806 185.941 235.214C185.048 235.938 184.025 236.459 182.937 236.744Z" fill="#FCFCFC"/>
<path fill-rule="evenodd" clip-rule="evenodd" d="M199.495 231.866C199.789 231.922 200.09 231.922 200.384 231.866C201.541 231.894 202.698 231.787 203.833 231.548C203.905 231.193 203.941 230.83 203.941 230.466C203.941 229.932 203.941 229.355 203.941 229.196C203.941 228.547 204.157 228.157 203.281 228.157C202.931 228.157 202.365 228.157 201.435 228.157C200.088 228.157 198.107 228.157 196.584 228.157C195.614 228.157 194.954 228.157 194.105 228.157C193.256 228.157 192.394 228.157 191.869 228.157C190.898 228.157 190.993 228.431 190.993 229.759C190.982 230.243 191.018 230.726 191.101 231.202C191.168 231.577 191.343 231.88 191.518 231.924C192.071 232.039 192.866 231.924 193.741 231.924C194.643 231.902 195.544 231.96 196.436 232.097C196.436 232.775 196.436 233.843 196.328 234.897C196.221 235.95 196.221 236.773 196.18 237.783C196.18 239.125 196.072 241.275 196.072 242.603C196.089 242.811 196.176 243.005 196.318 243.149C196.459 243.293 196.645 243.376 196.84 243.382C197.396 243.386 197.95 243.337 198.498 243.238C199.064 243.122 199.374 242.949 199.374 242.43C199.303 242.039 199.253 241.643 199.225 241.246C199.225 239.803 199.225 237.35 199.225 235.474C199.257 234.267 199.347 233.063 199.495 231.866Z" fill="#FCFCFC"/>
<path fill-rule="evenodd" clip-rule="evenodd" d="M215.543 230.697C215.543 230.235 215.61 230.076 215.623 229.615C215.637 229.153 215.058 228.879 214.734 229.023C214.411 229.167 213.993 229.629 213.265 230.654C212.538 231.678 211.123 233.713 210.274 234.983C209.102 236.715 208.186 238.273 207.903 238.504C207.997 236.7 208.078 234.709 208.199 232.732C208.199 232.039 208.199 230.639 208.307 229.846C208.307 229.355 208.307 229.283 208.307 228.98C208.307 228.677 208.105 228.604 207.889 228.576C207.38 228.545 206.869 228.579 206.367 228.677C206.179 228.702 206.009 228.806 205.893 228.965C205.777 229.125 205.724 229.327 205.747 229.528C205.747 229.817 205.747 231.173 205.747 232.414C205.747 233.655 205.626 234.839 205.585 236.253C205.545 237.667 205.437 239.399 205.41 241.405C205.41 241.924 205.41 242.444 205.41 242.761C205.41 243.295 205.41 243.223 205.599 243.454C205.787 243.685 206.165 243.772 206.502 243.801C206.727 243.777 206.941 243.682 207.116 243.527C207.291 243.373 207.42 243.167 207.485 242.935C207.509 242.878 207.521 242.816 207.521 242.754C207.521 242.692 207.509 242.631 207.485 242.574C207.741 242.213 208.105 241.78 208.415 241.304C209.318 239.962 210.557 238.172 211.473 236.744C212.021 235.837 212.633 234.979 213.306 234.175C213.306 235.171 213.306 235.618 213.306 236.845C213.212 239.009 213.198 241.722 213.185 242.213C213.185 242.978 213.185 243.295 213.454 243.483C213.882 243.663 214.346 243.723 214.802 243.656C215.206 243.656 215.394 243.339 215.435 242.848C215.435 242.098 215.287 239.543 215.314 237.422C215.152 234.709 215.462 233.02 215.543 230.697Z" fill="#FCFCFC"/>
<path fill-rule="evenodd" clip-rule="evenodd" d="M226.241 243.7C227.063 243.7 228.074 243.483 228.074 243.281C228.074 242.661 228.074 242.343 228.182 241.116C228.182 239.385 228.343 236.874 228.438 234.536C228.476 232.962 228.588 231.392 228.774 229.831C228.834 229.275 228.834 228.713 228.774 228.157C228.771 228.087 228.743 228.021 228.695 227.973C228.647 227.924 228.584 227.897 228.518 227.897C228.249 227.897 227.831 228.056 227.494 228.027H226.147C225.783 228.027 225.702 229.672 225.662 230.509C225.662 231.953 225.581 233.598 225.527 234.435L223.479 234.55C222.59 234.55 221.889 234.637 221.189 234.622C221.189 233.179 221.04 231.144 221.014 230.149C220.987 229.153 221.013 228.706 220.501 228.706C220.199 228.649 219.892 228.62 219.585 228.619C219.261 228.635 218.94 228.693 218.629 228.792C218.332 228.879 218.076 229.543 218.076 229.788C218.076 231.231 218.197 232.761 218.265 234.666C218.332 236.571 218.265 237.379 218.332 239.082C218.332 240.279 218.332 241.232 218.332 242.155C218.332 242.675 218.332 242.79 218.332 243.108C218.332 243.425 218.48 243.584 218.669 243.599C218.858 243.613 221.054 243.786 221.121 243.108C221.189 242.43 221.121 239.789 221.121 238.908C221.121 238.764 221.121 237.913 221.121 237.379C221.62 237.379 222.536 237.379 223.425 237.379C223.964 237.379 224.261 237.278 224.773 237.249H225.433C225.433 238.779 225.231 240.958 225.244 242.256C225.527 243.194 225.783 243.714 226.241 243.7Z" fill="#FCFCFC"/>
<path fill-rule="evenodd" clip-rule="evenodd" d="M240.833 230.899C241.143 230.582 241.44 230.726 241.453 230.365C241.467 230.004 240.429 228.605 240.025 228.605C238.995 229.487 238.088 230.522 237.33 231.678C236.537 232.799 235.634 233.825 234.635 234.738H234.527C234.527 233.93 234.608 232.616 234.676 231.678C234.824 229.817 234.972 228.691 234.972 228.244C234.972 227.796 234.824 227.941 234.46 227.883C233.864 227.822 233.264 227.822 232.668 227.883C231.657 227.883 231.725 229.499 231.671 230.769C231.617 232.039 231.482 233.915 231.415 235.921C231.348 237.927 231.415 239.37 231.267 240.525C231.267 241.246 231.119 242.098 231.078 242.559C231.078 243.281 231.779 243.599 232.143 243.599C232.506 243.599 233.032 243.454 233.355 243.454C233.679 243.454 233.867 243.642 234.056 243.599C234.244 243.555 234.514 243.093 234.527 242.776C234.541 242.458 234.352 241.087 234.379 239.298C234.379 238.779 234.379 238.129 234.46 237.494C235.072 238.173 235.622 238.912 236.104 239.702C236.898 240.887 237.757 242.019 238.677 243.093C239.012 243.418 239.44 243.611 239.89 243.642C240.24 243.642 240.914 243.368 240.874 242.776C240.841 242.561 240.753 242.361 240.618 242.199C240.417 241.88 240.197 241.576 239.957 241.29C239.486 240.64 238.785 239.846 238.273 239.168C237.249 237.855 236.589 237.061 236.104 236.282C236.697 235.56 237.721 234.363 238.799 233.208C239.445 232.515 240.254 231.534 240.833 230.899Z" fill="#FCFCFC"/>
<path fill-rule="evenodd" clip-rule="evenodd" d="M252.704 228.431C252.704 227.984 252.26 227.897 251.788 227.897C251.062 227.924 250.337 227.996 249.619 228.114C249.147 228.215 248.716 229.384 248.083 231C247.706 231.924 247.288 233.006 246.735 234.103C246.574 234.449 245.172 237.451 244.458 239.024C244.148 239.731 243.838 240.539 243.502 241.29C243.206 241.844 242.976 242.435 242.814 243.05C242.814 243.454 243.07 243.541 243.582 243.584H244.93C245.401 243.584 245.711 242.617 246.143 241.535C246.382 240.928 246.661 240.339 246.978 239.774C247.342 239.659 248.649 239.183 249.673 238.952C250.326 238.82 250.989 238.748 251.653 238.735C251.725 239.077 251.775 239.425 251.802 239.774C251.95 240.9 252.044 242.372 252.058 242.661C252.138 243.252 252.287 243.57 252.839 243.57C253.917 243.57 254.483 243.57 254.483 242.747C254.432 242.048 254.333 241.353 254.186 240.669C254.186 240.135 254.011 239.413 253.971 238.735C253.881 237.805 253.723 236.883 253.499 235.979C253.216 234.348 253.095 233.309 252.866 231.866C252.718 230.942 252.65 229.932 252.57 229.167C252.671 228.938 252.717 228.685 252.704 228.431ZM249.619 236.426L248.554 236.7C248.77 236.022 249.349 234.983 249.659 234.218C249.902 233.489 250.195 232.78 250.535 232.097C250.662 232.663 250.761 233.237 250.831 233.814C250.985 234.584 251.084 235.366 251.128 236.152C250.62 236.207 250.115 236.299 249.619 236.426Z" fill="#FCFCFC"/>
<path fill-rule="evenodd" clip-rule="evenodd" d="M268.212 230.784C268.212 229.86 268.387 228.821 268.414 228.316L266.245 228.186C265.652 229.081 264.897 230.755 264.143 232.054C263.706 232.91 263.225 233.738 262.701 234.536C262.108 233.784 261.571 232.983 261.098 232.14C259.952 230.235 258.982 228.388 258.12 228.388C257.81 228.388 257.594 229.023 257.352 231.274C257.285 232.169 257.15 233.771 257.015 235.344C256.88 237.191 256.786 238.706 256.651 240.034C256.49 241.708 256.436 242.415 256.395 242.834C256.355 243.252 256.584 243.238 256.84 243.238C257.34 243.182 257.833 243.066 258.309 242.891L258.888 242.661C259.036 242.588 259.144 242.516 259.144 242.3C259.144 242.083 259.144 241.232 259.144 240.987C259.144 240.38 259.306 238.822 259.4 237.422C259.508 235.734 259.562 233.612 259.629 233.093C259.98 233.545 260.295 234.028 260.572 234.536C261.488 235.979 261.92 237.105 262.593 237.105C262.957 237.105 263.819 235.907 264.453 234.94C265.086 233.973 265.598 233.107 266.029 232.515L266.15 232.79C266.07 233.915 265.975 235.07 265.881 236.195C265.706 238.201 265.598 241.318 265.45 242.661C265.315 243.743 266.932 243.469 267.794 243.469C267.797 243.44 267.797 243.411 267.794 243.382C267.794 243.151 267.794 242.516 267.794 241.939C267.794 240.135 267.889 238.504 267.942 237.018C268.05 234.189 268.212 232.342 268.212 230.784ZM258.78 232.775C258.78 234.06 258.78 235.661 258.672 236.975C258.672 237.797 258.565 238.836 258.497 239.76L257.5 241.881C257.5 241.189 257.5 240.438 257.648 238.822C257.797 237.206 257.945 234.998 258.093 233.049C258.138 231.99 258.273 230.937 258.497 229.903C258.69 230.131 258.849 230.389 258.969 230.668C258.928 231.231 258.78 231.751 258.78 232.775Z" fill="#FCFCFC"/>
<path fill-rule="evenodd" clip-rule="evenodd" d="M281.148 230.697C281.148 230.235 281.229 230.076 281.242 229.615C281.242 229.442 281 229.196 280.73 229.081H280.299C279.949 229.254 279.585 229.701 278.871 230.683C278.157 231.664 276.728 233.742 275.893 235.012C274.707 236.744 273.791 238.302 273.522 238.533C273.616 236.729 273.683 234.738 273.818 232.761C273.818 232.068 273.818 230.668 273.926 229.874C273.908 229.586 273.908 229.297 273.926 229.009C273.927 228.959 273.918 228.911 273.899 228.866C273.881 228.821 273.853 228.781 273.818 228.749L272.228 228.648H271.972C271.786 228.677 271.618 228.781 271.502 228.94C271.387 229.099 271.333 229.299 271.352 229.499C271.352 229.788 271.352 231.144 271.352 232.385C271.352 233.627 271.218 234.81 271.191 236.224C271.164 237.638 271.042 239.37 271.002 241.376C271.002 241.896 271.002 242.415 271.002 242.733C271.002 243.267 271.002 243.194 271.177 243.425C271.226 243.502 271.291 243.566 271.366 243.613H272.471C273.038 242.87 273.547 242.078 273.993 241.246C274.882 239.904 276.136 238.115 277.052 236.686C277.594 235.776 278.207 234.917 278.884 234.117C278.884 235.113 278.884 235.56 278.817 236.787C278.723 238.952 278.696 241.665 278.682 242.155C278.682 242.92 278.682 243.238 278.952 243.425C279.38 243.602 279.843 243.661 280.299 243.599C280.703 243.599 280.878 243.281 280.919 242.79C280.919 242.04 280.771 239.486 280.811 237.364C280.771 234.709 281.08 233.02 281.148 230.697ZM272.983 232.342C272.983 232.977 272.875 233.785 272.807 234.694C272.734 236.512 272.536 238.32 272.215 240.106C272.181 239.448 272.181 238.788 272.215 238.129C272.215 236.773 272.215 235.012 272.349 233.526C272.498 231.491 272.551 230.004 272.605 229.456C272.772 229.4 272.951 229.4 273.117 229.456C273.117 229.975 273.077 231.015 272.983 232.342Z" fill="#FCFCFC"/>
<path fill-rule="evenodd" clip-rule="evenodd" d="M288.747 250.28C287.267 249.918 285.769 249.643 284.26 249.458C282.791 249.241 281.35 249.111 279.881 248.952C276.989 248.683 274.092 248.447 271.19 248.245C268.293 248.043 265.397 247.899 262.5 247.755C259.603 247.61 256.706 247.524 253.822 247.423C250.939 247.322 248.029 247.25 245.132 247.206L236.441 247.091C233.544 247.091 230.661 247.091 227.764 247.091H219.073C216.176 247.091 213.279 247.221 210.382 247.293C207.485 247.365 204.602 247.524 201.705 247.668C198.808 247.812 195.911 248.043 193.028 248.245C190.144 248.447 187.234 248.693 184.351 248.952C181.467 249.212 178.57 249.486 175.673 249.775C172.777 250.064 169.907 250.396 167.01 250.713C164.113 251.031 161.229 251.435 158.319 251.896C155.325 252.288 152.37 252.974 149.494 253.946C149.096 254.09 148.761 254.383 148.55 254.772C148.339 255.16 148.266 255.617 148.345 256.058C148.423 256.5 148.649 256.896 148.979 257.173C149.309 257.451 149.721 257.591 150.14 257.568H150.342C151.182 257.512 152.024 257.63 152.822 257.914C153.214 258.047 153.59 258.231 153.94 258.463C154.274 258.652 154.578 258.895 154.843 259.184C155.072 259.43 154.641 259.487 154.641 259.487C154.512 259.553 154.376 259.601 154.236 259.632C154.068 259.69 153.897 259.738 153.724 259.776C153.549 259.776 153.347 259.862 153.145 259.906C152.943 259.949 152.31 260.05 151.892 260.122L150.545 260.281L149.197 260.396L147.755 260.497C147.27 260.497 146.785 260.57 146.287 260.584C145.788 260.598 145.317 260.656 144.818 260.671L143.471 260.743H142.123C141.625 260.743 141.14 260.743 140.655 260.743C140.17 260.743 139.671 260.743 139.186 260.743C138.701 260.743 138.229 260.743 137.758 260.671C137.286 260.598 136.828 260.671 136.41 260.57L135.063 260.411C134.834 260.411 134.672 260.324 134.47 260.295H134.174L133.931 260.223C133.781 260.195 133.632 260.156 133.486 260.108H133.325C133.58 259.777 133.864 259.472 134.174 259.199C134.513 258.902 134.868 258.627 135.238 258.376C135.619 258.126 136.015 257.905 136.424 257.712C136.813 257.529 137.214 257.375 137.623 257.25C137.945 257.165 138.275 257.116 138.607 257.106H138.863C139.327 257.139 139.785 256.972 140.135 256.643C140.485 256.315 140.698 255.85 140.729 255.353C140.759 254.855 140.604 254.365 140.297 253.99C139.99 253.615 139.556 253.387 139.092 253.354C136.222 253.022 133.379 252.56 130.536 252.171C127.693 251.781 124.823 251.435 121.966 251.088L117.668 250.627C116.24 250.468 114.812 250.28 113.383 250.136L104.787 249.299L96.1771 248.606L87.5672 248.115L78.9439 247.827C76.0874 247.827 73.204 247.827 70.3341 247.827C67.4641 247.827 64.6076 247.827 61.7377 247.928L53.1413 248.115C47.4149 248.318 41.6884 248.491 35.9755 248.765L18.8366 249.544L10.2941 249.977C7.43762 250.107 4.56767 250.251 1.71119 250.424C1.25736 250.424 0.822107 250.618 0.501197 250.961C0.180286 251.305 0 251.771 0 252.257C0 252.743 0.180286 253.209 0.501197 253.553C0.822107 253.897 1.25736 254.09 1.71119 254.09C4.57665 254.234 7.43762 254.355 10.2941 254.451L18.904 254.638H27.5003H36.0833C38.9532 254.638 41.8097 254.638 44.6662 254.638L53.2491 254.537L61.805 254.422C64.6615 254.422 67.518 254.422 70.361 254.335L87.4594 254.133H96.0019H104.558C107.401 254.133 110.244 254.292 113.087 254.407C115.93 254.523 118.773 254.754 121.616 254.97C124.459 255.187 127.275 255.548 130.105 255.879L130.751 255.981L130.064 256.486C129.44 257.004 128.895 257.622 128.447 258.318C128.317 258.541 128.2 258.772 128.097 259.011C127.967 259.271 127.868 259.548 127.8 259.834C127.8 259.992 127.733 260.151 127.693 260.295C127.652 260.44 127.693 260.642 127.693 260.815C127.646 261.164 127.646 261.519 127.693 261.868C127.748 262.281 127.866 262.681 128.043 263.052C132.557 266.01 155.328 266.183 159.666 262.907C159.666 262.792 159.774 262.677 159.828 262.532C160.197 261.694 160.336 260.76 160.228 259.84C160.121 258.921 159.772 258.053 159.222 257.337C158.834 256.82 158.38 256.363 157.874 255.981L158.831 255.822L160.946 255.475L163.075 255.216C164.49 255.028 165.932 254.913 167.36 254.768C170.216 254.48 173.086 254.335 175.956 254.177C177.398 254.09 178.826 254.047 180.268 254.003L184.593 253.874C187.463 253.874 190.347 253.758 193.23 253.715H201.867C204.75 253.715 207.634 253.715 210.517 253.628L219.167 253.513L227.804 253.383H236.454H245.105H253.755H262.392C265.275 253.383 268.159 253.383 271.029 253.469C273.899 253.556 276.782 253.57 279.652 253.672C281.067 253.672 282.508 253.787 283.91 253.888C285.311 253.989 286.739 254.09 287.952 254.292H288.087C288.514 254.349 288.947 254.233 289.298 253.966C289.65 253.699 289.896 253.3 289.986 252.849C290.101 252.596 290.159 252.319 290.156 252.038C290.153 251.757 290.089 251.481 289.968 251.232C289.848 250.982 289.675 250.766 289.463 250.601C289.251 250.436 289.006 250.326 288.747 250.28Z" fill="#FCFCFC"/>
<path fill-rule="evenodd" clip-rule="evenodd" d="M177.955 194.186C177.955 194.186 177.753 196.033 177.672 196.87C177.558 197.914 177.522 198.966 177.564 200.016C177.888 200.247 179.114 200.016 179.787 199.944L182.32 199.843C182.32 199.684 180.825 198.01 180.178 197.13C179.531 196.249 177.955 194.186 177.955 194.186Z" fill="#FCFCFC"/>
<path fill-rule="evenodd" clip-rule="evenodd" d="M106.529 175.104L104.359 175.537L105.37 181.872L107.539 181.425C107.931 181.371 108.306 181.225 108.639 180.998C108.973 180.772 109.255 180.469 109.467 180.113C109.679 179.756 109.816 179.354 109.867 178.935C109.918 178.516 109.882 178.09 109.762 177.687C109.754 177.271 109.656 176.862 109.478 176.492C109.3 176.122 109.045 175.8 108.734 175.551C108.422 175.302 108.061 175.132 107.679 175.055C107.297 174.977 106.904 174.994 106.529 175.104Z" fill="#FCFCFC"/>
<path fill-rule="evenodd" clip-rule="evenodd" d="M107.8 170.044C107.782 169.708 107.692 169.381 107.536 169.089C107.38 168.797 107.162 168.548 106.901 168.361C106.639 168.175 106.341 168.057 106.029 168.016C105.717 167.974 105.401 168.012 105.105 168.124L103.326 168.485L104.162 173.608L105.927 173.247C107.382 172.973 108.096 171.876 107.8 170.044Z" fill="#FCFCFC"/>
<path fill-rule="evenodd" clip-rule="evenodd" d="M124.995 135.727C124.577 136.939 124.092 138.613 123.755 139.739C123.337 141.092 123.013 142.476 122.785 143.881C123.594 143.881 124.24 143.78 124.901 143.708C125.721 143.681 126.537 143.574 127.339 143.39C126.908 142.106 126.531 141.023 126.167 139.826C125.803 138.628 125.48 137.445 124.995 135.727Z" fill="#FCFCFC"/>
<path fill-rule="evenodd" clip-rule="evenodd" d="M189.044 173.791L187.616 173.532L186.848 180.964L187.953 181.166C188.41 181.329 188.896 181.374 189.373 181.299C189.849 181.223 190.303 181.029 190.696 180.731C191.09 180.433 191.412 180.041 191.638 179.585C191.863 179.129 191.986 178.622 191.995 178.106C192.372 175.61 191.442 174.239 189.044 173.791Z" fill="#FCFCFC"/>
<path fill-rule="evenodd" clip-rule="evenodd" d="M67.6256 180.145H67.5312C67.9095 182.282 68.1213 184.449 68.1645 186.624L68.8113 194.114L74.9689 191.473L70.9267 185.455C69.6515 183.817 68.5447 182.037 67.6256 180.145Z" fill="#FCFCFC"/>
<path fill-rule="evenodd" clip-rule="evenodd" d="M239.676 187.851C239.455 188.282 239.323 188.76 239.288 189.25C239.254 189.741 239.318 190.234 239.476 190.696C239.635 191.158 239.883 191.579 240.206 191.929C240.528 192.28 240.917 192.552 241.346 192.729L243.448 193.45L246.372 187.432L244.243 186.249C243.866 185.947 243.426 185.746 242.961 185.665C242.495 185.583 242.019 185.622 241.571 185.779C241.123 185.936 240.717 186.207 240.387 186.567C240.057 186.928 239.813 187.368 239.676 187.851Z" fill="#FCFCFC"/>
<path fill-rule="evenodd" clip-rule="evenodd" d="M186.358 143.677L189.942 144.889C190.319 143.778 190.077 144.399 190.306 143.028C190.427 142.219 190.562 140.401 190.737 138.698C190.845 137.472 190.899 137.183 190.979 135.538C189.295 134.6 183.609 133.359 182.666 138.337C182.437 139.492 183.205 140.545 184.013 141.613C184.647 142.474 185.447 143.178 186.358 143.677Z" fill="#FCFCFC"/>
<path fill-rule="evenodd" clip-rule="evenodd" d="M220.246 186.004L225.487 188.125L225.164 184.705C225.123 182.611 225.276 180.518 225.622 178.456H225.528C224.659 180.298 223.602 182.031 222.375 183.623L220.246 186.004Z" fill="#FCFCFC"/>
<path fill-rule="evenodd" clip-rule="evenodd" d="M169.147 143.78C168.891 142.438 168.662 141.298 168.459 140.057C168.257 138.815 168.069 137.589 167.799 135.727C167.247 136.838 166.546 138.368 166.075 139.45C165.503 140.743 165.021 142.079 164.633 143.448C165.428 143.563 166.088 143.607 166.735 143.664C167.534 143.782 168.341 143.821 169.147 143.78Z" fill="#FCFCFC"/>
<path fill-rule="evenodd" clip-rule="evenodd" d="M247.476 170.577C242.235 170.49 248.527 170.346 243.299 170.23C242.572 170.23 229.825 168.787 225.783 167.517C227.131 152.913 230.216 138.107 229.704 137.601C229.192 137.096 228.357 130.545 227.804 127.774C228.096 127.396 228.258 126.922 228.262 126.432C228.263 125.9 228.081 125.386 227.75 124.989C229.219 124.426 228.087 120.948 227.912 119.88C227.737 118.812 227.454 119.029 227.063 119.606C224.921 122.968 225.19 124.065 225.622 124.426C225.231 124.565 224.89 124.832 224.648 125.189C224.407 125.546 224.276 125.976 224.274 126.417C224.279 126.623 224.311 126.827 224.368 127.023C223.479 127.947 219.167 133.07 219.167 133.07L217.214 132.882C217.214 132.882 217.483 130.487 218.265 122.55C219.783 122.594 221.276 122.129 222.536 121.222C221.539 116.301 218.386 97.4395 218.346 93.8894C218.322 93.446 218.462 93.0105 218.736 92.6772C219.031 92.1137 219.227 91.4976 219.316 90.8588L218.561 90.0651L219.464 88.4777L218.426 85.4616C217.874 86.4718 217.456 87.2655 216.998 88.0303C216.755 88.3435 216.615 88.7341 216.6 89.1412C216.586 89.5484 216.697 89.9493 216.917 90.2816C216.917 90.2816 216.917 90.4259 216.917 90.4981C216.917 90.5702 216.85 90.6279 216.81 90.6568C216.324 90.8836 215.935 91.2961 215.718 91.8139C215.501 92.3316 215.472 92.9172 215.637 93.4565C215.676 93.8343 215.625 94.2166 215.489 94.5677C214.788 96.3427 214.074 98.1322 213.306 99.8928C211.73 103.515 208.523 110.11 204.993 116.907C205.441 118.181 206.258 119.269 207.324 120.01L205.114 126.691L198.148 122.117C198.269 119.562 198.445 108.075 198.754 103.933C198.746 103.681 198.795 103.43 198.896 103.202C198.996 102.973 199.147 102.774 199.334 102.62H201.207L201.624 98.1322L198.256 97.3817C197.906 93.3554 197.798 73.9455 197.852 67.3793C198.741 67.3793 200.937 66.8453 198.364 58.9803C197.973 57.9413 198.364 57.4218 197.394 58.9803C196.423 60.5389 193.176 65.561 195.723 66.9752C194.375 71.4922 189.323 90.9599 188.016 97.3962H184.809L184.378 101.884L186.695 102.404C186.695 103.039 186.561 103.847 186.412 104.713C185.981 107.599 185.59 110.327 185.146 113.083C184.701 115.839 184.418 118.581 183.866 121.222L181.696 121.41L180.349 111.308L172.265 110.702L172.103 107.339L175.175 107.094L175.404 103.731L172.426 102.808C171.483 96.1984 169.233 80.0066 169.3 79.6314C169.406 78.8196 169.745 78.0631 170.271 77.4667C170.742 76.9327 170.702 76.7018 170.271 76.2256C169.839 75.7494 169.341 75.1721 168.829 74.566C168.478 74.8114 168.169 75.0134 167.872 75.2587C167.576 75.5041 167.306 75.7638 166.996 76.0091C166.781 76.1351 166.617 76.3416 166.535 76.5892C166.453 76.8368 166.459 77.1081 166.552 77.3512C166.58 77.4664 166.621 77.5778 166.673 77.6832C166.943 78.3252 167.082 79.0212 167.082 79.7252C167.082 80.4292 166.943 81.1251 166.673 81.7672C165.986 83.903 163.399 96.8622 162.213 102.332H159.276L159.006 106.344L162.146 106.906L162.388 110.096L152.795 109.36C152.795 107.282 152.889 97.8147 153.051 95.3469H154.587L155.018 89.1993L152.889 88.5498C151.959 82.1713 149.386 53.2944 149.494 52.0967C149.494 51.4761 150.248 48.9362 150.235 48.3157C150.235 44.9388 148.887 46.5407 148.766 45.5882C151.218 43.1349 149.817 39.8879 149.413 38.9065C149.13 37.9136 148.77 36.948 148.335 36.0203C147.205 37.6657 146.402 39.542 145.977 41.533C145.627 43.0916 146.799 44.3327 147.23 45.7758C146.637 46.3097 145.707 46.5118 145.775 47.5653C145.842 48.6187 145.303 49.4413 145.654 50.0763C146.061 50.7346 146.22 51.5341 146.098 52.3131C145.586 55.8055 141.706 84.8988 141.544 87.4675C141.544 87.9004 141.423 88.3334 141.369 88.7519L138.674 88.8962C138.674 91.0032 138.593 92.9802 138.566 94.8996C139.011 95.0295 140.358 95.1882 140.358 95.1882C140.143 98.0744 139.887 106.401 139.86 108.609L139.712 110.197L132.287 110.355L130.765 120.457L128.852 120.327C128.393 116.647 127.922 112.881 127.504 111.25L124.58 110.803H123.233V110.543L121.468 110.269V107.801L124.863 107.527V102.851L121.859 102.202C120.659 96.7035 118.099 83.8597 117.412 81.7239C117.139 81.0828 116.998 80.3865 116.998 79.6819C116.998 78.9773 117.139 78.2809 117.412 77.6399C117.461 77.5343 117.497 77.4229 117.52 77.3079C117.613 77.0648 117.619 76.7935 117.537 76.5459C117.455 76.2983 117.291 76.0918 117.075 75.9658C116.779 75.7205 116.496 75.4463 116.2 75.2154C115.903 74.9845 115.593 74.7681 115.243 74.5227C114.731 75.1288 114.3 75.6917 113.801 76.1823C113.303 76.673 113.276 76.8895 113.801 77.4234C114.317 78.0248 114.65 78.7796 114.758 79.5881C114.758 79.9633 112.615 95.9098 111.645 102.678L108.654 102.938V106.921L111.497 107.426L111.726 110.312H107.185C106.822 110.312 106.579 110.399 106.566 110.485C106.121 112.087 103.871 122.68 103.467 123.473C102.538 123.537 101.606 123.537 100.678 123.473C99.9499 121.77 98.3465 105.348 98.3061 102.057H100.058L99.5053 96.689L97.2147 95.9819C96.4871 93.4132 91.7039 76.9183 90.2487 72.4446C92.2698 70.9294 89.319 66.0228 88.4432 64.5796C87.5674 63.1365 87.8638 63.5117 87.473 64.5796C85.3172 71.2036 86.3816 72.6178 87.2574 72.8631C86.988 76.038 84.5627 90.9599 83.7677 95.953L80.6822 96.9055L82.5955 101.942H84.0372C84.1538 102.115 84.2195 102.321 84.2258 102.534C84.2258 103.125 84.3336 103.731 84.374 104.323C84.7378 108.782 85.1151 113.227 85.4385 117.672C85.6406 120.327 85.7484 122.997 85.9101 125.638C85.9101 126.403 86.2334 129.073 86.1661 130.92L85.6945 131.41C84.8726 132.262 83.2018 134.023 81.8948 135.307L78.5263 138.785L77.4349 133.575L80.1297 132.767C80.0672 130.903 79.8781 129.046 79.5638 127.211L75.5351 126.446C75.4375 126.149 75.3565 125.845 75.2926 125.537C74.9557 123.993 69.8087 107.7 68.6634 104.395C68.9908 103.712 69.06 102.92 68.8568 102.184C68.6536 101.448 68.1935 100.824 67.572 100.441C68.7712 98.8249 66.2246 95.015 65.5779 93.7306C64.9311 92.4463 64.6347 92.7926 64.3248 93.7306C62.6944 99.3011 63.5433 100.614 64.2574 100.946C63.883 101.328 63.6143 101.813 63.4812 102.348C63.348 102.882 63.3555 103.446 63.5029 103.977C63.6445 104.434 63.8845 104.849 64.2035 105.189C62.8561 110.961 59.9592 125.652 59.3259 129.823L54.9065 131.18L56.8198 136.216H58.9352C59.299 137.428 59.6358 138.641 59.9727 139.853C59.9862 139.982 59.9862 140.113 59.9727 140.242C61.63 148.901 63.6511 170.822 63.449 169.494C59.7436 169.696 53.5321 170.721 47.6575 171.645L47.1051 171.746C45.7577 171.991 48.1965 171.746 47.1051 171.746H46.3909C45.989 171.735 45.5897 171.817 45.22 171.987C44.8504 172.156 44.5191 172.408 44.2486 172.727C39.1824 178.355 22.1513 205.572 8.65039 226.44C8.97377 226.44 34.0757 223.092 48.1695 220.538C64.0418 217.651 76.128 214.534 88.1198 214.866C100.112 215.198 141.746 223.727 141.746 223.727C141.746 223.727 182.572 215.443 195.197 215.256C207.822 215.068 219.356 216.843 240.389 220.927C254.375 223.64 267.458 223.51 281.255 225.112C269.601 207.549 258.053 184.258 249.241 171.399C249.013 171.144 248.739 170.939 248.436 170.798C248.133 170.657 247.807 170.582 247.476 170.577ZM183.084 145.106C181.899 144.096 177.951 141.584 179.042 136.894C180.053 132.753 184.849 131.281 188.137 131.584C190.311 132.006 192.406 132.811 194.335 133.965C194.422 133.992 194.503 134.04 194.57 134.105C194.638 134.17 194.691 134.25 194.726 134.34C194.941 134.816 194.726 135.177 194.604 135.783C193.877 140.372 192.718 153.36 192.098 155.987L188.878 155.251C188.878 155.078 188.878 154.89 188.878 154.702C188.901 154.136 188.959 153.572 189.053 153.014C189.296 150.763 189.525 148.872 189.633 148.035C189.134 147.891 186.453 147.169 186.075 146.967L182.249 153.779L176.859 152.668C178.112 152.148 182.303 146.361 183.084 145.106ZM176.037 165.959C176.967 171.731 179.77 181.992 180.416 182.757L174.663 182.151C175.04 181.819 175.283 180.707 174.906 178.6L173.733 171.948C173.35 169.933 173.084 167.894 172.938 165.843H172.844C172.397 167.816 171.803 169.746 171.065 171.616L168.802 177.908C168.088 179.899 168.142 181.068 168.452 181.443L162.941 180.866C163.709 180.246 168.02 171.212 169.988 165.396C170.278 164.784 170.42 164.104 170.401 163.419C170.382 162.733 170.203 162.063 169.88 161.471L176.617 162.207C175.983 162.784 175.741 164.14 176.037 165.959ZM157.389 149.089C158.346 146.895 159.37 144.687 160.637 141.873C161.661 139.521 162.469 137.717 163.331 135.899C164.679 132.709 165.177 130.631 165.635 130.53C165.838 130.53 167.05 130.819 167.427 130.819C167.95 130.814 168.472 130.848 168.99 130.92C169.166 130.92 169.166 131.685 169.354 132.363C169.718 133.532 170.419 135.769 170.944 138.006C171.726 141.296 172.399 144.225 172.979 146.664C173.558 149.103 173.612 149.796 173.935 150.994C174.043 151.369 174.151 151.744 174.232 152.09C173.208 151.888 172.197 151.672 171.173 151.499H170.769C170.688 151.095 170.634 150.705 170.594 150.46C170.311 149.017 170.217 147.876 170.041 147.184C168.6 146.996 167.953 146.809 165.999 146.693C164.719 146.693 163.304 146.549 162.752 146.549C162.536 147.068 161.822 148.425 161.499 149.32C161.364 149.753 161.162 150.243 160.987 150.763C159.545 150.763 158.09 150.763 156.648 150.763C156.823 150.214 157.133 149.666 157.389 149.06V149.089ZM150.127 160.345L159.114 160.663C160.015 160.709 160.917 160.661 161.809 160.518L162.092 165.713C161.734 164.963 161.174 164.344 160.485 163.938C159.796 163.531 159.008 163.356 158.225 163.433L154.91 163.332L154.775 168.426H156.675C157.98 168.538 159.291 168.538 160.596 168.426L159.734 173.261C159.569 172.651 159.208 172.124 158.715 171.773C158.221 171.422 157.628 171.269 157.039 171.342L154.722 171.255L154.546 177.778L157.241 177.879C158.226 177.964 159.215 177.773 160.11 177.325C161.005 176.877 161.776 176.188 162.348 175.325L161.485 181.097C160.484 180.876 159.463 180.765 158.44 180.765L149.642 180.39C150.221 179.87 150.76 160.836 150.127 160.316V160.345ZM136.168 131.006C136.257 131.02 136.348 131.02 136.437 131.006C137.461 130.875 138.493 130.836 139.523 130.891C140.183 131.728 140.87 132.882 141.638 133.994C142.73 135.61 144.333 137.876 145.047 138.742C145.83 137.833 146.555 136.869 147.217 135.855C148.564 133.792 150.113 131.093 150.518 130.27L150.801 129.722C151.798 129.722 152.795 129.751 153.792 129.809C153.683 130.317 153.611 130.833 153.576 131.353C153.495 133.431 153.576 139.882 153.765 143.518C153.913 147.559 154.048 149.291 154.088 150.835L150.046 150.95C150.046 149.608 150.289 147.343 150.302 145.178C150.316 143.013 150.302 141.238 150.302 139.405C150.302 138.352 150.302 137.255 150.302 135.942C149.655 136.88 149.049 137.832 148.254 139.045C147.607 140.011 147.001 140.978 146.422 141.815C145.842 142.652 145.398 143.258 145.074 143.677C145.074 143.994 144.953 144.326 144.751 144.298C144.266 144.298 143.228 143.013 142.056 141.411C141.382 140.473 140.183 138.972 139.765 138.193C139.765 139.073 139.765 139.636 139.765 140.646C139.765 142.725 139.765 143.879 139.765 145.957C139.765 148.035 139.887 149.897 139.846 151.21L136.693 151.34C136.693 151.066 136.693 150.777 136.693 149.897C136.693 148.194 136.168 134.47 136.181 133.388C136.181 132.867 136.208 132.347 136.262 131.829C136.168 131.613 136.168 131.324 136.168 131.006ZM59.4607 202.614L56.2135 204.057L55.5937 204.634C56.2823 202.741 56.6165 200.72 56.5773 198.689L56.4695 197.52L54.1924 196.769L47.9 190.723C46.8951 189.596 45.6452 188.753 44.2621 188.269L49.5304 185.383C49.5297 186.071 49.6821 186.75 49.975 187.362C50.2679 187.974 50.6928 188.503 51.2146 188.904L56.1326 193.753L55.4724 186.538C55.302 185.187 54.691 183.945 53.7477 183.031L58.019 180.679C58.019 180.679 58.3693 183.334 58.5579 185.224L59.6897 196.842C59.7958 198.769 59.719 200.703 59.4607 202.614ZM81.2885 195.052C80.852 194.301 80.1712 193.749 79.3774 193.504C78.5837 193.259 77.7332 193.337 76.9903 193.724L68.7173 197.26C67.9139 197.54 67.2286 198.115 66.7823 198.883C66.3361 199.651 66.1577 200.564 66.2785 201.46L63.2064 196.409C63.8038 196.205 64.3298 195.812 64.7155 195.283L65.2141 181.443C65.2009 180.725 64.9801 180.028 64.582 179.449C64.1838 178.87 63.6279 178.437 62.9909 178.211L69.7278 175.325C69.4656 175.93 69.3695 176.603 69.4506 177.265C69.5317 177.926 69.7867 178.55 70.1859 179.062L79.0518 189.164C79.3114 189.268 79.5887 189.311 79.8651 189.291C80.1416 189.271 80.4109 189.189 80.6552 189.049L81.3424 195.11L81.2885 195.052ZM88.0255 187.028C87.756 188.082 88.1737 189.078 88.0255 189.915L82.6359 191.516C82.9542 190.821 83.1385 190.064 83.1779 189.29C83.2172 188.517 83.1108 187.742 82.8649 187.014L80.1702 175.96C79.6177 173.636 78.6072 172.496 77.8661 172.207L83.7542 170.288C83.4297 170.984 83.2397 171.742 83.1957 172.519C83.1517 173.295 83.2546 174.073 83.4982 174.805L84.6839 179.741C85.1292 181.722 85.4221 183.74 85.5597 185.773H85.6541C85.7944 183.631 86.1283 181.51 86.6511 179.437L88.5375 171.731C88.8536 170.774 88.9687 169.754 88.8743 168.744L94.2639 167.113C93.5852 168.477 93.4212 170.068 93.8058 171.558L96.5006 182.742C97.0665 185.066 98.0636 186.206 98.8046 186.494L92.8626 188.298C93.212 187.61 93.4203 186.85 93.4737 186.068C93.5272 185.287 93.4245 184.502 93.1725 183.767L91.9599 178.716C91.4813 176.616 91.2059 174.469 91.138 172.308H91.0436C90.9282 174.572 90.5894 176.817 90.0331 179.005L88.0255 187.028ZM110.352 195.543C109.395 196.43 108.392 197.259 107.347 198.025C105.798 199.223 103.13 200.911 103.184 200.911C106.54 202.782 109.34 205.621 111.268 209.108C110.356 209.973 109.197 210.482 107.98 210.551C107.846 210.551 105.434 206.063 103.076 204.779C101.596 203.852 100.045 203.06 98.4408 202.412C98.1444 202.499 97.336 204.403 97.0934 205.024C96.8509 205.645 95.2071 208.906 94.3987 208.935C93.5902 208.964 92.0407 208.935 91.5691 208.935C91.0975 208.935 90.5586 208.747 90.7472 208.343C90.9358 207.939 91.1918 207.766 91.3535 207.434C91.65 206.813 94.3852 202.022 95.1262 200.853C95.8301 199.763 96.4605 198.62 97.0126 197.433C97.7132 195.99 98.2522 194.345 98.36 194.201C98.5891 193.739 100.651 193.551 101.823 193.436C103.238 193.306 102.389 194.186 102.254 194.46C101.823 195.355 101.594 196.481 101.068 197.664C100.651 198.588 100.085 199.988 100.085 199.988C101.875 198.978 103.615 197.87 105.299 196.668C107.307 195.225 109.018 192.96 109.422 192.916C109.53 192.916 112.898 192.498 112.818 192.916C112.111 193.923 111.266 194.808 110.311 195.543H110.352ZM108.775 184.474L101.284 186.004C101.72 185.327 102.012 184.557 102.14 183.747C102.268 182.936 102.229 182.106 102.025 181.314L100.219 170.288C100.179 169.477 99.9634 168.687 99.5893 167.981C99.2151 167.275 98.6928 166.671 98.0636 166.219L104.801 164.775C108.506 164.025 110.635 165.237 111.174 168.643C111.357 169.58 111.244 170.556 110.854 171.418C110.464 172.28 109.818 172.979 109.018 173.405V173.492C110.102 173.455 111.162 173.842 112 174.58C112.837 175.318 113.396 176.357 113.572 177.504C114.165 181.169 112.09 183.796 108.735 184.474H108.775ZM101.055 147.732C101.432 150.315 104.167 153.505 105.905 153.303C110.109 152.798 109.88 149.926 110.177 147.804C110.177 147.242 110.325 146.635 110.365 146.145C110.406 145.654 110.675 145.25 111.052 145.221C111.809 145.006 112.579 144.851 113.357 144.759C113.491 144.759 113.707 144.759 113.734 144.947C113.822 146.013 113.822 147.085 113.734 148.151C113.746 150.142 113.191 152.09 112.144 153.736C110.965 155.12 109.395 156.052 107.674 156.388C105.953 156.724 104.177 156.446 102.618 155.597C101.85 155.191 101.17 154.616 100.624 153.909C99.0606 152.163 98.4947 150.07 98.0501 147.011C97.5801 143.124 98.51 139.192 100.651 136.014C101.821 134.399 103.486 133.28 105.353 132.854C106.611 132.562 107.923 132.688 109.112 133.214C110.985 134.008 111.807 135.639 113.074 137.443C113.383 137.933 113.747 138.251 113.774 138.886C113.801 139.521 112.076 139.939 111.416 140.084C110.756 140.228 110.46 139.795 110.19 139.261C109.921 138.727 109.759 138.28 109.557 137.905C109.233 137.241 108.492 136.736 107.024 137.024C105.857 137.319 104.767 137.891 103.834 138.698C102.901 139.505 102.149 140.526 101.634 141.686C100.752 143.554 100.531 145.703 101.014 147.732H101.055ZM114.354 163.073L120.457 162.337C120.026 162.964 119.72 163.68 119.557 164.44C119.395 165.199 119.38 165.986 119.514 166.752L119.932 171.818C120.067 173.463 119.932 177.922 119.932 177.922C120.4 175.835 121.054 173.8 121.886 171.847L124.904 164.53C125.367 163.644 125.639 162.658 125.699 161.644L131.223 160.98C130.335 162.211 129.929 163.764 130.091 165.309L131.048 176.854C131.236 179.25 132.058 180.534 132.746 180.953L126.601 181.689C127.05 181.07 127.371 180.357 127.543 179.596C127.715 178.834 127.734 178.043 127.598 177.273L127.167 172.092C127.019 170.303 127.248 165.627 127.248 165.627C126.785 167.842 126.108 169.999 125.227 172.063L122.034 179.539C121.804 180.433 121.673 181.353 121.643 182.28L116.038 183.031C116.46 182.399 116.759 181.682 116.917 180.923C117.074 180.164 117.087 179.379 116.954 178.615L116.024 167.243C115.822 164.862 115.014 163.563 114.327 163.145L114.354 163.073ZM132.934 199.511C132.746 201.589 132.476 204.115 132.274 205.919C132.004 208.141 131.789 211.128 131.546 212.86C131.536 213.483 131.408 214.096 131.169 214.664C131.034 214.982 128.623 214.505 127.962 214.246C127.794 214.181 127.652 214.058 127.559 213.895C127.466 213.732 127.428 213.54 127.45 213.351C127.45 212.889 127.545 212.124 127.679 210.465C127.948 208.741 128.11 207.001 128.164 205.255C127.868 204.793 125.672 204.504 124.351 204.201C122.68 203.812 119.811 203.494 119.811 203.494C119.811 203.826 119.474 205.486 119.325 206.727C119.218 207.636 119.11 208.993 119.016 209.512C118.921 210.032 118.854 211.201 118.84 211.374C117.585 211.469 116.324 211.372 115.095 211.085C114.556 210.955 114.987 209.642 115.095 209.021C115.202 208.401 115.93 203.422 116.442 200.016C116.698 198.169 116.873 196.437 117.062 195.341C117.179 194.409 117.42 193.501 117.776 192.642C118.914 192.942 120.065 193.178 121.225 193.349C121.131 194.201 120.767 196.452 120.525 198.4C120.387 199.058 120.329 199.732 120.35 200.406C120.498 200.594 123.044 200.536 124.904 200.796C126.049 200.954 128.299 201.835 128.596 201.662C129.108 201.358 129.471 196.582 129.566 195.297C129.609 194.851 129.609 194.401 129.566 193.955L133.109 194.071C133.312 194.29 133.428 194.585 133.433 194.893C133.356 196.442 133.19 197.985 132.934 199.511ZM130.549 151.715C130.361 151.138 130.172 150.517 130.078 150.171C129.606 148.728 129.377 147.703 129.121 147.039C127.666 147.039 126.992 147.039 125.079 147.27C123.812 147.458 122.384 147.617 121.845 147.718C121.697 148.281 121.158 149.753 120.956 150.691C120.754 151.629 120.525 152.523 120.35 153.216C119.312 153.418 118.275 153.635 117.25 153.865L116.186 154.082C116.179 153.981 116.179 153.88 116.186 153.779C116.369 152.885 116.626 152.011 116.954 151.167C117.614 148.829 118.301 146.448 119.245 143.446C119.945 140.935 120.592 138.987 121.104 137.039C122.088 133.647 122.276 131.512 122.721 131.266C122.91 131.266 124.149 131.266 124.526 131.266C125.044 131.175 125.566 131.117 126.089 131.093C126.251 131.093 126.345 131.815 126.628 132.536C127.127 133.633 128.111 135.711 128.919 137.832C130.105 140.95 131.142 143.735 132.031 146.087C132.921 148.439 133.055 149.074 133.527 150.214C133.716 150.662 133.891 151.08 134.039 151.47C132.826 151.528 131.695 151.6 130.549 151.715ZM134.187 166.146L134.47 160.821C135.629 160.966 146.287 160.605 147.432 160.388L147.998 165.67C147.674 165.041 147.194 164.518 146.613 164.16C146.031 163.801 145.368 163.62 144.697 163.635H142.811C142.811 163.635 143.094 175.426 144.023 179.437C144.131 179.949 144.408 180.4 144.805 180.707L138.31 180.924C138.638 180.536 138.865 180.063 138.971 179.553C139.712 175.786 139.388 163.679 139.388 163.679H137.488C136.782 163.707 136.098 163.949 135.514 164.375C134.93 164.801 134.47 165.395 134.187 166.089V166.146ZM152.822 213.091C152.822 214.13 152.458 214.65 152.135 214.751C151.526 214.889 150.897 214.889 150.289 214.751C149.992 214.751 149.561 214.751 149.278 214.751C148.995 214.751 149.103 214.274 149.103 213.307C149.103 212.038 149.103 211.056 149.17 209.44C149.238 207.824 149.17 206.914 149.17 205.587C149.17 204.894 149.17 202.239 149.17 202.239C149.17 202.239 148.375 204.144 147.675 205.673C146.974 207.203 145.977 209.122 144.98 210.768C144.064 212.421 143.047 214.007 141.935 215.515C141.709 215.809 141.44 216.063 141.14 216.266C139.833 216.223 138.528 216.108 137.232 215.92C137.103 215.736 137.028 215.515 137.017 215.285C137.065 214.042 137.182 212.804 137.367 211.576C137.569 209.411 137.798 197.967 137.96 194.489C139.25 194.643 140.532 194.869 141.8 195.167V195.269C141.719 197.39 141.8 200.94 141.598 203.321C141.409 206.554 141.167 210.854 141.167 210.854C142.397 209.241 143.488 207.512 144.427 205.688C145.222 204.072 145.99 202.701 146.691 201.041C147.392 199.381 147.742 198.083 148.227 196.712C148.483 196.033 148.699 195.384 148.928 194.807C149.992 194.432 151.057 194.042 152.148 193.681C152.148 193.811 152.148 193.926 152.148 194.085C152.148 194.908 152.148 195.341 152.148 196.221C152.148 199.771 152.148 202.354 152.418 206.323C152.647 209.151 152.862 212.254 152.822 213.033V213.091ZM164.814 194.489C163.609 194.635 162.424 194.931 161.283 195.37C161.229 196.273 161.283 197.18 161.445 198.068C161.62 200.016 161.822 202.123 161.903 203.999C162.058 206.34 162.031 208.691 161.822 211.027C161.715 211.85 160.475 212.471 158.858 213.091C158.252 213.322 157.861 213.38 157.834 212.254C157.834 211.403 157.834 206.583 157.726 202.989C157.726 200.334 157.551 197.794 157.497 195.774C157.497 194.836 157.389 194.056 157.389 193.508C157.383 193.426 157.383 193.344 157.389 193.263C157.74 193.118 161.607 192.137 162.307 192.05C164.384 191.669 166.481 191.428 168.586 191.329C168.861 192.121 169.073 192.937 169.22 193.768C167.818 194.114 166.242 194.128 164.814 194.432V194.489ZM191.761 208.141C190.714 208.346 189.657 208.485 188.595 208.56C188.11 208.127 186.978 206.236 186.614 205.832C185.997 204.981 185.322 204.18 184.593 203.437C183.704 203.033 182.276 203.336 180.16 203.437C178.971 203.459 177.786 203.589 176.617 203.826C176.35 204.606 176.186 205.422 176.132 206.251C176.132 207.03 175.835 208.098 175.781 208.574C175.781 208.733 175.647 209.151 175.539 209.209C175.202 209.339 174.501 209.209 173.801 209.368C172.709 209.541 171.955 209.729 171.524 209.757C171.435 209.774 171.344 209.77 171.256 209.748C171.169 209.725 171.086 209.683 171.014 209.625C170.942 209.567 170.882 209.494 170.838 209.41C170.793 209.326 170.765 209.233 170.756 209.137C170.912 208.39 171.133 207.661 171.416 206.958C171.955 204.981 172.534 202.816 172.979 200.319C173.356 198.241 173.599 196.712 173.787 195.37C174.111 193.046 173.787 191.964 174.084 191.949C174.32 191.994 174.554 192.052 174.784 192.123C175.094 192.149 175.405 192.149 175.714 192.123C176.226 192.123 178.005 192.123 178.503 192.123C178.651 192.123 178.948 192.541 179.392 192.931C180.687 194.036 181.928 195.211 183.111 196.452C185.159 198.645 187.032 200.781 188.676 202.585C190.32 204.389 190.724 204.88 191.613 205.746C192.235 206.288 192.812 206.886 193.338 207.535C193.486 207.896 192.017 208.083 191.761 208.083V208.141ZM188.878 184.214L181.616 182.858C182.198 182.392 182.676 181.793 183.015 181.104C183.353 180.414 183.542 179.653 183.569 178.875L185.254 167.46C185.433 166.724 185.46 165.955 185.332 165.207C185.204 164.459 184.924 163.75 184.512 163.13L190.562 164.256C189.875 164.631 188.231 170.75 188.231 170.75L190.562 171.183C194.173 171.861 196.383 174.531 195.79 178.6C195.143 182.944 192.112 184.719 188.878 184.156V184.214ZM211.137 189.987L205.262 188.327C205.923 188.01 208.496 179.668 208.496 179.668L202.029 177.836C202.029 177.836 200.803 186.494 201.274 187.158L195.453 185.412C196.062 184.992 196.577 184.435 196.963 183.779C197.35 183.123 197.598 182.385 197.69 181.617L200.169 170.505C200.423 169.766 200.52 168.977 200.455 168.194C200.39 167.41 200.163 166.652 199.792 165.973L205.667 167.633C205.006 167.95 202.716 174.935 202.716 174.935L209.183 176.753C209.183 176.753 210.126 169.393 209.655 168.758L215.53 170.418C214.921 170.838 214.406 171.395 214.02 172.051C213.633 172.707 213.385 173.445 213.293 174.213L210.787 185.441C210.547 186.164 210.459 186.934 210.529 187.697C210.599 188.46 210.825 189.198 211.191 189.857L211.137 189.987ZM230.001 176.306C229.516 176.61 229.123 177.054 228.865 177.588C228.607 178.122 228.497 178.723 228.545 179.322L228.411 191.964C228.339 193.798 228.647 195.626 229.313 197.318L223.924 195.167C224.436 194.98 224.988 191.069 224.988 191.069L218.911 188.616C218.911 188.616 217.146 192.036 217.362 192.512L212.444 190.492C213.904 189.627 215.168 188.43 216.149 186.985L223.115 177.114C223.491 176.665 223.745 176.114 223.85 175.521C223.954 174.929 223.905 174.317 223.708 173.752L229.96 176.277L230.001 176.306ZM251.559 187.274C250.777 187.404 249.524 188.342 248.541 190.535L243.825 201.113C242.841 203.35 242.909 204.995 243.313 205.789L237.788 202.686C238.503 202.513 239.688 201.546 240.672 199.353L242.814 194.922C240.119 196.712 234.73 200.319 234.245 200.911L230.27 198.328C231.507 197.868 232.698 197.278 233.827 196.567C235.026 195.759 238.799 193.681 238.799 193.681C235.255 191.877 235.282 188.904 236.36 186.465C238.166 182.41 241.117 181.371 245.024 183.579L251.599 187.288L251.559 187.274Z" fill="#FCFCFC"/>
</g>
<defs>
<clipPath id="clip0_1408_3023">
<rect width="290" height="265" fill="white"/>
</clipPath>
</defs>
</svg>
