<svg width="64" height="64" viewBox="0 0 64 64" fill="none" xmlns="http://www.w3.org/2000/svg">
  <path fill-rule="evenodd" clip-rule="evenodd"
    d="M52.7384 11.8132C53.3974 11.5359 54.1187 11.4402 54.8272 11.5362C55.5357 11.6322 56.2055 11.9164 56.7669 12.3591C57.3283 12.8018 57.7608 13.3869 58.0194 14.0535C58.2779 14.72 58.3531 15.4437 58.2371 16.1492L52.1891 52.8346C51.6024 56.3732 47.7197 58.4026 44.4744 56.6399C41.7597 55.1652 37.7277 52.8932 34.1011 50.5226C32.2877 49.3359 26.7331 45.5359 27.4157 42.8319C28.0024 40.5199 37.3357 31.8319 42.6691 26.6666C44.7624 24.6372 43.8077 23.4666 41.3357 25.3332C35.1971 29.9679 25.3411 37.0159 22.0824 38.9999C19.2077 40.7492 17.7091 41.0479 15.9171 40.7492C12.6477 40.2052 9.61573 39.3626 7.14106 38.3359C3.79706 36.9492 3.95973 32.3519 7.13839 31.0132L52.7384 11.8132Z"
    fill="#28AE60" />
</svg>