<svg width="64" height="64" viewBox="0 0 64 64" fill="none" xmlns="http://www.w3.org/2000/svg">
  <path
    d="M57.344 49.0146H51.2587C48.9573 49.0146 48.264 47.1506 44.1387 43.0226C40.5333 39.5479 39.0107 39.1159 38.0987 39.1159C36.8373 39.1159 36.4933 39.4626 36.4933 41.1986V46.6706C36.4933 48.1506 36.0133 49.0172 32.1467 49.0172C28.3954 48.7652 24.7578 47.6256 21.5332 45.6923C18.3087 43.759 15.5897 41.0873 13.6 37.8972C8.87737 32.0162 5.59042 25.1155 4 17.7426C4 16.8306 4.34667 16.0039 6.08533 16.0039H12.1653C13.728 16.0039 14.2907 16.6999 14.904 18.3079C17.856 26.9959 22.8933 34.5532 24.9387 34.5532C25.7227 34.5532 26.064 34.2066 26.064 32.2519V23.3026C25.8053 19.2199 23.6373 18.8759 23.6373 17.3986C23.6648 17.0088 23.843 16.6451 24.1343 16.3847C24.4256 16.1243 24.807 15.9877 25.1973 16.0039H34.7547C36.0613 16.0039 36.4933 16.6546 36.4933 18.2172V30.2972C36.4933 31.6012 37.0533 32.0332 37.448 32.0332C38.232 32.0332 38.8347 31.6012 40.272 30.1666C43.3517 26.4083 45.8687 22.2223 47.744 17.7399C47.9351 17.2011 48.2975 16.7399 48.7758 16.4268C49.2541 16.1137 49.8218 15.9661 50.392 16.0066H56.4747C58.2987 16.0066 58.6853 16.9186 58.2987 18.2199C56.0857 23.1753 53.3483 27.8795 50.1333 32.2519C49.4773 33.2519 49.216 33.7719 50.1333 34.9452C50.736 35.8572 52.8693 37.6386 54.3013 39.3319C56.3867 41.4119 58.1173 43.8172 59.4267 46.4519C59.9493 48.1479 59.08 49.0146 57.344 49.0146Z"
    fill="#28AE60" />
</svg>