<svg width="1920" height="1113" viewBox="0 0 1920 1113" fill="none" xmlns="http://www.w3.org/2000/svg">
<g clip-path="url(#clip0_1223_3872)">
<mask id="mask0_1223_3872" style="mask-type:alpha" maskUnits="userSpaceOnUse" x="0" y="-18" width="1920" height="1131">
<rect y="-18" width="1920" height="1131" fill="#D9D9D9"/>
</mask>
<g mask="url(#mask0_1223_3872)">
<rect width="1920" height="1128" transform="matrix(-1 0 0 1 1920 -12)" fill="#26407B"/>
<g filter="url(#filter0_dddd_1223_3872)">
<path fill-rule="evenodd" clip-rule="evenodd" d="M0.000244141 -10.8008H1920V247.144C1920.34 247.81 1920.68 248.485 1921 249.17C1921 256.203 1921.13 278.897 1921.32 311.618C1922.14 454.763 1924.06 789.804 1921 844.967C1920.66 845.205 1920.33 845.446 1920 845.692V1117.11H0.000244141V900.102C-0.765625 898.047 -1.10229 895.831 -0.973511 893.449C-0.973511 802.042 -0.658569 610.321 -0.382202 442.018C-0.213867 339.562 -0.0598145 245.785 0.000244141 188.598V-10.8008ZM0.000244141 188.598C0.017334 172.295 0.0268555 158.966 0.0268555 149.257C0.0268555 129.975 6.36768 133.283 19.0081 139.879C37.125 149.333 68.1826 165.54 112.059 131.662C170.605 139.336 218.185 136.379 259.099 133.837C277.253 132.709 294.095 131.662 310 131.662C332.601 131.662 370.522 144.272 408.538 156.914C446.747 169.62 485.052 182.358 508 182.358C582.318 182.358 620.548 159.645 659.233 136.662C698.851 113.125 738.945 89.3047 818.766 89.3047C853.131 89.3047 873.807 96.5918 903.345 107.003C935.427 118.31 977.963 133.301 1059.84 146.643C1107.31 154.378 1169.99 146.065 1231.69 137.882C1310.4 127.442 1387.52 117.213 1429.45 140.786C1502.9 182.091 1576.23 148.878 1634.62 122.431C1690.26 97.2308 1732.33 78.1733 1748.04 135.572C1758.32 173.139 1795.84 184.258 1834.03 195.577C1868.82 205.888 1904.17 216.364 1920 247.144V845.692C1903.13 858.29 1898.33 881.148 1893.46 904.327C1880.77 964.83 1867.61 1027.52 1638.01 915.605C1577.35 962.599 1509.16 966.959 1410.91 973.242C1359.29 976.543 1299.37 980.375 1227.89 991.197C1203.21 994.933 1159.52 974.234 1115.13 953.201C1064.62 929.268 1013.19 904.902 987.816 915.605C825.102 1036.81 630.936 960.05 557.69 915.605C384.425 960.709 354.068 935.97 322.95 910.611C306.77 897.425 290.385 884.073 253.601 880.283C173.902 921.204 14.1096 937.967 0.000244141 900.102V188.598Z" fill="#5AACB8"/>
</g>
<g filter="url(#filter1_dddd_1223_3872)">
<path fill-rule="evenodd" clip-rule="evenodd" d="M-0.472168 -39H1919.53V231.892C1919.69 232.241 1919.84 232.592 1920 232.946C1920 240.072 1920.1 262.147 1920.25 294.109C1920.93 444.23 1922.59 812.457 1919.53 874.188V1158H-0.472168V932.362C-0.897461 930.614 -1.06909 928.765 -0.971069 926.813C-0.971069 839.227 -0.721802 666.089 -0.472168 501.319V-39ZM-0.472168 501.319C-0.441284 480.966 -0.410522 460.74 -0.380127 440.819C-0.16394 299.074 0.0286865 172.757 0.0286865 125.644C0.0286865 104.885 6.36633 108.447 19.0001 115.548C37.1077 125.726 68.1493 143.173 112.003 106.702C170.613 114.976 219.268 111.77 260.842 109.03C279.193 107.821 296.164 106.702 312.002 106.702C334.592 106.702 371.026 118.505 407.552 130.338C444.263 142.231 481.067 154.155 504.002 154.155C578.282 154.155 617.404 131.442 656.991 108.459C697.533 84.922 738.563 61.1016 818.342 61.1016C852.689 61.1016 873.354 68.9466 902.877 80.1545C934.942 92.3272 977.456 108.467 1059.3 122.83C1106.74 131.157 1169.38 122.208 1231.05 113.398C1309.72 102.159 1386.8 91.1465 1428.7 116.524C1502.12 160.992 1575.41 125.236 1633.77 96.7637C1689.38 69.6346 1731.44 49.1179 1747.13 110.911C1757.4 151.35 1794.89 163.253 1833.06 175.37C1868.23 186.533 1903.97 197.879 1919.53 231.892V874.188C1919.52 874.361 1919.51 874.531 1919.5 874.698C1901.81 888.096 1896.97 913.21 1892.06 938.668C1879.52 1003.76 1866.54 1071.09 1637.16 950.665C1576.53 1001.26 1508.38 1005.95 1410.18 1012.72C1358.58 1016.27 1298.7 1020.39 1227.25 1032.05C1202.59 1036.07 1158.92 1013.78 1114.55 991.14C1064.07 965.375 1012.67 939.143 987.304 950.665C824.675 1081.15 630.61 998.513 557.402 950.665C384.227 999.223 353.885 972.589 322.784 945.289C306.613 931.094 290.236 916.719 253.471 912.639C172.782 957.263 9.9519 975.203 -0.472168 932.362V501.319Z" fill="#FCFCFC"/>
</g>
<g filter="url(#filter2_dddd_1223_3872)">
<path fill-rule="evenodd" clip-rule="evenodd" d="M-0.472656 -39H1919.53V211.261C1919.69 211.639 1919.84 212.02 1920 212.403C1920 221.78 1920.24 255.059 1920.58 302.415C1921.83 477.849 1924.46 846.472 1921.5 908.761C1920.83 909.316 1920.17 909.889 1919.53 910.481V1158H-0.472656V970.471C-0.900024 968.572 -1.07251 966.564 -0.974365 964.442C-0.974365 869.128 -0.723145 680.361 -0.472656 501.122V-39ZM-0.472656 501.122C-0.442749 479.733 -0.412842 458.48 -0.383423 437.538C-0.167236 283.86 0.0253906 146.91 0.0253906 95.8311C0.0253906 73.3249 6.36292 77.1869 18.9967 84.8856C37.1042 95.9198 68.1459 114.836 112 75.2948C171.191 84.3544 227.102 80.7188 273.061 77.7303C292.698 76.4535 310.517 75.2948 326 75.2948C348.59 75.2948 382.039 87.1953 415.572 99.1258C449.276 111.117 483.064 123.138 506 123.138C580.279 123.138 618.913 99.3931 658.006 75.3654C698.042 50.7586 738.56 25.8555 818.339 25.8555C852.686 25.8555 873.351 34.3609 902.874 46.5122C934.939 59.7097 977.453 77.2077 1059.29 92.7805C1106.73 101.808 1169.38 92.1053 1231.05 82.554C1309.72 70.3687 1386.8 58.4296 1428.7 85.9433C1502.12 134.155 1575.41 95.3887 1633.77 64.5196C1689.38 35.1068 1731.43 12.8631 1747.13 79.858C1757.4 123.705 1794.9 136.671 1833.07 149.871C1868.23 162.03 1903.97 174.387 1919.53 211.261V910.481C1903.5 925.291 1898.66 951.245 1893.75 977.569C1880.6 1048.02 1866.96 1121.11 1637.15 990.303C1576.52 1045.15 1508.38 1050.24 1410.17 1057.58C1358.58 1061.43 1298.69 1065.9 1227.25 1078.53C1202.58 1082.89 1158.92 1058.73 1114.55 1034.18C1064.06 1006.25 1012.67 977.811 987.301 990.303C824.672 1131.77 630.606 1042.18 557.399 990.303C384.224 1042.95 353.882 1014.07 322.78 984.474C306.609 969.084 290.233 953.499 253.468 949.076C172.786 997.452 9.97778 1016.9 -0.472656 970.471V501.122Z" fill="#FCFCFC"/>
</g>
<g filter="url(#filter3_dddd_1223_3872)">
<path fill-rule="evenodd" clip-rule="evenodd" d="M0 -11.9688H1920V195.568C1920.33 201.226 1920.5 207.192 1920.5 213.482C1920.5 292.785 1920.75 439.477 1921 587.08C1921.25 736.581 1921.5 887.016 1921.5 969.312C1921.5 985.367 1921.04 999.547 1920 1012.01V1115.95H0V1049.68C0 1072.72 54.6039 1056.75 119.221 1037.85C192.034 1016.55 277.562 991.54 312 1014.43C361.759 1047.51 501.01 1066.24 589 1075.06C892.162 1105.45 942.252 1060.38 967.641 1037.54C978.766 1027.53 985.148 1021.79 1006 1028.53C1030.18 1036.35 1053.23 1045.77 1076.3 1055.19C1157.24 1088.26 1238.49 1121.45 1370 1086.34C1427.7 1092.61 1492.89 1073.9 1547.02 1058.36C1549.94 1057.52 1552.83 1056.69 1555.68 1055.88L1645 1041.22C1667.73 1047.24 1688.68 1052.97 1707.96 1058.24C1863.89 1100.87 1911.48 1113.88 1920 1012.01V195.568C1914.59 102.868 1866.29 92.56 1820.04 82.6907C1788.12 75.8812 1757.19 69.2804 1742 35.9685C1728.94 7.32626 1698.89 18.6017 1656.03 34.6874C1610.27 51.8583 1549.9 74.5104 1480 59.9401C1421.22 47.6876 1329.75 47.4183 1241.7 47.159C1157.48 46.9111 1076.39 46.6724 1030 35.9685C763.253 -25.5805 643.95 25.4834 568.743 57.6731C519.614 78.7011 489.303 91.6749 449 59.9401C347 -20.3742 0 35.9685 0 35.9685V-11.9688Z" fill="#FCFCFC"/>
</g>
</g>
</g>
<defs>
<filter id="filter0_dddd_1223_3872" x="-31.0002" y="-40.8008" width="1983.67" height="1187.92" filterUnits="userSpaceOnUse" color-interpolation-filters="sRGB">
<feFlood flood-opacity="0" result="BackgroundImageFix"/>
<feColorMatrix in="SourceAlpha" type="matrix" values="0 0 0 0 0 0 0 0 0 0 0 0 0 0 0 0 0 0 127 0" result="hardAlpha"/>
<feOffset dx="15"/>
<feGaussianBlur stdDeviation="7.5"/>
<feComposite in2="hardAlpha" operator="out"/>
<feColorMatrix type="matrix" values="0 0 0 0 0 0 0 0 0 0 0 0 0 0 0 0 0 0 0.15 0"/>
<feBlend mode="normal" in2="BackgroundImageFix" result="effect1_dropShadow_1223_3872"/>
<feColorMatrix in="SourceAlpha" type="matrix" values="0 0 0 0 0 0 0 0 0 0 0 0 0 0 0 0 0 0 127 0" result="hardAlpha"/>
<feOffset dx="-15"/>
<feGaussianBlur stdDeviation="7.5"/>
<feComposite in2="hardAlpha" operator="out"/>
<feColorMatrix type="matrix" values="0 0 0 0 0 0 0 0 0 0 0 0 0 0 0 0 0 0 0.15 0"/>
<feBlend mode="normal" in2="effect1_dropShadow_1223_3872" result="effect2_dropShadow_1223_3872"/>
<feColorMatrix in="SourceAlpha" type="matrix" values="0 0 0 0 0 0 0 0 0 0 0 0 0 0 0 0 0 0 127 0" result="hardAlpha"/>
<feOffset dy="-15"/>
<feGaussianBlur stdDeviation="7.5"/>
<feComposite in2="hardAlpha" operator="out"/>
<feColorMatrix type="matrix" values="0 0 0 0 0 0 0 0 0 0 0 0 0 0 0 0 0 0 0.15 0"/>
<feBlend mode="normal" in2="effect2_dropShadow_1223_3872" result="effect3_dropShadow_1223_3872"/>
<feColorMatrix in="SourceAlpha" type="matrix" values="0 0 0 0 0 0 0 0 0 0 0 0 0 0 0 0 0 0 127 0" result="hardAlpha"/>
<feOffset dy="15"/>
<feGaussianBlur stdDeviation="7.5"/>
<feComposite in2="hardAlpha" operator="out"/>
<feColorMatrix type="matrix" values="0 0 0 0 0 0 0 0 0 0 0 0 0 0 0 0 0 0 0.15 0"/>
<feBlend mode="normal" in2="effect3_dropShadow_1223_3872" result="effect4_dropShadow_1223_3872"/>
<feBlend mode="normal" in="SourceGraphic" in2="effect4_dropShadow_1223_3872" result="shape"/>
</filter>
<filter id="filter1_dddd_1223_3872" x="-30.9978" y="-69" width="1982.31" height="1257" filterUnits="userSpaceOnUse" color-interpolation-filters="sRGB">
<feFlood flood-opacity="0" result="BackgroundImageFix"/>
<feColorMatrix in="SourceAlpha" type="matrix" values="0 0 0 0 0 0 0 0 0 0 0 0 0 0 0 0 0 0 127 0" result="hardAlpha"/>
<feOffset dx="15"/>
<feGaussianBlur stdDeviation="7.5"/>
<feComposite in2="hardAlpha" operator="out"/>
<feColorMatrix type="matrix" values="0 0 0 0 0 0 0 0 0 0 0 0 0 0 0 0 0 0 0.15 0"/>
<feBlend mode="normal" in2="BackgroundImageFix" result="effect1_dropShadow_1223_3872"/>
<feColorMatrix in="SourceAlpha" type="matrix" values="0 0 0 0 0 0 0 0 0 0 0 0 0 0 0 0 0 0 127 0" result="hardAlpha"/>
<feOffset dx="-15"/>
<feGaussianBlur stdDeviation="7.5"/>
<feComposite in2="hardAlpha" operator="out"/>
<feColorMatrix type="matrix" values="0 0 0 0 0 0 0 0 0 0 0 0 0 0 0 0 0 0 0.15 0"/>
<feBlend mode="normal" in2="effect1_dropShadow_1223_3872" result="effect2_dropShadow_1223_3872"/>
<feColorMatrix in="SourceAlpha" type="matrix" values="0 0 0 0 0 0 0 0 0 0 0 0 0 0 0 0 0 0 127 0" result="hardAlpha"/>
<feOffset dy="-15"/>
<feGaussianBlur stdDeviation="7.5"/>
<feComposite in2="hardAlpha" operator="out"/>
<feColorMatrix type="matrix" values="0 0 0 0 0 0 0 0 0 0 0 0 0 0 0 0 0 0 0.15 0"/>
<feBlend mode="normal" in2="effect2_dropShadow_1223_3872" result="effect3_dropShadow_1223_3872"/>
<feColorMatrix in="SourceAlpha" type="matrix" values="0 0 0 0 0 0 0 0 0 0 0 0 0 0 0 0 0 0 127 0" result="hardAlpha"/>
<feOffset dy="15"/>
<feGaussianBlur stdDeviation="7.5"/>
<feComposite in2="hardAlpha" operator="out"/>
<feColorMatrix type="matrix" values="0 0 0 0 0 0 0 0 0 0 0 0 0 0 0 0 0 0 0.15 0"/>
<feBlend mode="normal" in2="effect3_dropShadow_1223_3872" result="effect4_dropShadow_1223_3872"/>
<feBlend mode="normal" in="SourceGraphic" in2="effect4_dropShadow_1223_3872" result="shape"/>
</filter>
<filter id="filter2_dddd_1223_3872" x="-31.0012" y="-69" width="1983.86" height="1257" filterUnits="userSpaceOnUse" color-interpolation-filters="sRGB">
<feFlood flood-opacity="0" result="BackgroundImageFix"/>
<feColorMatrix in="SourceAlpha" type="matrix" values="0 0 0 0 0 0 0 0 0 0 0 0 0 0 0 0 0 0 127 0" result="hardAlpha"/>
<feOffset dx="15"/>
<feGaussianBlur stdDeviation="7.5"/>
<feComposite in2="hardAlpha" operator="out"/>
<feColorMatrix type="matrix" values="0 0 0 0 0 0 0 0 0 0 0 0 0 0 0 0 0 0 0.15 0"/>
<feBlend mode="normal" in2="BackgroundImageFix" result="effect1_dropShadow_1223_3872"/>
<feColorMatrix in="SourceAlpha" type="matrix" values="0 0 0 0 0 0 0 0 0 0 0 0 0 0 0 0 0 0 127 0" result="hardAlpha"/>
<feOffset dx="-15"/>
<feGaussianBlur stdDeviation="7.5"/>
<feComposite in2="hardAlpha" operator="out"/>
<feColorMatrix type="matrix" values="0 0 0 0 0 0 0 0 0 0 0 0 0 0 0 0 0 0 0.15 0"/>
<feBlend mode="normal" in2="effect1_dropShadow_1223_3872" result="effect2_dropShadow_1223_3872"/>
<feColorMatrix in="SourceAlpha" type="matrix" values="0 0 0 0 0 0 0 0 0 0 0 0 0 0 0 0 0 0 127 0" result="hardAlpha"/>
<feOffset dy="-15"/>
<feGaussianBlur stdDeviation="7.5"/>
<feComposite in2="hardAlpha" operator="out"/>
<feColorMatrix type="matrix" values="0 0 0 0 0 0 0 0 0 0 0 0 0 0 0 0 0 0 0.15 0"/>
<feBlend mode="normal" in2="effect2_dropShadow_1223_3872" result="effect3_dropShadow_1223_3872"/>
<feColorMatrix in="SourceAlpha" type="matrix" values="0 0 0 0 0 0 0 0 0 0 0 0 0 0 0 0 0 0 127 0" result="hardAlpha"/>
<feOffset dy="15"/>
<feGaussianBlur stdDeviation="7.5"/>
<feComposite in2="hardAlpha" operator="out"/>
<feColorMatrix type="matrix" values="0 0 0 0 0 0 0 0 0 0 0 0 0 0 0 0 0 0 0.15 0"/>
<feBlend mode="normal" in2="effect3_dropShadow_1223_3872" result="effect4_dropShadow_1223_3872"/>
<feBlend mode="normal" in="SourceGraphic" in2="effect4_dropShadow_1223_3872" result="shape"/>
</filter>
<filter id="filter3_dddd_1223_3872" x="-30" y="-41.9688" width="1981.5" height="1187.92" filterUnits="userSpaceOnUse" color-interpolation-filters="sRGB">
<feFlood flood-opacity="0" result="BackgroundImageFix"/>
<feColorMatrix in="SourceAlpha" type="matrix" values="0 0 0 0 0 0 0 0 0 0 0 0 0 0 0 0 0 0 127 0" result="hardAlpha"/>
<feOffset dx="15"/>
<feGaussianBlur stdDeviation="7.5"/>
<feComposite in2="hardAlpha" operator="out"/>
<feColorMatrix type="matrix" values="0 0 0 0 0 0 0 0 0 0 0 0 0 0 0 0 0 0 0.15 0"/>
<feBlend mode="normal" in2="BackgroundImageFix" result="effect1_dropShadow_1223_3872"/>
<feColorMatrix in="SourceAlpha" type="matrix" values="0 0 0 0 0 0 0 0 0 0 0 0 0 0 0 0 0 0 127 0" result="hardAlpha"/>
<feOffset dx="-15"/>
<feGaussianBlur stdDeviation="7.5"/>
<feComposite in2="hardAlpha" operator="out"/>
<feColorMatrix type="matrix" values="0 0 0 0 0 0 0 0 0 0 0 0 0 0 0 0 0 0 0.15 0"/>
<feBlend mode="normal" in2="effect1_dropShadow_1223_3872" result="effect2_dropShadow_1223_3872"/>
<feColorMatrix in="SourceAlpha" type="matrix" values="0 0 0 0 0 0 0 0 0 0 0 0 0 0 0 0 0 0 127 0" result="hardAlpha"/>
<feOffset dy="-15"/>
<feGaussianBlur stdDeviation="7.5"/>
<feComposite in2="hardAlpha" operator="out"/>
<feColorMatrix type="matrix" values="0 0 0 0 0 0 0 0 0 0 0 0 0 0 0 0 0 0 0.15 0"/>
<feBlend mode="normal" in2="effect2_dropShadow_1223_3872" result="effect3_dropShadow_1223_3872"/>
<feColorMatrix in="SourceAlpha" type="matrix" values="0 0 0 0 0 0 0 0 0 0 0 0 0 0 0 0 0 0 127 0" result="hardAlpha"/>
<feOffset dy="15"/>
<feGaussianBlur stdDeviation="7.5"/>
<feComposite in2="hardAlpha" operator="out"/>
<feColorMatrix type="matrix" values="0 0 0 0 0 0 0 0 0 0 0 0 0 0 0 0 0 0 0.15 0"/>
<feBlend mode="normal" in2="effect3_dropShadow_1223_3872" result="effect4_dropShadow_1223_3872"/>
<feBlend mode="normal" in="SourceGraphic" in2="effect4_dropShadow_1223_3872" result="shape"/>
</filter>
<clipPath id="clip0_1223_3872">
<rect width="1920" height="1113" fill="white" transform="matrix(-1 0 0 1 1920 0)"/>
</clipPath>
</defs>
</svg>
