<svg width="784" height="477" viewBox="0 0 784 477" fill="none" xmlns="http://www.w3.org/2000/svg">
<path d="M-3.81934 170.801L-20.847 182.688L-19.3907 200.712L-36.402 192.023L-54.6873 200.217L-49.21 181.923L-62.6469 169.977L-42.4751 167.321L-31.537 151.307L-23.776 167.215L-3.81934 170.801Z" fill="#FFB57D"/>
<path d="M-41.2493 312.755C-49.5881 302.845 -46.9141 295.027 -33.2273 289.301C-20.1592 286.501 -17.7109 279.581 -25.8824 268.541C-34.6726 260.427 -32.2243 253.507 -18.5375 247.781C-4.85064 242.055 -3.10642 235.36 -13.3048 227.694" stroke="#E666FF" stroke-width="3" stroke-linecap="round"/>
<path d="M32.9626 228.087L22.8977 196.502L-13.0102 207.944L-2.94531 239.529L32.9626 228.087Z" fill="#66BFFF"/>
<path d="M22.8943 196.503L-1.52429 200.191L15.5494 217.263L22.8943 196.503Z" fill="#FFE666"/>
<path d="M40.398 244.137L42.3343 221.007L20.0279 224.022L40.398 244.137Z" fill="#668CFF"/>
<path d="M53.2688 269.345L37.907 264.473L23.769 272.09L27.2337 257.993L16.633 248.722L32.2128 245.22L40.2932 232.306L47.7198 244.51L61.6399 245.266L50.5306 255.532L53.2688 269.345Z" fill="#FFC466"/>
<path d="M38.1809 156.841L50.6783 130.346L24.2276 120.355L11.7301 146.85L38.1809 156.841Z" fill="#AADE62"/>
<path d="M43.6797 196.018L85.9242 182.557L79.7477 155.873L37.5032 169.334L43.6797 196.018Z" fill="#F2CA2C"/>
<path d="M109.986 291.521C96.2951 296.829 83.2142 296.28 80.7688 290.294C78.3235 284.308 87.4397 275.152 101.131 269.843C114.821 264.534 127.902 265.083 130.348 271.069C132.793 277.055 123.677 286.212 109.986 291.521Z" fill="#FFDB66"/>
<path d="M21.6828 36.2464L27.6712 44.9937L38.8446 44.7116L31.1607 52.2565L33.1421 63.8133L23.4769 59.8015L13.2941 65.8619L13.8117 55.7897L5.98485 49.4101L16.4978 45.2758L21.6828 36.2464Z" fill="#FFDB66"/>
<path d="M52.4927 195.619L62.6915 181.957L57.2519 167.203L73.0342 171.069L88.0973 161.064L87.3391 176.491L101.788 184.687L86.437 189.144L79.481 205.243L71.0862 193.6L52.4927 195.619Z" fill="#FF6680"/>
<path d="M161.406 258.783L140.78 230.564L106.312 253.827L126.346 280.188L161.406 258.783Z" fill="#667AFF"/>
<path d="M102.056 152.858L59.6197 92.7033" stroke="#8A66FF" stroke-width="4" stroke-linecap="round"/>
<path d="M166.41 285.801C152.398 287.101 147.531 282.294 151.809 271.38C155.298 257.989 149.804 252.917 135.328 256.166C120.062 256.937 115.272 251.642 120.958 240.279C123.039 227.336 117.545 222.265 104.477 225.065" stroke="#A5D85E" stroke-width="4" stroke-linecap="round"/>
<path d="M107.031 124.665L132.81 147.149L142.939 113.222L107.031 124.665Z" fill="#666BFF"/>
<path d="M96.1065 31.9588L111.58 65.9135L138.271 32.8489L96.1065 31.9588Z" fill="#66A6FF"/>
<path d="M114.102 44.6415L73.7779 -16.1865" stroke="#CF66FF" stroke-width="3" stroke-linecap="round"/>
<path d="M122.69 100.253L133.658 99.4289L141.925 92.1073L143.793 103.003L153.927 106.577L143.894 112.849L140.928 123.32L133.393 116.397L122.425 117.221L127.158 107.8L122.69 100.253Z" fill="#C266FF"/>
<path d="M143.021 98.869L176.225 86.2417L155.263 64.2691L143.021 98.869Z" fill="#FF668C"/>
<path d="M190.24 57.2158L151.372 59.3685L149.948 98.7079L190.928 95.8821L190.24 57.2158Z" fill="#A4D970"/>
<path d="M167.058 77.3593L179.492 92.7632L201.41 92.1032L187.542 108.299L195.502 125.81L173.853 120.545L155.781 132.923L156.677 113.173L139.591 103.826L159.586 97.3073L167.058 77.3593Z" fill="#7366FF"/>
<path d="M197.839 68.6972C184.153 76.6133 169.656 77.891 165.459 71.5511C161.263 65.2112 168.956 53.6544 182.643 45.7383C196.329 37.8222 210.826 36.5445 215.022 42.8844C219.218 49.2243 211.525 60.7811 197.839 68.6972Z" fill="#54CEE0"/>
<path d="M124.588 55.6292L216.758 1.69897" stroke="#9E66FF" stroke-width="3" stroke-linecap="round"/>
<path d="M280.974 228.622L261.627 240.927L260.619 259.667L245.322 248.169L224.199 254.9L232.136 235.998L219.879 219.438L241.257 220.812L254.603 204.28L260.523 222.859L280.974 228.622Z" fill="#1B93EA"/>
<path d="M206.533 88.1842C217.979 84.3847 219.761 87.152 211.877 96.4862C203.599 104.582 205.994 107.23 219.062 104.43C230.327 100.84 232.018 103.712 224.134 113.046C215.856 121.142 218.054 123.17 230.727 119.132" stroke="#FF7866" stroke-width="3" stroke-linecap="round"/>
<path d="M239.912 8.64299L218.102 -23.2924L204.004 20.0854L239.912 8.64299Z" fill="#D9D9D9"/>
<path d="M218.77 -35.7822L208.641 -1.85539L231.203 3.23448L241.925 -28.8344L218.77 -35.7822Z" fill="#A4D970"/>
<path d="M297.341 188.865L302.318 160.673L276.379 166.892L297.341 188.865Z" fill="#FFA600"/>
<path d="M299.538 130.146C302.391 137.13 300.08 144.584 294.375 146.796C288.671 149.008 281.733 145.14 278.881 138.156C276.028 131.172 278.339 123.718 284.044 121.506C289.748 119.294 296.685 123.162 299.538 130.146Z" fill="#FFB566"/>
<path d="M256.986 25.7159L297.455 6.68041L281.053 -22.8853L242.697 -4.52289L256.986 25.7159Z" fill="#F2CA2C"/>
<path d="M286.142 36.894L321.202 15.4888L301.76 -9.01488L268.813 11.7172L286.142 36.894Z" fill="#FF7D66"/>
<path d="M301.994 38.4644L302.005 44.6954L307.561 48.0549L299.934 50.4455L297.863 56.1955L294.389 53.317L287.452 53.7909L291.605 48.5217L289.512 41.8098L295.758 43.2526L301.994 38.4644Z" fill="#FF66BA"/>
<path d="M280.727 34.5192L331.852 48.9266" stroke="#FFC966" stroke-width="3" stroke-linecap="round"/>
<path d="M306.07 129.676C309.5 117.27 315.61 115.124 324.401 123.238C333.191 131.353 339.527 129.333 343.411 117.181C345.886 105.477 351.518 103.682 360.308 111.796C370.507 119.461 376.843 117.442 379.318 105.738" stroke="#4CCCD8" stroke-width="4" stroke-linecap="round"/>
<path d="M341.687 -10.0559L328.088 0.215102L331.754 15.8831L316.68 10.4201L300.979 18.7822L303.888 2.91617L291.275 -8.53779L308.899 -11.0408L316.102 -25.0638L324.242 -11.5029L341.687 -10.0559Z" fill="#8CC14C"/>
<path d="M388 99.12L377.29 112.932L386.801 125.691L368.268 125.373L357.846 136.391L354.802 120.943L339.935 115.09L354.557 108.343L357.979 90.208L369.179 101.596L388 99.12Z" fill="#C766FF"/>
<path d="M403.508 54.7469L334.3 42.0083" stroke="#96C853" stroke-width="3" stroke-linecap="round"/>
<path d="M380.181 25.3442L402.568 7.97747L369.444 6.25301L380.181 25.3442Z" fill="#6666FF"/>
<path d="M405.773 -25.792L371.977 -15.0227L380.266 10.9885L414.061 0.219122L405.773 -25.792Z" fill="#7566FF"/>
<path d="M437.384 29.6263L413.397 63.8757L446.44 79.9519L468.315 46.3755L437.384 29.6263Z" fill="#FF6675"/>
<path d="M443.131 25.747L456.301 -13.2419L431.626 -17.6587L420.569 20.6571L443.131 25.747Z" fill="#FF7D66"/>
<path d="M465.846 13.3362C473.124 24.6886 469.525 31.989 455.049 35.2376C440.967 39.7249 437.111 47.0936 443.479 57.3438C450.243 68.8326 446.386 76.2013 431.91 79.4499C417.828 83.9371 414.169 91.9251 420.933 103.414" stroke="#FF66E0" stroke-width="3" stroke-linecap="round"/>
<path d="M507.872 26.5854L495.816 36.5917L495.672 52.4887L481.327 45.0318L466.584 51.5316L471.086 34.8863L458.666 25.1149L476.096 22.1217L485.465 8.60878L491.857 23.3833L507.872 26.5854Z" fill="#66DBFF"/>
<path d="M520.726 75.0789L516.038 69.6695L507.273 70.621L509.159 64.498L506.561 56.8889L515.428 57.8991L519.505 51.5381L522.103 59.1472L528.88 62.357L522.51 66.9941L520.726 75.0789Z" fill="#66A8FF"/>
<path d="M545.972 56.4248L549.428 30.7641L528.05 29.3901L522.481 55.7239L545.972 56.4248Z" fill="#A3FF66"/>
<path d="M548.293 84.8269L554.265 79.7692L553.891 73.5715L559.657 76.6507L566.584 75.8513L564.842 81.669L567.913 86.3074L560.986 87.1067L557.129 92.5444L554.639 85.9668L548.293 84.8269Z" fill="#66EBFF"/>
<path d="M569.565 24.4008C579.12 22.3013 587.69 24.8931 588.706 30.1899C589.722 35.4866 582.8 41.4824 573.246 43.582C563.691 45.6815 555.121 43.0896 554.105 37.7929C553.089 32.4961 560.011 26.5003 569.565 24.4008Z" fill="#FFE666"/>
<path d="M626.967 21.3609C635.602 27.7237 633.695 30.8421 621.246 30.716C610.205 30.1412 608.882 33.2915 617.278 40.167C627.081 46.5938 625.758 49.7441 613.309 49.618C600.465 48.2533 598.438 51.628 607.228 59.7421" stroke="#A4D970" stroke-width="4" stroke-linecap="round"/>
<path d="M642.913 119.679L666.915 136.59L694.791 107.241L670.788 90.3305L642.913 119.679Z" fill="#41B9FF"/>
<path d="M641.32 29.3076L652.679 34.5211L663.114 25.6101L662.145 38.8658L673.504 44.0793L660.39 49.4777L656.743 59.2206L647.6 50.4575L635.918 49.6625L643.352 41.6573L641.32 29.3076Z" fill="#FF66D6"/>
<path d="M648.305 70.8838L748.011 69.8103" stroke="#6670FF" stroke-width="4" stroke-linecap="round"/>
</svg>
