<svg width="743" height="445" viewBox="0 0 743 445" fill="none" xmlns="http://www.w3.org/2000/svg">
<path d="M193.541 384.347C189.078 395.831 184.099 396.201 178.602 385.458C174.837 375.651 170.371 376.009 165.202 386.53C161.764 397.988 158.163 398.814 154.398 389.007C148.902 378.264 144.435 378.622 140.997 390.08" stroke="#9C66FF" stroke-width="3" stroke-linecap="round"/>
<path d="M230.632 412.38L207.753 431.63L241.908 431.801L230.632 412.38Z" fill="#8766FF"/>
<path d="M300.361 478.417L281.277 444.781L257.09 458.33L278.336 491.469L300.361 478.417Z" fill="#FF666B"/>
<path d="M286.011 419.78C293.577 429.233 295.639 439.579 290.617 442.889C285.595 446.199 275.39 441.22 267.823 431.767C260.257 422.315 258.194 411.968 263.217 408.658C268.239 405.348 278.444 410.327 286.011 419.78Z" fill="#CB0A0A"/>
<path d="M232.422 408.275C239.483 398.074 244.897 397.877 248.662 407.683C252.717 418.757 258.195 419.501 265.095 409.917C271.704 399.065 277.036 399.176 281.092 410.25C286.297 419.726 292.35 419.672 299.25 410.087" stroke="#96C853" stroke-width="4" stroke-linecap="round"/>
<path d="M275.358 372.25C267.224 363.192 266.118 351.841 272.887 346.899C279.657 341.956 291.739 345.292 299.873 354.351C308.007 363.41 309.114 374.76 302.344 379.703C295.575 384.646 283.493 381.309 275.358 372.25Z" fill="#FFB85A"/>
<path d="M343.139 466.602L319.733 433.958L307.277 478.827L343.139 466.602Z" fill="#AB66FF"/>
<path d="M317.735 460.055L326.733 453.943L327.04 444.126L335.67 449.796L346.81 445.593L344.3 455.465L350.664 463.153L339.647 463.429L332.791 471.448L328.691 461.742L317.735 460.055Z" fill="#66B5FF"/>
<path d="M351.549 334.639L332.919 312.903L315.669 336.864L351.549 334.639Z" fill="#9966FF"/>
<path d="M369.425 442.115L353.027 435.956L335.287 446.69L336.335 427.049L321.049 416.562L341.075 412.485L348.624 394.759L359.696 409.99L378.61 410.241L365.966 424.471L369.425 442.115Z" fill="#96C853"/>
<path d="M352.223 466.522L374.555 385.379" stroke="#EC1E79" stroke-width="3" stroke-linecap="round"/>
<path d="M408.798 435.546L384.213 467.191L400.228 477.523L427.41 447.282L408.798 435.546Z" fill="#41B9FF"/>
<path d="M439.582 371.033L421.627 381.466L421.582 399.548L405.351 389.478L386.448 396.127L393.425 378.35L381.026 365.33L401.348 364.357L413.578 349.306L419.992 365.803L439.582 371.033Z" fill="#FFB57D"/>
<path d="M390.502 509.392C383.015 498.823 386.328 491.254 400.443 486.684C413.698 484.978 416.712 478.285 409.485 466.605C401.399 457.79 404.413 451.097 418.528 446.526C432.642 441.956 434.936 435.428 425.409 426.943" stroke="#E666FF" stroke-width="3" stroke-linecap="round"/>
<path d="M409.453 319.356L402.572 338.939L422.891 338.281L409.453 319.356Z" fill="#9EFF66"/>
<path d="M471.484 431.173L464.074 398.862L427.341 407.285L434.75 439.597L471.484 431.173Z" fill="#66BFFF"/>
<path d="M464.073 398.863L439.432 400.512L455.031 418.942L464.073 398.863Z" fill="#FFE666"/>
<path d="M477.56 447.785L481.41 424.896L458.93 426.05L477.56 447.785Z" fill="#668CFF"/>
<path d="M488.296 473.974L473.392 467.845L458.67 474.262L463.293 460.501L453.498 450.382L469.315 448.186L478.439 435.986L484.827 448.765L498.637 450.673L486.714 459.982L488.296 473.974Z" fill="#FFC466"/>
<path d="M482.596 360.606L497.249 335.24L471.719 323.089L457.066 348.455L482.596 360.606Z" fill="#AADE62"/>
<path d="M484.824 400.105L528.04 390.195L524.099 363.091L480.883 373L484.824 400.105Z" fill="#F2CA2C"/>
<path d="M655.162 356.059L660.404 365.273L671.562 365.919L663.279 372.8L664.294 384.481L654.995 379.681L644.345 384.876L645.696 374.881L638.426 367.874L649.246 364.627L655.162 356.059Z" fill="#FFDB66"/>
<path d="M493.641 400.438L504.938 387.669L500.741 372.515L516.149 377.678L531.99 368.957L529.954 384.268L543.673 393.635L528.005 396.802L519.737 412.269L512.338 399.969L493.641 400.438Z" fill="#FF6680"/>
<path d="M596.937 472.423L578.724 442.589L542.445 462.911L560.222 490.845L596.937 472.423Z" fill="#667AFF"/>
<path d="M608.297 432.424L571 368.955" stroke="#8A66FF" stroke-width="4" stroke-linecap="round"/>
<path d="M599.681 499.763C585.61 499.895 581.159 494.701 586.328 484.18C590.916 471.124 585.862 465.614 571.166 467.651C555.889 467.152 551.555 461.478 558.164 450.626C561.311 437.901 556.257 432.391 543.002 434.097" stroke="#A5D85E" stroke-width="4" stroke-linecap="round"/>
<path d="M553.881 334.255L577.704 358.801L590.614 325.831L553.881 334.255Z" fill="#666BFF"/>
<path d="M550.684 240.962L563.286 276.083L592.629 245.348L550.684 240.962Z" fill="#66A6FF"/>
<path d="M567.566 255.094L532.429 191.13" stroke="#CF66FF" stroke-width="3" stroke-linecap="round"/>
<path d="M571.509 311.226L582.507 311.315L591.353 304.705L592.311 315.718L602.114 320.121L591.594 325.539L587.77 335.727L580.835 328.203L569.837 328.114L575.335 319.118L571.509 311.226Z" fill="#C266FF"/>
<path d="M591.887 311.534L626.024 301.706L606.957 278.07L591.887 311.534Z" fill="#FF668C"/>
<path d="M642.398 273.943L603.485 272.863L598.801 311.949L639.875 312.533L642.398 273.943Z" fill="#A4D970"/>
<path d="M617.625 292.094L628.737 308.476L650.634 309.637L635.47 324.627L641.95 342.738L620.813 335.694L601.776 346.53L604.308 326.923L588.056 316.19L608.523 311.353L617.625 292.094Z" fill="#7366FF"/>
<path d="M649.02 286.016C634.724 292.769 620.171 292.839 616.515 286.173C612.859 279.507 621.485 268.628 635.781 261.875C650.077 255.122 664.63 255.052 668.285 261.718C671.941 268.384 663.316 279.263 649.02 286.016Z" fill="#54CEE0"/>
<path d="M577.104 266.914L673.431 220.819" stroke="#9E66FF" stroke-width="3" stroke-linecap="round"/>
<path d="M718.594 452.288L698.294 462.945L695.734 481.537L681.443 468.809L659.835 473.764L669.313 455.586L658.473 438.066L679.663 441.209L694.335 425.841L698.693 444.848L718.594 452.288Z" fill="#1B93EA"/>
<path d="M656.066 306.157C667.789 303.32 669.334 306.226 660.703 314.874C651.782 322.254 653.949 325.092 667.204 323.386C678.728 320.744 680.175 323.746 671.544 332.394C662.623 339.775 664.644 341.979 677.609 339.006" stroke="#FF7866" stroke-width="3" stroke-linecap="round"/>
<path d="M695.929 229.66L676.844 196.025L659.195 238.083L695.929 229.66Z" fill="#D9D9D9"/>
<path d="M678.547 183.634L665.637 216.603L687.699 223.547L701.045 192.479L678.547 183.634Z" fill="#A4D970"/>
<path d="M738.207 414.026L745.506 386.345L719.141 390.39L738.207 414.026Z" fill="#FFA600"/>
<path d="M745.268 355.692C747.531 362.888 744.609 370.125 738.741 371.856C732.872 373.587 726.28 369.157 724.016 361.96C721.753 354.764 724.675 347.527 730.544 345.796C736.412 344.065 743.004 348.495 745.268 355.692Z" fill="#FFB566"/>
<path d="M711.529 248.091L753.437 232.479L739.546 201.655L699.798 216.771L711.529 248.091Z" fill="#F2CA2C"/>
<path d="M739.962 193.553L731.282 175.537L699.741 186.771L708.421 204.786L739.962 193.553Z" fill="#66FF8A"/>
<path d="M739.657 261.65L776.372 243.228L759.031 217.195L724.476 235.122L739.657 261.65Z" fill="#FF7D66"/>
<path d="M755.323 264.53L754.817 270.741L760.075 274.55L752.276 276.299L749.735 281.858L746.512 278.701L739.559 278.597L744.135 273.691L742.606 266.828L748.711 268.785L755.323 264.53Z" fill="#FF66BA"/>
<path d="M734.457 258.834L784.21 277.434" stroke="#FFC966" stroke-width="3" stroke-linecap="round"/>
</svg>
